<svg viewBox="0 0 48 48" xmlns="http://www.w3.org/2000/svg"><g fill-rule="nonzero" fill="none"><circle fill="#34A853" cx="24" cy="24" r="24"/><path d="M24 0C10.745 0 0 10.745 0 24s10.745 24 24 24V0z" fill="#292D33" opacity=".15"/><path d="M24.585 16.39c-5.321 0-9.866 3.31-11.707 7.983 1.841 4.672 6.386 7.982 11.707 7.982 5.322 0 9.866-3.31 11.708-7.982-1.842-4.673-6.386-7.983-11.708-7.983zm0 13.304a5.323 5.323 0 0 1-5.321-5.321 5.323 5.323 0 0 1 5.321-5.322 5.323 5.323 0 0 1 5.322 5.322 5.323 5.323 0 0 1-5.322 5.321zm0-8.514a3.189 3.189 0 0 0-3.193 3.193 3.189 3.189 0 0 0 3.193 3.192 3.189 3.189 0 0 0 3.193-3.192 3.189 3.189 0 0 0-3.193-3.193z" fill="#FFF"/></g></svg>