<svg viewBox="0 0 41 41" xmlns="http://www.w3.org/2000/svg"><g transform="translate(-24 -40)" fill-rule="nonzero" fill="none"><rect stroke="#D9D9D9" x=".5" y=".5" width="219" height="349" rx="3"/><circle fill="#34A853" cx="44.5" cy="60.5" r="20.5"/><path d="M45 54c-4.545 0-8.427 2.827-10 6.818 1.573 3.991 5.455 6.818 10 6.818s8.427-2.827 10-6.818C53.427 56.828 49.545 54 45 54zm0 11.364a4.547 4.547 0 0 1-4.545-4.546A4.547 4.547 0 0 1 45 56.273a4.547 4.547 0 0 1 4.545 4.545A4.547 4.547 0 0 1 45 65.364zm0-7.273a2.724 2.724 0 0 0-2.727 2.727A2.724 2.724 0 0 0 45 63.545a2.724 2.724 0 0 0 2.727-2.727A2.724 2.724 0 0 0 45 58.091z" fill="#FFF"/></g></svg>