<svg viewBox="0 0 48 48" xmlns="http://www.w3.org/2000/svg"><g fill-rule="nonzero" fill="none"><circle fill="#EA4335" cx="24" cy="24" r="24"/><path d="M24 0C10.745 0 0 10.745 0 24s10.745 24 24 24V0z" fill="#292D33" opacity=".15"/><path d="M37.902 24.45l-5.61-.011c-.616 0-1.121.505-1.121 1.122v10.098c0 .617.505 1.121 1.122 1.121h5.61c.617 0 1.121-.504 1.121-1.121V25.56c0-.617-.504-1.11-1.122-1.11zm0 10.087h-5.61v-7.854h5.61v7.854zM34.537 14.34H14.34a2.236 2.236 0 0 0-2.243 2.244V30.05c0 1.234.998 2.244 2.243 2.244h7.854v2.244h-2.244v2.243h8.976v-2.243h-2.244v-2.244h2.244v-2.244H14.34V16.585h20.196v5.61h2.243v-5.61a2.243 2.243 0 0 0-2.243-2.244zm-9.01 7.854L24.44 18.83l-1.088 3.366h-3.4l2.771 1.975-1.054 3.265 2.771-2.02 2.771 2.02-1.054-3.265 2.77-1.975h-3.399z" fill="#FFF"/></g></svg>