<svg viewBox="0 0 41 41" xmlns="http://www.w3.org/2000/svg"><g fill="none" fill-rule="evenodd"><path d="M-381-4390h1440v6628H-381z" fill="none"/><g fill-rule="nonzero"><circle cx="20.5" cy="20.5" fill="#ea4335" r="20.5"/><path d="M32 20.01L27 20c-.55 0-1 .45-1 1v9c0 .55.45 1 1 1h5c.55 0 1-.45 1-1v-9c0-.55-.45-.99-1-.99zM32 29h-5v-7h5zm-3-18H11c-1.11 0-2 .89-2 2v12a2 2 0 0 0 2 2h7v2h-2v2h8v-2h-2v-2h2v-2H11V13h18v5h2v-5a2 2 0 0 0-2-2zm-8.03 7L20 15l-.97 3H16l2.47 1.76-.94 2.91 2.47-1.8 2.47 1.8-.94-2.91L24 18z" fill="#fff"/></g></g></svg>
