<svg viewBox="0 0 48 48" xmlns="http://www.w3.org/2000/svg"><g fill-rule="nonzero" fill="none"><circle fill="#4285F4" cx="24" cy="24" r="24"/><path d="M24 0C10.745 0 0 10.745 0 24s10.745 24 24 24V0z" fill="#292D33" opacity=".15"/><path d="M38 20.333c0 1.284-1.064 2.334-2.364 2.334-.212 0-.413-.024-.602-.082l-4.208 4.142c.06.186.083.396.083.606 0 1.284-1.064 2.334-2.364 2.334-1.3 0-2.363-1.05-2.363-2.334 0-.21.023-.42.083-.606l-3.014-2.975c-.19.058-.402.081-.615.081-.212 0-.425-.023-.614-.081l-5.377 5.32c.059.186.082.385.082.595 0 1.283-1.063 2.333-2.363 2.333S12 30.95 12 29.667c0-1.284 1.064-2.334 2.364-2.334.212 0 .413.024.602.082l5.39-5.308a2.036 2.036 0 0 1-.083-.607c0-1.283 1.063-2.333 2.363-2.333S25 20.217 25 21.5c0 .21-.024.42-.083.607l3.014 2.975c.189-.059.402-.082.614-.082.213 0 .426.023.615.082l4.195-4.154a1.96 1.96 0 0 1-.082-.595c0-1.283 1.063-2.333 2.363-2.333S38 19.05 38 20.333z" fill="#FFF"/></g></svg>