<svg height="210" viewBox="0 0 217 210" width="217" xmlns="http://www.w3.org/2000/svg"><g fill="none"><circle cx="105" cy="105" fill="#e8f0fe" r="105"/><path d="m140.735178 41.157523c-3.576541 0-6.936723 1.5382865-9.967952 4.3503976-.002208.0022039-.004416.0022039-.006624.0044077-14.069935 8.5509335-51.2792076 28.7029273-89.3494992 28.7029273-.0044155 0-.0066232.0022039-.0110387.0022039s-.0066232-.0022039-.0110387-.0022039h-11.0387067c-7.912545 0-14.3503187 6.4264232-14.3503187 14.3250175v22.0384879c0 7.898595 6.4377737 14.325018 14.3503187 14.325018h7.7270947v40.771204c0 7.898594 6.4377737 14.325017 14.3503187 14.325017 7.9125449 0 14.3503187-6.426423 14.3503187-14.325017v-38.049451c28.2899975 5.793919 53.0829332 19.367424 63.9869672 25.987786.004415.002204.008831.004408.013246.006611 3.029022 2.8055 6.384788 4.343786 9.959122 4.343786 14.473952 0 25.389025-25.108449 25.389025-58.4019939 0-33.2935444-10.917281-58.4041981-25.391233-58.4041981zm-96.0124632 39.6229983c30.8289001-.859501 60.0439412-13.456701 77.9288542-22.9927549-4.561194 10.4440396-7.305417 25.0775959-7.305417 41.7717509 0 16.6897477 2.744223 31.3233037 7.303209 41.7673437-17.88712-9.531647-47.1087849-22.128847-77.9266462-22.988348zm77.2466612 18.778996c0-4.6258787.249475-9.0049264.666738-13.1613853 6.735819.6148738 12.027775 6.2809692 12.027775 13.1613853 0 6.8804157-5.291956 12.5443077-12.027775 13.1613857-.417263-4.156459-.666738-8.535507-.666738-13.1613857zm-99.3483597 11.0192437v-22.0384879c0-4.2534283 3.4661539-7.713471 7.7270947-7.713471h7.7513798v37.4654299h-7.7513798c-4.2609408 0-7.7270947-3.460042-7.7270947-7.713471zm37.5316027 55.096222c0 4.253428-3.4661539 7.71347-7.7270947 7.71347-4.2609407 0-7.7270946-3.460042-7.7270946-7.71347v-40.716108c5.1970231.15427 10.3675533.676582 15.4541893 1.472171zm80.582559-14.325018c-6.799843 0-14.175907-12.506842-17.264537-32.061593 9.994445-1.031401 17.816472-9.485365 17.816472-19.7288547 0-10.2434894-7.822027-18.6974536-17.816472-19.7288548 3.08863-19.5547508 10.464694-32.061593 17.264537-32.061593 8.877328 0 18.765801 21.2693452 18.765801 51.7904478 0 30.5211027-9.888473 51.7904477-18.765801 51.7904477zm38.876117-17.732168-6.395827-1.71239c-1.176726-.317354-1.87658-1.52286-1.560873-2.699715s1.523342-1.875475 2.704483-1.558121l6.395827 1.71239c1.176726.317355 1.87658 1.52286 1.560873 2.699715-.264929.985121-1.156856 1.633052-2.13047 1.633052-.189866.002204-.381939-.022038-.574013-.074931zm17.631022 2.441865c-.264929.98512-1.156856 1.633052-2.13047 1.633052-.187658 0-.381939-.024243-.574013-.074931l-6.395826-1.712391c-1.176727-.317354-1.876581-1.522859-1.560874-2.699714.315708-1.176856 1.518927-1.873272 2.704484-1.558122l6.395826 1.712391c1.176726.317354 1.87658 1.525063 1.560873 2.699715zm-27.440017 26.302936c-.408432.707435-1.150233 1.101924-1.914111 1.101924-.375316 0-.755048-.094765-1.103871-.295316l-5.735712-3.307977c-1.0553-.608262-1.41737-1.959221-.805826-3.010457.607129-1.055644 1.956059-1.419279 3.015775-.806609l5.735712 3.307977c1.0553.610466 1.41737 1.959222.808033 3.010458zm13.381121 7.717878c-.408433.707436-1.150234 1.101925-1.914112 1.101925-.375316 0-.755048-.094766-1.103871-.295316l-5.733504-3.305773c-1.0553-.608263-1.41737-1.959222-.805826-3.010458.609337-1.055643 1.958267-1.417075 3.015775-.806608l5.735712 3.307977c1.053093.608262 1.415162 1.957017.805826 3.008253zm-9.769256-135.4683841c-.609336-1.0556436-.247267-2.4021952.808033-3.0104575l5.73792-3.3057732c1.055301-.6104662 2.404231-.2446273 3.015775.8066086.609336 1.0556436.247267 2.4021953-.808033 3.0104575l-5.73792 3.3057733c-.348823.2005503-.728555.2953158-1.101663.2953158-.763879 0-1.50568-.3966928-1.914112-1.1019245zm-13.385536 7.7112671c-.609336-1.0556436-.247267-2.4021952.808034-3.0104575l5.735712-3.3057732c1.057508-.6104662 2.40423-.249035 3.015774.8066086.609337 1.0556436.247267 2.4021953-.808033 3.0104575l-5.735712 3.3057733c-.348823.2005503-.728555.2953158-1.101663.2953158-.761671 0-1.503472-.394489-1.914112-1.1019245zm28.005199 20.9101178 6.395827-1.7101867c1.178934-.319558 2.388776.3812659 2.704483 1.5581212.315707 1.1746514-.381939 2.3845644-1.560873 2.6997148l-6.395827 1.7101867c-.189865.0506885-.384147.0749309-.571805.0749309-.975821 0-1.867749-.6479316-2.13047-1.633052-.317915-1.1768553.379731-2.3845645 1.558665-2.6997149zm-14.928747 3.9911703 6.398035-1.7101867c1.183349-.3217619 2.388776.3812658 2.704483 1.5581211.315707 1.1746515-.381939 2.3845645-1.560873 2.6997148l-6.398035 1.7101868c-.192073.0506885-.384147.0749308-.571805.0749308-.975821 0-1.867749-.6479315-2.13047-1.633052-.317915-1.1746514.379731-2.3845644 1.558665-2.6997148zm28.894919 32.3348702c0 1.2187287-.989068 2.2038487-2.207741 2.2038487h-6.623224c-1.218674 0-2.207742-.98512-2.207742-2.2038487 0-1.2187284.989068-2.2038489 2.207742-2.2038489h6.623224c1.218673 0 2.207741.9873243 2.207741 2.2038489zm-17.661931 2.2038487h-6.623224c-1.218673 0-2.207741-.98512-2.207741-2.2038487 0-1.2187284.989068-2.2038489 2.207741-2.2038489h6.623224c1.218674 0 2.207742.9851205 2.207742 2.2038489 0 1.2187287-.989068 2.2038487-2.207742 2.2038487zm-9.778086 12.599404c.161165-1.207709 1.276074-2.053987 2.477086-1.89531l1.095039.14325c1.207635.158677 2.059823 1.265009 1.898658 2.472719-.145711 1.108535-1.09504 1.915144-2.185664 1.915144-.097141 0-.194281-.006611-.291422-.019834l-1.09504-.143251c-1.207634-.158677-2.057614-1.265009-1.898657-2.472718zm12.261795 3.836901c-1.209842-.158677-2.059822-1.265009-1.898657-2.472719.158957-1.205505 1.278282-2.047375 2.477086-1.89531l1.159064.152066c1.209842.158677 2.059822 1.265009 1.898657 2.472718-.145711 1.108536-1.095039 1.915145-2.185664 1.915145-.09714 0-.194281-.006612-.291421-.019835zm13.999288-.379062c-.145711 1.108536-1.09504 1.915144-2.185664 1.915144-.09714 0-.194281-.006611-.291422-.019834l-1.095039-.14325c-1.207635-.158677-2.059823-1.26501-1.898658-2.472719s1.282698-2.049579 2.477086-1.89531l1.09504.14325c1.207634.158678 2.057615 1.26501 1.898657 2.472719zm-28.802193 27.26161c-.353239.848482-1.174519 1.359775-2.039953 1.359775-.280384 0-.56739-.052893-.843358-.167493l-1.019976-.420935c-1.125948-.465012-1.660222-1.756467-1.194388-2.88043.465833-1.123963 1.757362-1.657295 2.885518-1.192283l1.019976.420936c1.123741.465012 1.658014 1.756467 1.192181 2.88043zm9.714062 4.024228c-.353239.848482-1.174519 1.357571-2.039953 1.357571-.282591 0-.569598-.052893-.845565-.167493l-1.079586-.447381c-1.125948-.467216-1.658014-1.758671-1.19218-2.882634.465833-1.123963 1.75957-1.650683 2.885518-1.190079l1.079585.447382c1.125948.467216 1.660222 1.758671 1.192181 2.882634zm9.65666 3.99117c-.353238.848482-1.174518 1.359775-2.039953 1.359775-.280383 0-.567389-.052892-.843357-.167493l-1.019977-.420935c-1.125948-.465012-1.660221-1.756467-1.194388-2.88043.465834-1.123963 1.75957-1.657294 2.885518-1.192282l1.019977.420935c1.125948.467216 1.660221 1.758671 1.19218 2.88043zm-22.368835-100.233249c1.12374-.4672159 2.417477.0683194 2.885518 1.1922823.465833 1.1239629-.06844 2.4154183-1.194388 2.8804304l-1.019977.4209351c-.275967.1146002-.562974.1674925-.843357.1674925-.867642 0-1.688922-.5112929-2.039953-1.3597747-.465833-1.1239629.06844-2.4154183 1.194388-2.8804304zm12.603995-2.8209265c.465834 1.1261668-.070648 2.4132145-1.196596 2.8782266l-1.079585.4451775c-.275968.1146001-.560766.1674925-.84115.1674925-.867642 0-1.691129-.5112929-2.04216-1.3619786-.465834-1.1261668.070647-2.4132145 1.196595-2.8782266l1.079586-.4451775c1.128156-.4694198 2.417477.0683194 2.88331 1.1944861zm4.556778-1.8864946c-.465833-1.1239629.06844-2.4154183 1.194388-2.8804304l1.019977-.4209352c1.12374-.4672159 2.417477.0683194 2.885518 1.1922823s-.06844 2.4154183-1.194388 2.8804304l-1.019977.4209351c-.275967.1146002-.562974.1674925-.843357.1674925-.867642 0-1.688922-.5112929-2.042161-1.3597747zm-9.477833 38.5166662c-1.090624 0-2.037746-.8066087-2.185664-1.9151446-.158958-1.2077092.691023-2.3140413 1.898657-2.4727184l1.09504-.1432502c1.203219-.1564733 2.318128.6898047 2.477086 1.89531.158957 1.2055053-.691023 2.3140413-1.898658 2.4727184l-1.095039.1432502c-.099349.0132231-.196489.0198346-.291422.0198346zm8.179681-3.2793271c-.158957-1.2077091.691023-2.3140412 1.898658-2.4727184l1.159064-.1520655c1.203219-.1542695 2.318129.6898047 2.477086 1.89531.158957 1.2077091-.691023 2.3140413-1.898658 2.4727184l-1.159064.1520655c-.09714.0132231-.194281.0198347-.291422.0198347-1.090624.0022038-2.039953-.8066087-2.185664-1.9151447zm12.328028-3.8413085 1.09504-.1432502c1.205427-.1498617 2.318128.6898047 2.477086 1.89531.158957 1.2077092-.691024 2.3140413-1.898658 2.4727184l-1.09504.1432502c-.09714.0132231-.194281.0198347-.291422.0198347-1.090624 0-2.037745-.8066087-2.185664-1.9151447-.161165-1.2077092.688816-2.3140413 1.898658-2.4727184z" fill="#000" opacity=".699554" transform="translate(15 -2)"/></g></svg>