<svg height="210" viewBox="0 0 217 210" width="217" xmlns="http://www.w3.org/2000/svg" xmlns:xlink="http://www.w3.org/1999/xlink"><mask id="a" fill="#fff"><path d="m.95733999.25075h5.8216456v14.8928187h-5.8216456z" fill="none"/></mask><mask id="b" fill="#fff"><path d="m.67004466.78977289h6.96615192v6.21022711h-6.96615192z" fill="none"/></mask><g fill="none" fill-rule="evenodd" transform="translate(-14)"><circle cx="125.913716" cy="105" fill="#e6f4ea" fill-rule="nonzero" r="105"/><g transform="translate(76.913716 56)"><path d="m0 0h98v98h-98z"/><path d="m35.5167709 66.8150634-17.5429221-16.4809844c-2.4788579-1.4106723-4.4701408-1.4106723-5.9738488 0-1.503708 1.4106724-1.503708 3.2682414 0 5.572707l23.5167709 22.093214c32.0940259-29.7606264 48.9217689-45.5697241 50.4832291-47.4272931 1.042584-1.2402952 2.25044-3.2746304 0-5.5727069-1.5002933-1.532051-3.4775531-1.532051-5.9317794 0z" fill="#46484c" fill-rule="nonzero"/></g><g fill="#46484c" transform="matrix(.95105652 -.30901699 .30901699 .95105652 .913716 39.777087)"><path d="m43.1005598 25.09295c1.1330642-.2958869 2.2841454.1350357 2.9507715 1.0028385.2162031.2819862.384361.6116321.4804513.9770227l.3763535 1.4258178c.3923685 1.4873782-.5084776 3.0105011-2.0098878 3.4076649-1.4994084.3951779-3.0308468-.4964547-3.4292209-1.9798612l-.3763535-1.4258178c-.3943705-1.4873782.5064757-3.0144728 2.0078859-3.4076649"/><path d="m36.1005598 6.09295004c1.1330642-.29588698 2.2841454.13503567 2.9507715 1.00283843.2162031.28198625.384361.61163215.4804513.97702278l.3763535 1.4258178c.3923685 1.48737815-.5084776 3.01050105-2.0098878 3.40766485-1.4994084.3951779-3.0308468-.4964547-3.4292209-1.9798612l-.3763535-1.42581783c-.3943705-1.48737818.5064757-3.01447273 2.0078859-3.40766483"/><path d="m61.0021352 22.0000042c1.2491104-.0019983 2.3188612.7093906 2.769395 1.7225202.147331.3297167.2284698.691406.2284698 1.0690815v1.4027949c0 1.5446729-1.3451957 2.8015931-3 2.8055897-1.6569395.0039965-2.9978648-1.2469288-3-2.7955983v-1.4007966c0-1.5426747 1.347331-2.8015931 3.0021352-2.8035914"/><path d="m4.0362.25075c1.04.023375 1.934.643875 2.4 1.547.228.444125.354.954125.342 1.498125l-.202 8.9335c-.038 1.64475-1.328 2.951625-2.876 2.913375-1.554-.034-2.78-1.394-2.742-3.043l.204-8.93775c.038-1.6405 1.326-2.9495 2.874-2.91125" mask="url(#a)" transform="translate(57)"/><path d="m.32605362 43.6883137c.55415284-1.1607843 1.67268274-1.7835897 2.79325748-1.6764404.36193746.0357164.72591976.145098 1.07149847.3415384l1.26984838.7254902c1.40276327.7991554 1.94464704 2.6965913 1.21463758 4.2323982-.73000945 1.5380392-2.46403752 2.131825-3.86680079 1.334902l-1.26984838-.7254902c-1.40276327-.8013877-1.94464704-2.6988236-1.21259274-4.2323982"/><path d="m.9004 2.486c.462-1.076 1.514-1.71 2.614-1.696.358.004.72.076 1.07.23l1.36.588c1.422.616 2.074 2.272 1.462 3.698-.61 1.424-2.26 2.074-3.682 1.468l-1.362-.59c-1.42-.618-2.076-2.274-1.462-3.698" mask="url(#b)" transform="translate(19 49)"/><path d="m27.825856 34.9217411c.8570282-.8988343 2.1351639-1.1431982 3.2186168-.7203424.3512757.1381188.6835064.3442344.9734147.6247217l1.0707561 1.0284534c1.1807943 1.1389485 1.2188845 3.0301128.0867609 4.2243087-1.1342397 1.1899461-3.0112372 1.2324442-4.1962637.0956207l-1.0707561-1.0327032c-1.1786782-1.1368235-1.2146523-3.025863-.0825287-4.2200589"/><path d="m10.9064078 18.8039768c.7880346-.7384676 1.8849787-.968213 2.8621416-.6892364.4812264.1353857.9330329.3917981 1.3049853.7712883l6.108844 6.2318458c1.1242626 1.1487273 1.0843356 2.9764345-.0903613 4.0738794-1.1746969 1.1077013-3.0386613 1.0728293-4.1650254-.0800007l-6.1109455-6.2359483c-1.12216121-1.1446247-1.08223413-2.972332.0903613-4.0718281"/></g></g></svg>