<?xml version="1.0" encoding="UTF-8"?>
<svg width="217px" height="210px" viewBox="0 0 217 210" version="1.1" xmlns="http://www.w3.org/2000/svg" xmlns:xlink="http://www.w3.org/1999/xlink">
    <!-- Generator: Sketch 51 (57462) - http://www.bohemiancoding.com/sketch -->
    <title>Group 3</title>
    <desc>Created with Sketch.</desc>
    <defs>
        <polygon id="path-1" points="0.95733999 0.25075 6.77898559 0.25075 6.77898559 15.1435687 0.95733999 15.1435687"></polygon>
        <polygon id="path-3" points="0.670044656 0.789772888 7.63619658 0.789772888 7.63619658 7 0.670044656 7"></polygon>
    </defs>
    <g id="Survey-journey-MVP" stroke="none" stroke-width="1" fill="none" fill-rule="evenodd">
        <g id="Success" transform="translate(-203.000000, -286.000000)">
            <g id="Group-3" transform="translate(189.000000, 286.000000)">
                <circle id="Oval-4" fill="#E6F4EA" fill-rule="nonzero" cx="125.913716" cy="105" r="105"></circle>
                <g id="baseline-check-24px-(1)" transform="translate(76.913716, 56.000000)">
                    <polygon id="Shape" points="0 0 98 0 98 98 0 98"></polygon>
                    <path d="M35.5167709,66.8150634 L17.9738488,50.334079 C15.4949909,48.9234067 13.503708,48.9234067 12,50.334079 C10.496292,51.7447514 10.496292,53.6023204 12,55.906786 L35.5167709,78 C67.6107968,48.2393736 84.4385398,32.4302759 86,30.5727069 C87.042584,29.3324117 88.25044,27.2980765 86,25 C84.4997067,23.467949 82.5224469,23.467949 80.0682206,25 L35.5167709,66.8150634 Z" id="Shape" fill="#46484C" fill-rule="nonzero"></path>
                </g>
                <g id="Group-19" transform="translate(40.000000, 56.518126) rotate(-18.000000) translate(-40.000000, -56.518126) translate(8.000000, 28.518126)">
                    <path d="M43.1005598,25.09295 C44.233624,24.7970631 45.3847052,25.2279857 46.0513313,26.0957885 C46.2675344,26.3777747 46.4356923,26.7074206 46.5317826,27.0728112 L46.9081361,28.498629 C47.3005046,29.9860072 46.3996585,31.5091301 44.8982483,31.9062939 C43.3988399,32.3014718 41.8674015,31.4098392 41.4690274,29.9264327 L41.0926739,28.5006149 C40.6983034,27.0132367 41.5991496,25.4861421 43.1005598,25.09295" id="Fill-1" fill="#46484C"></path>
                    <path d="M36.1005598,6.09295004 C37.233624,5.79706306 38.3847052,6.22798571 39.0513313,7.09578847 C39.2675344,7.37777472 39.4356923,7.70742062 39.5317826,8.07281125 L39.9081361,9.49862905 C40.3005046,10.9860072 39.3996585,12.5091301 37.8982483,12.9062939 C36.3988399,13.3014718 34.8674015,12.4098392 34.4690274,10.9264327 L34.0926739,9.50061487 C33.6983034,8.01323669 34.5991496,6.48614214 36.1005598,6.09295004" id="Fill-3" fill="#46484C"></path>
                    <path d="M61.0021352,22.0000042 C62.2512456,21.9980059 63.3209964,22.7093948 63.7715302,23.7225244 C63.9188612,24.0522411 64,24.4139304 64,24.7916059 L64,26.1944008 C64,27.7390737 62.6548043,28.9959939 61,28.9999905 C59.3430605,29.003987 58.0021352,27.7530617 58,26.2043922 L58,24.8035956 C58,23.2609209 59.347331,22.0020025 61.0021352,22.0000042" id="Fill-5" fill="#46484C"></path>
                    <g id="Group-9" transform="translate(57.000000, 0.000000)">
                        <mask id="mask-2" fill="white">
                            <use xlink:href="#path-1"></use>
                        </mask>
                        <g id="Clip-8"></g>
                        <path d="M4.0362,0.25075 C5.0762,0.274125 5.9702,0.894625 6.4362,1.79775 C6.6642,2.241875 6.7902,2.751875 6.7782,3.295875 L6.5762,12.229375 C6.5382,13.874125 5.2482,15.181 3.7002,15.14275 C2.1462,15.10875 0.9202,13.74875 0.9582,12.09975 L1.1622,3.162 C1.2002,1.5215 2.4882,0.2125 4.0362,0.25075" id="Fill-7" fill="#46484C" mask="url(#mask-2)"></path>
                    </g>
                    <path d="M0.326053623,43.6883137 C0.88020646,42.5275294 1.99873636,41.904724 3.1193111,42.0118733 C3.48124856,42.0475897 3.84523086,42.1569713 4.19080957,42.3534117 L5.46065795,43.0789019 C6.86342122,43.8780573 7.40530499,45.7754932 6.67529553,47.3113001 C5.94528608,48.8493393 4.21125801,49.4431251 2.80849474,48.6462021 L1.53864636,47.9207119 C0.135883093,47.1193242 -0.406000677,45.2218883 0.326053623,43.6883137" id="Fill-10" fill="#46484C"></path>
                    <g id="Group-14" transform="translate(19.000000, 49.000000)">
                        <mask id="mask-4" fill="white">
                            <use xlink:href="#path-3"></use>
                        </mask>
                        <g id="Clip-13"></g>
                        <path d="M0.9004,2.486 C1.3624,1.41 2.4144,0.776 3.5144,0.79 C3.8724,0.794 4.2344,0.866 4.5844,1.02 L5.9444,1.608 C7.3664,2.224 8.0184,3.88 7.4064,5.306 C6.7964,6.73 5.1464,7.38 3.7244,6.774 L2.3624,6.184 C0.9424,5.566 0.2864,3.91 0.9004,2.486" id="Fill-12" fill="#46484C" mask="url(#mask-4)"></path>
                    </g>
                    <path d="M27.825856,34.9217411 C28.6828842,34.0229068 29.9610199,33.7785429 31.0444728,34.2013987 C31.3957485,34.3395175 31.7279792,34.5456331 32.0178875,34.8261204 L33.0886436,35.8545738 C34.2694379,36.9935223 34.3075281,38.8846866 33.1754045,40.0788825 C32.0411648,41.2688286 30.1641673,41.3113267 28.9791408,40.1745032 L27.9083847,39.1418 C26.7297065,38.0049765 26.6937324,36.115937 27.825856,34.9217411" id="Fill-15" fill="#46484C"></path>
                    <path d="M10.9064078,18.8039768 C11.6944424,18.0655092 12.7913865,17.8357638 13.7685494,18.1147404 C14.2497758,18.2501261 14.7015823,18.5065385 15.0735347,18.8860287 L21.1823787,25.1178745 C22.3066413,26.2666018 22.2667143,28.094309 21.0920174,29.1917539 C19.9173205,30.2994552 18.0533561,30.2645832 16.926992,29.1117532 L10.8160465,22.8758049 C9.69388529,21.7311802 9.73381237,19.9034729 10.9064078,18.8039768" id="Fill-17" fill="#46484C"></path>
                </g>
            </g>
        </g>
    </g>
</svg>