<svg viewBox="0 0 1429 344" xmlns="http://www.w3.org/2000/svg"><defs><linearGradient x1="50%" y1="0%" x2="50%" y2="100%" id="a"><stop stop-color="#FFF" offset="0%"/><stop stop-color="#FFF" stop-opacity="0" offset="100%"/></linearGradient></defs><g fill="none" fill-rule="evenodd"><path fill="#F1F3F4" fill-rule="nonzero" opacity=".3" d="M1190.368 53.88h182.812v288.739h-182.812z"/><path d="M56.518 3.317v340.129M237.934 3.275v339.669M1189.67 3.275v339.669M1371.784 2.763v339.855" stroke="#9AA0A6" opacity=".337" stroke-linecap="square"/><path d="M0 216.9h1269.291a7.598 7.598 0 0 1 0 15.197H0V216.9z" fill="#EDEEEE" fill-rule="nonzero"/><path d="M0 172.69h1201.614a5.5 5.5 0 0 1 5.5 5.5v4.198a5.5 5.5 0 0 1-5.5 5.5H0V172.69z" fill="#D6EEDD" fill-rule="nonzero"/><path d="M0 259.727h1390.7a7.598 7.598 0 0 1 0 15.197H0v-15.197z" fill="#EDEEEE" fill-rule="nonzero"/><path fill="url(#a)" d="M0 0h1429v186.506H0z"/></g></svg>
