<svg id="svg" version="1.1" xmlns="http://www.w3.org/2000/svg" xmlns:xlink="http://www.w3.org/1999/xlink" width="400" height="366.1375661375661" viewBox="0, 0, 400,366.1375661375661"><g id="svgg"><path id="path0" d="M198.167 2.619 C 192.770 3.228,189.637 4.549,188.062 6.882 C 187.802 7.268,187.308 7.963,186.964 8.427 C 186.101 9.595,185.226 11.556,184.985 12.866 C 184.241 16.901,186.311 26.993,188.288 28.970 L 188.677 29.359 192.714 29.305 C 197.495 29.240,197.825 29.147,197.831 27.868 C 197.834 27.094,197.382 26.306,195.944 24.583 C 192.621 20.602,190.717 15.665,191.740 13.685 C 192.183 12.830,193.949 11.375,195.444 10.634 C 199.653 8.548,203.724 10.277,205.833 15.044 C 206.508 16.570,207.191 20.584,206.989 21.833 C 206.907 22.337,206.726 23.622,206.588 24.688 C 206.259 27.211,205.952 28.158,204.326 31.667 C 203.582 33.271,202.636 35.471,202.223 36.557 C 201.811 37.642,200.921 39.592,200.246 40.890 C 199.571 42.188,198.818 43.813,198.573 44.500 C 198.125 45.753,197.547 46.841,195.907 49.518 C 195.423 50.307,194.678 51.649,194.250 52.500 C 193.822 53.351,193.060 54.714,192.556 55.529 C 192.052 56.344,191.279 57.777,190.838 58.713 C 190.397 59.650,189.774 60.848,189.454 61.374 C 189.134 61.901,188.479 63.251,187.998 64.374 C 186.554 67.748,185.436 69.816,182.615 74.333 C 181.187 76.621,180.701 76.794,178.843 75.675 C 178.242 75.313,176.887 74.709,175.833 74.332 C 173.695 73.569,172.065 72.673,169.885 71.062 C 166.701 68.709,165.624 68.182,161.717 67.067 C 160.543 66.732,159.232 66.281,158.804 66.065 C 156.183 64.747,148.832 62.787,145.750 62.584 C 144.320 62.490,142.593 62.233,138.333 61.481 C 136.090 61.084,128.969 60.760,127.909 61.006 C 127.547 61.090,126.384 61.161,125.327 61.163 C 124.269 61.165,122.581 61.273,121.577 61.403 C 119.111 61.721,116.330 61.972,113.917 62.093 C 112.196 62.179,110.682 62.401,105.333 63.353 C 104.829 63.443,103.739 63.623,102.911 63.753 C 102.082 63.883,101.070 64.110,100.661 64.256 C 100.251 64.403,98.663 64.855,97.130 65.260 C 92.487 66.489,86.504 68.928,84.667 70.340 C 83.280 71.407,79.098 73.637,76.885 74.490 C 75.162 75.155,72.690 76.805,69.812 79.213 C 68.562 80.258,66.762 81.623,65.812 82.247 C 63.992 83.440,63.181 84.174,57.667 89.610 C 52.521 94.683,49.474 98.229,48.401 100.392 C 48.090 101.020,47.328 102.245,46.709 103.114 C 46.090 103.984,45.058 105.458,44.417 106.390 C 43.775 107.321,42.629 108.796,41.869 109.667 C 40.551 111.178,38.950 113.670,38.198 115.379 C 38.006 115.817,37.275 117.148,36.575 118.337 C 35.285 120.527,34.510 122.357,34.504 123.229 C 34.502 123.493,34.351 124.356,34.168 125.146 C 33.986 125.937,33.687 127.532,33.504 128.691 C 33.284 130.087,32.918 131.514,32.419 132.919 C 31.586 135.269,31.302 136.983,30.985 141.583 C 30.884 143.050,30.652 145.146,30.469 146.240 C 30.038 148.827,29.968 155.085,30.331 158.750 C 30.466 160.125,30.565 161.850,30.549 162.583 C 30.495 165.131,30.809 168.774,31.171 169.794 C 31.503 170.729,32.209 174.093,32.421 175.750 C 32.596 177.114,33.269 179.508,33.984 181.314 C 34.353 182.245,34.887 183.811,35.170 184.795 C 35.453 185.779,36.051 187.375,36.500 188.343 C 36.948 189.311,37.740 191.374,38.259 192.927 C 38.824 194.614,39.592 196.488,40.168 197.583 C 40.754 198.698,41.264 199.948,41.470 200.771 C 42.001 202.907,43.697 205.738,45.979 208.303 C 47.509 210.022,48.290 210.994,49.489 212.667 C 50.939 214.689,52.818 216.766,54.181 217.851 C 54.769 218.320,55.856 219.251,56.597 219.922 C 60.194 223.177,62.442 224.703,65.685 226.091 C 66.454 226.420,67.458 226.972,67.917 227.318 C 69.195 228.282,71.012 229.211,73.667 230.256 C 74.996 230.779,76.646 231.525,77.333 231.913 C 78.021 232.301,79.033 232.811,79.583 233.048 C 83.170 234.590,84.171 235.000,84.350 235.000 C 84.461 235.000,85.871 235.536,87.484 236.191 C 90.167 237.281,94.232 238.667,94.748 238.667 C 95.038 238.667,105.270 241.608,105.522 241.764 C 105.796 241.933,109.080 242.528,111.478 242.842 C 112.911 243.030,114.346 243.261,114.667 243.356 C 115.293 243.541,118.243 243.769,122.667 243.974 C 126.791 244.166,127.247 244.741,126.408 248.697 C 126.129 250.015,126.186 253.759,126.521 256.083 C 126.613 256.725,126.756 258.525,126.839 260.083 C 126.922 261.642,127.074 263.817,127.178 264.917 C 127.287 266.080,127.320 267.842,127.257 269.130 C 127.118 271.958,127.439 281.828,127.751 284.333 C 127.883 285.387,128.108 287.750,128.251 289.583 C 128.394 291.417,128.581 293.704,128.665 294.667 C 128.750 295.629,128.827 297.692,128.837 299.250 C 128.847 300.808,128.921 303.133,129.003 304.417 C 129.085 305.700,129.203 307.551,129.266 308.531 L 129.380 310.312 128.870 310.823 C 128.393 311.300,128.279 311.333,127.138 311.332 C 125.867 311.331,122.658 311.512,116.417 311.936 C 109.460 312.409,107.406 312.509,104.333 312.525 C 99.623 312.551,99.789 312.305,99.247 320.083 C 99.069 322.643,99.668 323.296,101.833 322.904 C 102.521 322.779,104.883 322.598,107.083 322.501 C 109.283 322.404,112.396 322.255,114.000 322.171 C 115.604 322.086,118.454 321.941,120.333 321.849 C 122.212 321.756,124.776 321.592,126.030 321.485 C 130.228 321.125,129.958 319.912,130.057 339.583 C 130.086 345.363,130.089 345.379,131.339 346.692 C 131.922 347.305,131.995 347.333,133.016 347.334 C 133.603 347.334,135.133 347.526,136.417 347.759 C 140.368 348.478,140.447 348.488,141.062 348.318 C 142.669 347.874,143.469 345.091,142.767 342.393 C 142.620 341.829,142.500 340.733,142.500 339.956 C 142.500 338.880,142.381 338.131,141.999 336.813 C 141.688 335.743,141.462 334.511,141.406 333.583 C 141.356 332.758,141.201 331.416,141.061 330.601 C 140.897 329.640,140.827 328.379,140.862 327.018 C 140.892 325.862,140.851 324.227,140.771 323.383 L 140.625 321.849 141.104 321.371 C 142.132 320.344,146.232 319.734,149.293 320.152 C 150.508 320.318,150.969 320.310,152.003 320.107 C 154.223 319.670,154.456 319.654,155.947 319.824 C 156.755 319.917,158.167 320.071,159.083 320.167 C 160.000 320.262,161.118 320.461,161.568 320.609 C 163.304 321.179,165.391 320.661,166.037 319.500 C 166.381 318.883,166.370 314.992,166.014 310.845 C 165.767 307.970,164.842 307.562,160.083 308.232 C 158.342 308.476,155.229 308.863,153.167 309.091 C 151.104 309.319,148.892 309.612,148.250 309.743 C 144.933 310.417,141.073 310.419,140.330 309.747 C 139.864 309.325,139.724 308.686,139.507 306.000 C 139.400 304.671,139.250 303.096,139.175 302.500 C 139.099 301.904,139.026 297.667,139.012 293.083 C 138.990 285.470,138.818 280.714,138.550 280.279 C 138.492 280.186,138.428 279.092,138.406 277.847 C 138.385 276.602,138.286 274.496,138.186 273.167 C 137.620 265.602,137.499 262.810,137.441 255.917 C 137.414 252.711,137.722 247.448,137.992 246.521 C 138.450 244.943,139.062 244.671,142.565 244.489 C 145.551 244.334,149.384 243.945,151.417 243.591 C 152.150 243.463,153.425 243.314,154.250 243.259 C 155.166 243.199,156.593 242.931,157.917 242.570 C 159.108 242.246,160.871 241.791,161.833 241.560 C 162.796 241.328,164.258 240.854,165.083 240.506 C 165.908 240.158,167.336 239.643,168.255 239.360 C 169.174 239.078,170.862 238.368,172.005 237.784 C 175.760 235.865,178.731 234.247,179.917 233.476 C 180.558 233.059,181.533 232.481,182.083 232.191 C 182.633 231.901,183.646 231.220,184.333 230.679 C 185.021 230.138,186.453 229.093,187.515 228.356 C 188.871 227.416,189.659 226.736,190.157 226.076 C 190.548 225.559,191.592 224.374,192.477 223.443 C 195.684 220.072,196.269 219.385,197.400 217.665 C 198.032 216.704,198.980 215.354,199.507 214.667 C 200.033 213.979,200.782 212.892,201.171 212.250 C 201.560 211.608,202.781 209.733,203.883 208.083 C 210.845 197.661,213.106 193.475,215.676 186.250 C 215.937 185.517,216.534 183.867,217.004 182.583 C 218.611 178.190,220.760 171.528,220.984 170.250 C 221.143 169.338,221.785 163.956,222.177 160.250 C 222.264 159.425,222.452 157.925,222.593 156.917 C 223.164 152.864,222.881 145.682,221.912 139.583 C 221.679 138.117,221.376 136.129,221.240 135.167 C 221.103 134.204,220.843 132.854,220.662 132.167 C 220.481 131.479,220.222 130.375,220.086 129.713 C 219.678 127.718,218.036 123.848,217.051 122.555 C 216.828 122.264,216.399 121.438,216.096 120.721 C 215.057 118.261,212.959 114.249,211.753 112.417 C 211.090 111.408,209.896 109.518,209.100 108.216 C 207.045 104.853,203.947 100.908,199.836 96.417 C 198.089 94.508,197.582 93.854,195.182 90.417 C 194.070 88.824,192.320 86.936,191.300 86.227 C 188.865 84.538,189.804 83.898,194.917 83.764 C 196.933 83.711,200.121 83.588,202.000 83.491 C 205.576 83.307,219.311 83.269,220.750 83.440 C 222.407 83.636,222.877 84.387,223.266 87.462 C 223.402 88.537,223.553 89.529,223.602 89.667 C 223.651 89.804,223.721 94.079,223.757 99.167 C 223.847 111.893,224.273 123.237,224.926 130.333 C 225.150 132.762,225.333 135.387,225.333 136.167 C 225.333 136.946,225.410 138.391,225.504 139.379 C 225.695 141.389,225.993 147.942,226.113 152.750 C 226.178 155.356,226.142 156.138,225.906 157.167 C 225.377 159.474,225.250 166.941,225.422 185.750 C 225.666 212.554,225.674 217.282,225.475 219.167 C 225.341 220.438,225.263 224.985,225.241 232.667 C 225.224 239.037,225.197 248.600,225.183 253.917 C 225.168 259.233,225.209 265.383,225.272 267.583 C 225.414 272.462,225.362 277.018,225.147 278.583 C 225.059 279.225,225.030 280.313,225.083 281.000 C 225.136 281.688,225.115 282.800,225.036 283.473 C 224.883 284.785,225.037 291.341,225.326 295.833 C 225.446 297.699,225.450 299.039,225.337 300.000 C 225.245 300.779,225.060 302.842,224.925 304.583 C 224.665 307.943,224.461 309.427,224.085 310.705 C 223.255 313.529,224.709 316.325,226.615 315.568 C 227.331 315.284,227.794 315.255,230.954 315.298 C 236.607 315.376,236.947 315.061,236.415 310.259 C 236.180 308.141,236.124 307.930,235.593 307.158 C 234.889 306.135,234.854 305.851,234.753 300.333 C 234.711 297.996,234.634 294.996,234.583 293.667 C 234.307 286.487,234.273 274.765,234.447 247.250 C 234.601 223.013,234.613 203.591,234.476 201.917 C 234.283 199.569,233.619 183.100,233.578 179.667 C 233.512 174.032,233.288 168.961,232.917 164.667 C 232.699 162.146,232.476 159.333,232.422 158.417 C 232.368 157.500,232.247 156.037,232.154 155.167 C 231.839 152.216,231.633 143.130,231.599 130.583 C 231.578 123.190,231.486 116.994,231.373 115.417 C 231.057 111.026,231.094 94.952,231.422 94.120 C 231.815 93.124,232.640 93.520,233.775 95.251 C 234.255 95.984,234.881 96.921,235.165 97.333 C 236.774 99.668,238.154 101.967,238.923 103.597 C 239.402 104.613,240.292 106.150,240.901 107.014 C 242.849 109.778,243.564 110.755,244.436 111.848 C 244.906 112.436,246.162 114.239,247.229 115.855 C 248.295 117.472,249.749 119.449,250.459 120.249 C 253.578 123.763,253.934 124.303,254.679 126.625 C 255.405 128.893,256.369 129.192,261.963 128.882 C 264.219 128.758,265.330 128.770,266.667 128.937 C 269.260 129.259,269.725 129.236,270.293 128.758 C 270.993 128.169,271.157 127.814,273.221 122.417 C 273.536 121.592,274.062 120.279,274.389 119.500 C 274.716 118.721,275.591 116.508,276.332 114.583 C 277.074 112.658,277.883 110.558,278.132 109.917 C 278.380 109.275,279.266 107.612,280.100 106.220 C 280.935 104.829,282.055 102.654,282.591 101.387 C 283.904 98.279,284.582 97.625,285.379 98.694 C 286.185 99.775,286.528 112.961,286.282 133.417 C 286.212 139.192,286.087 144.592,286.003 145.417 C 285.818 147.245,285.739 159.600,285.883 164.417 C 285.948 166.614,285.922 168.289,285.811 168.917 C 285.607 170.076,285.572 180.406,285.755 185.500 C 285.844 187.976,285.820 189.261,285.669 190.167 C 285.540 190.937,285.439 193.560,285.405 197.000 C 285.364 201.244,285.288 202.883,285.090 203.833 C 284.947 204.521,284.751 206.058,284.654 207.250 C 284.558 208.442,284.297 210.392,284.075 211.583 C 283.640 213.917,283.397 216.326,283.162 220.667 C 283.080 222.179,282.964 223.794,282.905 224.255 C 282.646 226.279,283.512 226.943,286.160 226.749 C 288.372 226.588,289.186 226.588,292.092 226.750 C 296.396 226.989,296.389 227.001,296.247 220.083 C 296.159 215.814,296.186 214.620,296.404 213.209 C 296.679 211.421,296.726 208.780,296.513 207.083 C 296.444 206.533,296.454 205.410,296.536 204.587 C 296.651 203.422,296.629 202.852,296.432 202.004 C 296.100 200.574,295.960 193.980,296.125 187.583 C 296.194 184.925,296.195 182.150,296.128 181.417 C 296.061 180.683,295.973 177.683,295.933 174.750 C 295.892 171.817,295.806 168.554,295.740 167.500 C 295.623 165.620,295.476 154.690,295.510 150.417 C 295.520 149.225,295.446 147.200,295.345 145.917 C 295.220 144.313,295.213 142.681,295.323 140.698 C 295.462 138.200,295.441 137.483,295.168 135.364 C 294.281 128.482,294.382 108.905,295.343 101.570 C 295.688 98.936,295.793 97.015,295.907 91.250 C 295.940 89.600,296.044 87.650,296.138 86.917 C 296.477 84.277,296.586 74.406,296.282 73.942 C 295.824 73.243,294.724 72.943,292.956 73.035 C 290.247 73.177,289.213 73.933,288.412 76.359 C 287.904 77.898,287.283 79.195,286.507 80.333 C 286.226 80.746,285.617 82.058,285.153 83.250 C 284.690 84.442,283.558 86.874,282.638 88.655 C 281.718 90.436,280.569 92.798,280.085 93.905 C 279.600 95.011,278.291 97.904,277.176 100.333 C 275.220 104.592,273.861 107.852,272.799 110.833 C 272.134 112.702,271.210 114.518,270.298 115.750 C 269.891 116.300,269.458 117.013,269.335 117.333 C 268.611 119.237,267.151 119.792,265.992 118.606 C 265.427 118.028,261.861 112.813,261.099 111.450 C 260.833 110.973,260.088 109.721,259.444 108.667 C 258.799 107.612,257.979 106.263,257.620 105.667 C 257.262 105.071,256.271 103.533,255.418 102.250 C 250.059 94.186,247.938 90.496,246.772 87.214 C 246.207 85.625,245.703 84.652,244.622 83.064 C 244.130 82.341,243.292 80.925,242.758 79.917 C 242.225 78.908,241.392 77.408,240.908 76.583 C 240.424 75.758,239.943 74.764,239.840 74.374 C 239.413 72.755,237.505 71.526,235.861 71.811 C 234.241 72.091,228.910 71.950,227.379 71.586 C 226.259 71.319,226.067 71.318,224.609 71.566 C 222.734 71.886,221.036 71.902,217.241 71.637 C 214.760 71.463,214.167 71.473,212.574 71.713 C 211.571 71.865,209.700 72.068,208.417 72.165 C 204.847 72.434,203.006 72.650,202.000 72.919 C 199.492 73.589,194.265 73.840,193.606 73.321 C 192.468 72.426,193.571 68.586,197.170 60.917 C 197.557 60.092,198.242 58.442,198.692 57.250 C 199.142 56.058,200.069 53.921,200.753 52.500 C 202.329 49.222,204.209 44.735,204.907 42.583 C 205.204 41.667,205.831 40.017,206.300 38.917 C 208.305 34.211,209.079 32.036,210.156 28.083 C 210.531 26.708,211.023 24.962,211.249 24.202 C 211.608 22.995,211.673 22.365,211.769 19.202 L 211.878 15.583 211.349 13.417 C 209.569 6.133,204.418 1.914,198.167 2.619 M132.082 69.844 C 133.329 69.849,134.777 69.927,135.300 70.016 C 135.822 70.105,137.371 70.249,138.742 70.335 C 142.784 70.590,144.403 70.972,148.750 72.696 C 150.125 73.242,152.170 73.947,153.294 74.265 C 157.083 75.334,162.566 77.878,166.631 80.453 C 167.757 81.166,169.362 82.162,170.199 82.667 C 171.036 83.171,172.611 84.236,173.700 85.033 C 174.789 85.831,176.080 86.712,176.568 86.991 C 179.223 88.510,187.557 96.048,189.016 98.250 C 189.320 98.708,190.104 99.608,190.758 100.250 C 191.412 100.892,192.705 102.429,193.630 103.667 C 194.555 104.904,195.948 106.659,196.725 107.566 C 198.396 109.517,199.676 111.613,201.418 115.250 C 202.121 116.717,203.173 118.704,203.756 119.667 C 204.796 121.382,205.785 123.736,207.186 127.833 C 208.175 130.726,208.456 132.417,208.665 136.750 C 208.767 138.858,208.920 141.071,209.005 141.667 C 209.091 142.262,209.162 143.359,209.163 144.104 C 209.165 144.919,209.272 145.748,209.432 146.187 C 209.643 146.764,209.679 147.318,209.605 148.833 C 209.554 149.887,209.585 151.500,209.675 152.417 C 209.782 153.525,209.779 154.613,209.666 155.667 C 209.572 156.537,209.428 159.050,209.345 161.250 C 209.228 164.408,209.107 165.706,208.771 167.417 C 208.537 168.608,208.197 170.783,208.015 172.250 C 207.662 175.101,206.958 178.186,206.183 180.289 C 205.920 181.001,205.580 182.197,205.428 182.946 C 205.275 183.696,204.806 185.195,204.386 186.279 C 203.965 187.363,203.181 189.403,202.644 190.813 C 201.620 193.499,200.213 196.224,198.333 199.167 C 197.718 200.129,196.898 201.496,196.511 202.204 C 196.125 202.912,195.342 204.112,194.772 204.871 C 191.866 208.742,189.780 211.337,189.056 211.983 C 185.272 215.356,183.954 216.572,183.009 217.562 C 182.408 218.192,181.467 219.010,180.917 219.381 C 180.367 219.752,179.706 220.230,179.447 220.443 C 179.189 220.656,178.523 221.097,177.968 221.422 C 177.412 221.748,176.160 222.638,175.187 223.400 C 174.213 224.161,172.854 225.107,172.167 225.501 C 171.479 225.896,170.649 226.427,170.323 226.682 C 169.608 227.240,165.824 229.500,165.605 229.500 C 165.520 229.500,164.430 229.987,163.183 230.581 C 160.905 231.668,158.796 232.381,157.250 232.586 C 155.853 232.771,149.627 233.826,148.917 233.998 C 148.550 234.086,147.537 234.162,146.667 234.167 C 145.796 234.171,144.783 234.246,144.417 234.334 C 140.763 235.205,129.248 235.647,124.917 235.082 C 123.817 234.939,121.867 234.754,120.583 234.670 C 119.300 234.586,117.500 234.366,116.583 234.181 C 115.667 233.996,113.979 233.727,112.833 233.583 C 109.439 233.156,104.802 232.183,101.000 231.099 C 92.128 228.570,91.575 228.374,86.000 225.797 C 79.737 222.901,76.601 220.858,74.247 218.142 C 73.004 216.707,71.374 215.493,66.748 212.556 C 65.549 211.795,63.345 209.694,61.904 207.936 C 61.218 207.101,60.053 205.704,59.315 204.833 C 57.142 202.268,54.787 198.755,52.843 195.179 C 52.316 194.210,51.382 192.629,50.767 191.667 C 48.437 188.020,46.797 184.210,45.103 178.500 C 43.846 174.266,43.704 173.659,43.516 171.750 C 43.420 170.770,43.142 169.418,42.840 168.467 C 41.744 165.013,41.455 152.347,42.311 145.250 C 43.264 137.352,44.441 131.552,45.626 128.917 C 46.518 126.932,47.180 125.075,47.652 123.225 C 48.097 121.483,49.288 118.642,50.215 117.113 C 50.614 116.455,51.766 114.229,52.774 112.167 C 54.582 108.470,56.483 105.373,57.839 103.917 C 58.180 103.550,59.072 102.328,59.821 101.201 C 60.571 100.073,61.574 98.686,62.052 98.117 C 62.529 97.549,63.609 96.216,64.451 95.156 C 66.389 92.714,71.177 88.018,72.836 86.931 C 73.522 86.481,74.646 85.682,75.333 85.154 C 77.247 83.685,78.713 82.986,79.833 83.009 C 80.337 83.019,80.845 83.021,80.960 83.014 C 81.076 83.006,81.432 82.592,81.751 82.092 C 82.613 80.746,84.144 79.738,86.583 78.914 C 87.317 78.666,88.498 78.210,89.209 77.901 C 89.920 77.592,91.518 77.033,92.759 76.658 C 94.000 76.283,95.256 75.877,95.550 75.755 C 96.103 75.525,98.098 74.994,101.243 74.238 C 102.248 73.997,103.636 73.591,104.327 73.336 C 105.018 73.082,106.183 72.745,106.917 72.589 C 107.650 72.432,109.450 72.012,110.917 71.656 C 115.166 70.623,117.177 70.333,120.110 70.333 C 121.527 70.333,123.204 70.253,123.836 70.155 C 125.232 69.938,128.942 69.685,129.449 69.772 C 129.651 69.807,130.835 69.839,132.082 69.844 M329.667 187.731 C 329.071 187.856,327.496 188.164,326.167 188.417 C 324.802 188.676,322.952 189.168,321.917 189.546 C 320.908 189.915,319.671 190.324,319.167 190.457 C 316.008 191.284,310.783 195.004,307.935 198.455 C 307.236 199.301,305.971 200.729,305.124 201.628 C 303.109 203.765,302.845 204.296,301.930 208.051 C 300.192 215.189,301.860 219.871,307.463 223.579 C 308.812 224.472,311.758 225.358,313.833 225.495 C 314.887 225.565,316.078 225.745,316.479 225.895 C 317.007 226.091,317.768 226.167,319.229 226.166 C 320.341 226.166,322.426 226.252,323.863 226.356 C 326.470 226.547,326.478 226.546,327.863 226.110 C 329.723 225.523,331.152 225.208,332.756 225.028 C 333.657 224.927,334.495 224.699,335.337 224.324 C 337.024 223.572,338.214 223.536,338.729 224.220 C 339.069 224.671,339.088 224.929,339.196 230.387 C 339.258 233.520,339.391 237.433,339.491 239.083 C 339.601 240.897,339.632 244.094,339.568 247.167 C 339.496 250.660,339.531 253.267,339.681 255.500 C 339.802 257.287,339.878 259.725,339.851 260.917 C 339.818 262.378,339.922 264.113,340.171 266.247 C 340.577 269.739,340.575 272.798,340.164 273.446 C 339.729 274.134,339.278 274.199,333.917 274.347 C 324.397 274.609,319.335 275.537,312.667 278.241 C 311.246 278.817,309.558 279.459,308.917 279.669 C 301.793 281.995,295.715 287.070,293.903 292.206 C 292.863 295.153,294.182 300.019,296.458 301.629 C 296.985 302.002,297.862 302.688,298.407 303.152 C 300.705 305.111,307.962 307.323,312.143 307.341 C 313.119 307.345,314.254 307.422,314.667 307.513 C 316.798 307.983,329.745 308.312,333.876 308.001 C 335.365 307.889,338.158 307.773,340.083 307.742 C 346.092 307.647,347.162 307.222,347.505 304.796 C 347.588 304.211,347.763 303.474,347.895 303.158 C 348.303 302.177,348.259 301.282,347.567 296.500 C 347.315 294.765,347.214 291.736,347.094 282.417 C 347.060 279.758,346.948 276.987,346.846 276.258 C 346.698 275.196,346.405 265.633,346.446 263.167 C 346.643 251.319,346.651 241.054,346.467 235.250 C 346.150 225.268,346.194 221.285,346.652 218.500 C 347.332 214.365,347.679 212.647,347.996 211.843 C 348.899 209.553,349.152 205.988,348.768 200.993 C 348.386 196.035,347.719 194.278,345.266 191.767 C 342.908 189.354,342.280 189.048,338.571 188.505 C 337.203 188.305,335.581 188.036,334.966 187.908 C 333.248 187.549,330.913 187.471,329.667 187.731 M336.731 192.672 C 340.538 193.033,342.696 194.746,343.566 198.097 C 343.706 198.639,343.978 199.533,344.169 200.083 C 344.795 201.885,345.050 208.044,344.565 209.675 C 343.365 213.716,340.694 216.743,337.788 217.355 C 337.309 217.456,336.495 217.714,335.980 217.929 C 332.389 219.426,327.914 219.263,323.417 217.473 C 319.230 215.806,315.127 208.291,316.153 204.167 C 317.471 198.870,319.294 195.514,321.387 194.532 C 322.163 194.168,326.698 192.965,328.250 192.712 C 329.628 192.487,334.534 192.464,336.731 192.672 M339.500 278.625 C 340.411 279.080,340.543 279.714,340.335 282.639 C 340.213 284.355,340.216 285.462,340.344 286.427 C 340.636 288.624,340.483 298.093,340.143 298.847 C 339.195 300.949,331.977 302.448,327.999 301.368 C 327.312 301.181,326.376 300.978,325.919 300.915 C 320.999 300.241,315.989 298.115,313.624 295.699 C 308.926 290.898,309.492 284.391,314.820 281.960 C 319.932 279.629,324.136 278.789,332.083 278.513 C 338.343 278.296,338.856 278.304,339.500 278.625 " stroke="none" fill="#ffffff" fill-rule="evenodd"></path><path id="path1" d="M0.000 183.000 L 0.000 366.000 200.000 366.000 L 400.000 366.000 400.000 183.000 L 400.000 0.000 200.000 0.000 L 0.000 0.000 0.000 183.000 M203.333 2.160 C 209.965 4.815,212.930 10.022,212.861 18.890 L 212.829 22.864 212.189 24.807 C 211.837 25.876,211.345 27.613,211.095 28.667 C 210.519 31.093,209.586 33.981,208.995 35.167 C 208.744 35.671,208.308 36.736,208.027 37.533 C 207.745 38.331,207.350 39.306,207.149 39.700 C 206.948 40.094,206.466 41.354,206.079 42.500 C 205.692 43.646,204.964 45.521,204.462 46.667 C 203.959 47.813,203.489 48.938,203.417 49.167 C 203.345 49.396,202.691 50.821,201.962 52.333 C 201.234 53.846,200.187 56.283,199.635 57.750 C 199.084 59.217,198.237 61.242,197.754 62.250 C 197.270 63.258,196.817 64.271,196.747 64.500 C 196.677 64.729,196.138 66.042,195.549 67.417 C 194.344 70.231,194.020 71.866,194.576 72.328 C 194.973 72.656,199.368 72.333,202.083 71.776 C 203.183 71.550,204.758 71.319,205.583 71.263 C 208.232 71.082,210.704 70.830,212.543 70.554 C 214.131 70.315,214.713 70.309,217.627 70.501 C 222.958 70.852,224.676 70.631,226.722 69.334 C 227.730 68.695,227.981 68.705,228.833 69.417 C 229.459 69.940,229.634 70.000,230.522 70.000 C 231.218 70.000,231.723 70.109,232.215 70.365 C 232.990 70.768,234.118 70.830,236.337 70.592 L 237.591 70.458 238.874 71.477 C 240.297 72.607,240.539 72.913,241.023 74.187 C 241.206 74.669,241.904 76.006,242.574 77.157 C 243.244 78.308,244.033 79.730,244.328 80.316 C 244.622 80.902,245.269 82.011,245.765 82.781 C 246.881 84.511,247.447 85.616,247.860 86.876 C 248.670 89.341,251.049 93.531,255.125 99.670 C 256.890 102.327,258.333 104.601,258.333 104.723 C 258.333 104.845,258.637 105.378,259.008 105.908 C 259.740 106.952,261.437 109.728,261.918 110.667 C 262.082 110.987,262.674 111.898,263.233 112.690 C 263.793 113.482,264.801 114.927,265.475 115.901 C 267.181 118.370,267.603 118.502,268.329 116.798 C 268.536 116.313,268.948 115.617,269.245 115.250 C 269.976 114.349,270.728 113.091,271.137 112.083 C 271.324 111.625,271.972 109.975,272.579 108.417 C 274.062 104.604,274.551 103.462,276.825 98.500 C 277.896 96.162,279.022 93.650,279.327 92.917 C 279.633 92.183,280.623 90.184,281.528 88.473 C 282.446 86.738,283.617 84.204,284.175 82.741 C 284.726 81.298,285.388 79.848,285.646 79.517 C 286.484 78.444,286.993 77.413,287.324 76.120 C 288.138 72.939,289.822 71.755,293.385 71.859 C 297.764 71.988,297.905 72.362,297.481 82.667 C 296.979 94.831,296.712 99.684,296.419 101.917 C 295.870 106.108,295.658 110.024,295.675 115.667 C 295.699 124.078,295.951 133.130,296.184 134.000 C 296.315 134.488,296.403 136.581,296.436 140.000 C 296.463 142.887,296.532 147.050,296.588 149.250 C 296.645 151.450,296.709 156.137,296.731 159.667 C 296.754 163.196,296.838 166.833,296.919 167.750 C 297.000 168.667,297.071 171.254,297.076 173.500 C 297.082 175.746,297.149 180.021,297.225 183.000 C 297.306 186.193,297.299 189.569,297.208 191.224 C 297.017 194.676,297.227 200.464,297.601 202.015 C 297.820 202.923,297.835 203.364,297.688 204.563 C 297.563 205.583,297.562 206.841,297.685 208.799 C 297.822 210.992,297.812 211.866,297.638 212.917 C 297.484 213.847,297.417 216.021,297.417 220.109 L 297.417 225.968 296.902 226.609 C 295.896 227.861,295.220 228.094,292.833 228.010 C 291.688 227.969,290.075 227.943,289.250 227.951 C 288.425 227.958,286.868 227.974,285.790 227.986 C 282.526 228.021,281.480 227.042,281.743 224.196 C 281.808 223.492,281.920 221.867,281.992 220.583 C 282.252 215.966,282.517 213.404,282.913 211.675 C 283.152 210.632,283.384 208.882,283.483 207.372 C 283.575 205.973,283.688 204.768,283.733 204.694 C 284.006 204.252,284.211 200.919,284.242 196.417 C 284.264 193.246,284.362 190.670,284.495 189.750 C 284.653 188.658,284.677 187.456,284.584 185.333 C 284.402 181.210,284.450 170.034,284.654 168.880 C 284.758 168.294,284.785 166.611,284.722 164.583 C 284.666 162.750,284.621 160.200,284.624 158.917 C 284.645 148.932,284.677 146.945,284.832 145.917 C 284.992 144.859,285.261 127.713,285.243 119.750 C 285.221 110.051,284.888 102.064,284.474 101.287 C 284.231 100.830,284.041 101.066,283.179 102.892 C 282.740 103.822,281.820 105.455,281.135 106.520 C 279.867 108.491,279.483 109.295,278.401 112.250 C 278.065 113.167,277.506 114.592,277.158 115.417 C 276.141 117.827,274.496 121.961,273.908 123.583 C 272.274 128.095,271.551 129.379,270.281 130.027 L 269.594 130.377 266.921 130.081 C 264.647 129.830,263.911 129.813,261.989 129.970 C 256.431 130.424,254.524 129.830,253.814 127.424 C 253.300 125.683,252.415 124.123,251.178 122.780 C 249.120 120.544,247.725 118.755,246.115 116.289 C 245.231 114.936,244.036 113.286,243.459 112.623 C 242.882 111.959,242.193 111.042,241.927 110.583 C 241.661 110.125,240.859 108.918,240.144 107.900 C 239.430 106.883,238.442 105.196,237.950 104.150 C 236.578 101.234,233.273 96.360,232.793 96.544 C 232.526 96.646,232.233 102.264,232.277 106.417 C 232.290 107.608,232.307 109.886,232.316 111.479 C 232.324 113.071,232.415 115.209,232.518 116.229 C 232.633 117.370,232.722 122.890,232.749 130.583 C 232.775 138.038,232.859 143.386,232.957 143.833 C 233.048 144.246,233.132 146.712,233.143 149.314 C 233.158 152.586,233.238 154.462,233.402 155.397 C 233.533 156.141,233.686 157.987,233.743 159.500 C 233.799 161.012,233.959 163.300,234.098 164.583 C 234.372 167.104,234.537 170.967,234.821 181.500 C 234.921 185.213,235.045 188.400,235.096 188.583 C 235.147 188.767,235.222 191.129,235.262 193.833 C 235.313 197.296,235.412 199.165,235.595 200.153 C 235.795 201.234,235.843 202.456,235.802 205.486 C 235.774 207.648,235.759 210.692,235.771 212.250 C 235.782 213.808,235.791 215.346,235.790 215.667 C 235.789 215.987,235.806 219.335,235.827 223.106 C 235.855 228.119,235.809 230.214,235.657 230.897 C 235.496 231.616,235.488 232.356,235.624 234.124 C 235.843 236.976,235.670 260.829,235.409 263.757 C 235.335 264.587,235.367 265.646,235.493 266.534 C 235.653 267.660,235.654 268.772,235.497 271.693 C 235.324 274.926,235.334 275.801,235.572 278.333 C 235.790 280.650,235.810 281.570,235.670 282.808 C 235.572 283.666,235.531 284.716,235.579 285.142 C 235.626 285.568,235.705 288.017,235.755 290.583 C 235.805 293.150,235.941 297.580,236.057 300.427 L 236.268 305.605 236.837 306.397 C 237.340 307.097,237.402 307.298,237.374 308.136 C 237.357 308.657,237.502 310.099,237.698 311.340 C 238.191 314.471,237.959 315.009,235.621 316.160 L 234.579 316.673 232.165 316.555 C 227.950 316.348,228.104 316.333,227.383 317.021 C 226.363 317.996,225.845 317.933,224.309 316.646 C 222.860 315.433,222.227 312.609,222.889 310.314 C 223.317 308.829,223.667 306.267,223.667 304.607 C 223.667 303.747,223.788 302.378,223.936 301.563 C 224.267 299.745,224.282 298.458,224.019 294.500 C 223.651 288.974,223.691 283.344,224.153 275.417 C 224.252 273.720,224.249 272.204,224.146 271.250 C 224.054 270.393,223.993 264.280,224.005 257.000 C 224.028 243.295,224.026 239.606,223.994 230.167 C 223.980 226.140,224.061 222.815,224.234 220.333 C 224.433 217.466,224.480 214.701,224.430 208.583 C 224.394 204.183,224.312 194.058,224.249 186.083 C 224.121 170.021,224.101 168.920,223.925 167.816 C 223.839 167.273,223.888 166.745,224.093 166.013 C 224.335 165.150,224.362 164.657,224.253 163.031 C 224.079 160.443,224.125 159.492,224.492 158.000 C 225.043 155.763,225.090 149.487,224.562 148.633 C 224.216 148.072,224.083 149.057,224.080 152.218 C 224.078 154.080,223.990 156.030,223.882 156.583 C 223.776 157.133,223.642 158.296,223.584 159.167 C 223.527 160.037,223.341 161.425,223.169 162.250 C 222.998 163.075,222.775 164.837,222.672 166.167 C 222.362 170.201,221.872 172.487,220.921 174.325 C 220.785 174.589,220.451 175.617,220.180 176.611 C 219.649 178.554,219.120 180.147,217.998 183.167 C 217.606 184.221,216.973 185.983,216.591 187.083 C 216.209 188.183,215.625 189.683,215.294 190.417 C 214.963 191.150,214.424 192.403,214.095 193.202 C 213.301 195.131,211.323 198.698,209.494 201.500 C 209.105 202.096,208.356 203.301,207.829 204.178 C 207.303 205.055,206.430 206.367,205.890 207.094 C 204.711 208.681,202.538 212.082,201.940 213.276 C 201.704 213.749,201.122 214.574,200.648 215.110 C 200.174 215.645,199.233 216.929,198.558 217.963 C 197.297 219.893,193.703 224.220,192.953 224.711 C 192.722 224.862,191.995 225.660,191.337 226.484 C 190.679 227.308,189.791 228.208,189.362 228.485 C 188.934 228.762,187.533 229.776,186.250 230.737 C 184.967 231.699,183.317 232.840,182.583 233.273 C 181.850 233.705,180.817 234.390,180.287 234.793 C 179.757 235.196,178.351 235.966,177.162 236.502 C 175.972 237.039,174.774 237.638,174.499 237.834 C 173.623 238.458,170.197 239.993,168.867 240.357 C 168.161 240.551,166.800 241.044,165.843 241.452 C 164.885 241.861,163.460 242.336,162.676 242.507 C 161.892 242.678,160.932 242.931,160.543 243.068 C 158.371 243.835,155.898 244.356,153.744 244.500 C 152.506 244.583,151.430 244.690,151.352 244.738 C 151.022 244.942,143.157 245.833,141.686 245.833 C 139.264 245.833,139.178 245.945,138.854 249.500 C 138.572 252.583,138.615 264.147,138.916 266.167 C 138.964 266.487,139.118 268.662,139.260 271.000 C 139.745 279.012,139.826 280.085,139.998 280.798 C 140.104 281.234,140.200 285.561,140.246 291.884 C 140.287 297.588,140.392 302.629,140.481 303.086 C 140.570 303.543,140.737 304.954,140.853 306.221 C 141.096 308.874,141.175 309.000,142.579 309.000 C 143.864 309.001,146.949 308.682,148.250 308.415 C 149.600 308.138,153.971 307.570,155.917 307.419 C 156.650 307.362,157.887 307.213,158.667 307.088 C 163.757 306.268,165.557 306.572,166.795 308.461 C 167.284 309.208,167.877 318.139,167.518 319.340 C 166.855 321.552,163.649 322.827,161.202 321.851 C 160.718 321.658,159.998 321.500,159.604 321.500 C 159.210 321.500,158.144 321.388,157.235 321.251 C 155.137 320.935,153.864 320.938,152.500 321.263 C 151.154 321.585,149.973 321.607,148.827 321.332 C 147.143 320.928,142.707 321.478,142.082 322.168 C 141.813 322.465,141.812 322.575,142.070 323.977 C 142.277 325.102,142.319 325.955,142.240 327.443 C 142.163 328.906,142.204 329.800,142.401 330.897 C 142.547 331.711,142.667 332.879,142.667 333.493 C 142.667 334.226,142.838 335.220,143.167 336.390 C 143.524 337.662,143.667 338.538,143.669 339.460 C 143.670 340.170,143.784 341.162,143.924 341.667 C 144.842 344.995,143.945 348.556,141.917 349.630 C 141.060 350.083,137.946 349.825,135.495 349.097 C 135.057 348.967,133.998 348.808,133.141 348.743 C 131.234 348.599,130.974 348.454,129.891 346.938 C 128.655 345.208,128.675 345.376,128.672 336.747 C 128.670 332.532,128.652 328.521,128.631 327.833 C 128.610 327.146,128.655 326.096,128.731 325.500 C 128.907 324.123,128.653 323.062,128.084 322.803 C 127.628 322.595,117.700 323.047,116.250 323.341 C 115.792 323.434,114.817 323.503,114.083 323.494 C 110.245 323.445,103.382 323.879,101.560 324.286 C 99.216 324.810,97.570 322.844,97.911 319.929 C 97.976 319.372,98.087 318.054,98.158 317.000 C 98.339 314.307,99.031 312.480,100.195 311.617 C 100.607 311.312,100.946 311.285,104.695 311.254 C 106.925 311.236,109.837 311.133,111.167 311.026 C 112.496 310.919,114.896 310.753,116.500 310.658 C 128.586 309.943,127.837 310.013,128.003 309.576 C 128.090 309.348,128.055 308.520,127.915 307.475 C 127.779 306.464,127.653 303.611,127.610 300.583 C 127.568 297.666,127.422 294.292,127.274 292.833 C 127.129 291.412,126.895 288.860,126.754 287.162 C 126.613 285.463,126.423 283.813,126.332 283.496 C 126.241 283.179,126.166 281.043,126.166 278.751 C 126.165 276.459,126.090 274.133,125.998 273.583 C 125.887 272.911,125.889 271.791,126.006 270.167 C 126.125 268.503,126.126 267.023,126.008 265.417 C 125.914 264.133,125.763 261.808,125.672 260.250 C 125.582 258.692,125.424 256.742,125.323 255.917 C 125.092 254.042,125.037 248.833,125.230 247.163 C 125.407 245.641,125.274 245.469,123.865 245.387 C 120.925 245.216,116.313 244.777,114.500 244.494 C 113.354 244.316,111.592 244.058,110.583 243.922 C 107.786 243.543,106.259 243.218,104.222 242.568 C 103.198 242.241,101.923 241.878,101.388 241.760 C 100.854 241.643,99.367 241.243,98.083 240.873 C 96.800 240.502,95.360 240.118,94.884 240.019 C 93.830 239.802,90.865 238.812,87.833 237.665 C 86.596 237.196,85.096 236.639,84.500 236.426 C 81.450 235.335,78.462 233.979,76.265 232.690 C 75.632 232.319,74.882 231.965,74.599 231.904 C 73.532 231.674,69.194 229.602,67.792 228.652 C 66.461 227.751,65.053 227.054,62.217 225.894 C 61.579 225.633,60.782 225.108,60.133 224.523 C 59.556 224.002,58.673 223.239,58.171 222.829 C 57.669 222.419,56.769 221.640,56.171 221.099 C 55.573 220.557,54.521 219.670,53.833 219.127 C 52.105 217.761,49.166 214.579,48.449 213.297 C 48.122 212.713,46.894 211.127,45.719 209.774 C 42.116 205.624,40.932 203.666,40.253 200.736 C 40.110 200.119,39.741 199.196,39.433 198.683 C 38.391 196.947,38.374 196.906,36.482 191.514 C 36.115 190.467,35.635 189.305,35.416 188.930 C 34.896 188.041,33.894 185.431,33.747 184.583 C 33.684 184.217,33.329 183.250,32.960 182.436 C 32.246 180.862,31.658 178.454,31.343 175.811 C 31.241 174.952,31.088 174.025,31.003 173.750 C 30.919 173.475,30.765 172.767,30.662 172.177 C 30.559 171.587,30.301 170.762,30.089 170.344 C 29.648 169.472,29.497 167.887,29.417 163.250 C 29.390 161.692,29.256 159.404,29.120 158.167 C 28.843 155.645,28.984 147.095,29.321 146.002 C 29.608 145.068,29.844 142.957,30.000 139.917 C 30.178 136.463,30.487 134.791,31.346 132.634 C 31.795 131.509,32.087 130.415,32.265 129.200 C 32.408 128.219,32.663 126.779,32.830 126.000 C 32.997 125.221,33.186 124.058,33.249 123.417 C 33.382 122.077,33.970 120.575,35.072 118.761 C 35.487 118.077,36.250 116.670,36.768 115.634 C 38.328 112.516,41.389 108.000,42.343 107.411 C 42.439 107.351,42.951 106.653,43.480 105.860 C 44.009 105.066,44.976 103.665,45.629 102.745 C 46.281 101.826,47.111 100.476,47.474 99.745 C 47.836 99.015,48.496 97.998,48.941 97.486 C 49.386 96.975,50.197 95.981,50.742 95.278 C 51.288 94.575,51.794 94.000,51.866 94.000 C 51.938 94.000,52.402 93.453,52.897 92.784 C 53.392 92.115,54.048 91.372,54.356 91.132 C 54.665 90.892,56.604 89.031,58.667 86.997 C 62.107 83.603,63.216 82.657,65.988 80.750 C 67.060 80.013,67.994 79.252,69.671 77.750 C 71.366 76.232,75.153 73.859,76.878 73.234 C 77.681 72.943,78.994 72.332,79.795 71.877 C 80.595 71.421,81.700 70.800,82.250 70.496 C 82.800 70.192,83.520 69.733,83.850 69.477 C 85.724 68.023,91.499 65.598,95.865 64.433 C 97.375 64.030,99.337 63.468,100.224 63.183 C 101.111 62.899,102.016 62.667,102.234 62.667 C 102.452 62.667,103.183 62.562,103.857 62.434 C 105.038 62.210,106.519 61.957,109.780 61.422 C 110.621 61.284,112.534 61.096,114.030 61.005 C 116.920 60.830,119.456 60.591,121.500 60.303 C 122.852 60.112,128.012 59.798,129.500 59.816 C 130.004 59.822,131.204 59.827,132.167 59.827 C 134.047 59.828,136.868 60.084,137.862 60.345 C 138.199 60.434,139.361 60.616,140.445 60.751 C 141.530 60.886,142.679 61.074,143.000 61.169 C 143.321 61.264,144.549 61.416,145.730 61.508 C 146.910 61.599,148.485 61.819,149.230 61.997 C 149.974 62.174,151.420 62.508,152.443 62.739 C 153.466 62.969,154.854 63.375,155.527 63.640 C 156.199 63.905,157.050 64.214,157.417 64.328 C 157.783 64.441,158.571 64.746,159.167 65.006 C 159.762 65.265,160.972 65.676,161.853 65.918 C 165.615 66.950,167.477 67.839,170.237 69.921 C 172.564 71.676,174.547 72.779,176.500 73.404 C 177.463 73.712,178.683 74.194,179.212 74.475 C 180.618 75.222,181.164 74.792,183.146 71.384 C 183.456 70.852,184.083 69.779,184.540 69.000 C 184.997 68.221,185.854 66.506,186.445 65.189 C 187.805 62.158,190.805 56.303,191.835 54.667 C 192.269 53.979,192.934 52.798,193.314 52.041 C 193.693 51.285,194.315 50.160,194.694 49.541 C 196.304 46.918,197.150 45.337,197.569 44.165 C 197.814 43.478,198.610 41.811,199.338 40.460 C 200.065 39.109,200.920 37.271,201.237 36.377 C 201.554 35.482,202.497 33.257,203.332 31.432 C 206.897 23.645,206.751 16.468,202.947 12.528 C 200.615 10.113,196.407 10.467,193.469 13.325 C 192.330 14.431,192.239 14.983,192.839 17.145 C 193.315 18.863,195.041 22.030,196.165 23.250 C 199.087 26.418,199.682 28.738,197.864 29.868 C 197.114 30.335,188.825 30.551,188.005 30.125 C 185.500 28.826,182.850 16.057,184.186 11.726 C 185.840 6.361,189.763 2.826,194.970 2.008 C 196.132 1.825,197.533 1.603,198.083 1.515 C 199.978 1.211,201.399 1.385,203.333 2.160 M126.293 71.003 C 125.308 71.077,124.123 71.220,123.660 71.319 C 123.196 71.419,121.695 71.500,120.323 71.500 C 116.300 71.500,109.969 72.732,104.583 74.562 C 103.667 74.874,102.279 75.256,101.500 75.411 C 98.516 76.006,93.892 77.348,90.750 78.532 C 90.017 78.808,88.681 79.290,87.781 79.603 C 84.260 80.828,83.199 81.555,82.586 83.159 C 81.884 84.998,81.017 85.532,79.871 84.833 C 78.901 84.241,77.930 84.488,76.333 85.731 C 75.829 86.124,74.710 86.918,73.847 87.496 C 71.381 89.146,67.445 92.977,65.282 95.833 C 64.623 96.704,63.653 97.924,63.127 98.544 C 62.601 99.164,61.557 100.589,60.808 101.710 C 60.059 102.832,59.120 104.115,58.721 104.562 C 57.586 105.833,55.502 108.957,54.870 110.333 C 53.639 113.016,52.071 116.145,51.313 117.432 C 50.438 118.917,49.335 121.554,48.922 123.145 C 48.477 124.863,47.747 126.825,46.846 128.728 C 45.938 130.646,45.606 131.836,44.821 136.000 C 43.947 140.635,43.779 141.927,43.080 149.417 C 42.873 151.629,42.863 152.665,43.020 155.500 C 43.126 157.427,43.154 159.644,43.083 160.583 C 42.842 163.789,43.047 165.494,44.009 168.279 C 44.551 169.850,44.719 170.622,44.836 172.083 C 44.999 174.123,45.315 175.384,46.882 180.250 C 48.726 185.972,49.829 188.329,52.423 192.083 C 52.803 192.633,53.588 193.983,54.167 195.083 C 55.892 198.360,57.130 200.185,60.114 203.849 C 65.754 210.774,65.497 210.530,70.320 213.525 C 73.262 215.351,73.807 215.777,74.860 217.069 C 76.672 219.292,79.650 221.485,82.956 223.029 C 83.759 223.404,85.570 224.265,86.979 224.942 C 89.546 226.176,92.351 227.265,95.000 228.058 C 96.270 228.438,98.448 229.082,102.417 230.250 C 103.150 230.466,104.688 230.834,105.833 231.067 C 106.979 231.301,108.485 231.638,109.179 231.815 C 109.873 231.993,111.336 232.228,112.429 232.337 C 113.522 232.447,115.392 232.720,116.583 232.944 C 117.775 233.169,119.800 233.421,121.083 233.505 C 122.367 233.589,124.092 233.772,124.917 233.912 C 128.211 234.469,136.477 234.231,142.551 233.404 C 144.184 233.182,146.052 233.000,146.704 233.000 C 147.875 233.000,149.027 232.828,152.917 232.075 C 154.017 231.861,155.404 231.640,156.000 231.584 C 158.282 231.367,159.542 230.990,162.184 229.735 C 163.614 229.056,164.854 228.500,164.939 228.500 C 165.192 228.500,169.024 226.180,169.586 225.686 C 169.872 225.435,170.663 224.924,171.345 224.549 C 172.026 224.174,173.539 223.166,174.706 222.309 C 175.874 221.451,177.262 220.469,177.790 220.126 C 180.038 218.665,180.993 217.918,182.268 216.623 C 184.151 214.711,186.024 213.004,187.536 211.821 C 188.787 210.843,189.342 210.179,193.702 204.449 C 194.134 203.881,194.875 202.714,195.350 201.856 C 195.824 200.998,196.773 199.460,197.458 198.439 C 198.798 196.445,201.048 192.122,201.244 191.167 C 201.309 190.846,201.725 189.796,202.166 188.833 C 203.160 186.667,204.087 184.024,204.338 182.642 C 204.442 182.067,204.814 180.694,205.164 179.590 C 206.220 176.263,206.623 174.517,206.819 172.417 C 207.044 170.002,207.222 168.865,207.666 167.000 C 207.904 165.997,208.057 164.464,208.190 161.750 C 208.293 159.642,208.404 157.542,208.435 157.083 C 208.637 154.176,208.578 147.211,208.347 146.583 C 208.207 146.203,208.048 144.915,207.978 143.583 C 207.553 135.559,207.299 132.218,207.020 131.000 C 206.803 130.051,205.313 125.686,204.830 124.583 C 204.629 124.125,204.327 123.359,204.160 122.881 C 203.993 122.403,203.341 121.128,202.713 120.048 C 202.085 118.967,200.886 116.696,200.048 115.000 C 198.265 111.390,197.687 110.462,195.905 108.349 C 194.108 106.218,192.967 104.774,192.140 103.583 C 191.758 103.033,190.757 101.871,189.917 101.000 C 189.076 100.129,188.211 99.154,187.994 98.833 C 186.535 96.676,178.882 89.712,176.284 88.178 C 175.524 87.728,174.208 86.825,173.361 86.170 C 172.035 85.145,168.316 82.777,164.057 80.244 C 160.980 78.414,156.140 76.329,152.311 75.184 C 151.061 74.811,149.411 74.237,148.644 73.910 C 144.685 72.222,142.572 71.703,138.810 71.496 C 137.285 71.412,135.710 71.273,135.310 71.188 C 134.262 70.964,128.395 70.844,126.293 71.003 M202.917 84.607 C 191.033 85.110,191.946 84.853,193.971 87.122 C 194.688 87.926,195.620 89.108,196.043 89.750 C 198.087 92.857,198.669 93.587,202.083 97.323 C 205.636 101.210,207.728 103.957,210.087 107.833 C 210.617 108.704,211.611 110.264,212.297 111.300 C 212.983 112.337,214.498 115.074,215.664 117.384 C 216.830 119.694,218.091 122.057,218.466 122.636 C 218.841 123.215,219.277 124.040,219.435 124.469 C 219.594 124.899,220.006 125.970,220.351 126.851 C 220.696 127.731,221.091 129.043,221.230 129.767 C 221.368 130.491,221.668 131.796,221.895 132.667 C 222.123 133.537,222.358 134.662,222.418 135.167 C 222.764 138.090,223.941 144.618,224.169 144.884 C 224.650 145.443,224.412 138.587,223.580 127.917 C 223.063 121.280,222.838 113.949,222.757 101.083 C 222.669 87.083,222.355 84.849,220.439 84.587 C 219.108 84.405,207.368 84.419,202.917 84.607 M335.500 186.816 C 336.554 186.996,338.129 187.229,339.000 187.335 C 342.104 187.710,342.811 187.978,344.667 189.478 C 347.467 191.742,349.207 194.523,349.670 197.474 C 350.591 203.338,350.381 208.957,349.090 212.961 C 348.773 213.945,348.431 215.313,348.331 216.000 C 348.230 216.688,348.021 217.925,347.866 218.750 C 347.477 220.813,347.498 228.814,347.898 231.167 C 348.080 232.240,348.163 233.716,348.157 235.750 C 348.152 237.400,348.155 239.050,348.164 239.417 C 348.173 239.783,348.145 241.583,348.102 243.417 C 347.991 248.186,347.778 261.144,347.781 262.917 C 347.789 266.872,348.013 274.560,348.157 275.750 C 348.450 278.192,348.517 280.674,348.325 281.991 C 348.182 282.963,348.185 283.724,348.336 285.097 C 348.445 286.098,348.561 288.679,348.593 290.833 C 348.625 292.987,348.726 295.200,348.817 295.750 C 348.908 296.300,349.023 297.425,349.072 298.250 C 349.121 299.075,349.238 300.012,349.331 300.332 C 349.570 301.154,349.541 302.343,349.262 303.132 C 349.132 303.502,348.978 304.168,348.922 304.611 C 348.705 306.305,348.636 306.524,348.133 307.097 C 346.949 308.444,344.535 309.048,340.977 308.887 C 339.697 308.828,337.580 308.869,336.142 308.978 C 330.237 309.430,329.117 309.464,325.000 309.318 C 319.156 309.111,315.391 308.883,314.500 308.683 C 314.087 308.590,312.977 308.511,312.032 308.507 C 309.901 308.498,308.440 308.286,306.083 307.641 C 300.694 306.167,299.114 305.510,297.501 304.071 C 296.922 303.554,296.087 302.910,295.646 302.638 C 292.520 300.715,291.258 293.472,293.477 290.199 C 293.831 289.677,294.316 288.864,294.554 288.392 C 296.431 284.681,301.982 280.815,308.917 278.388 C 310.108 277.971,311.421 277.460,311.833 277.252 C 313.405 276.461,317.711 275.128,320.449 274.586 C 321.200 274.437,322.325 274.167,322.949 273.985 C 324.305 273.591,327.052 273.379,333.417 273.178 C 338.669 273.012,338.930 272.961,339.098 272.063 C 339.232 271.349,339.078 267.775,338.819 265.583 C 338.721 264.758,338.618 262.171,338.589 259.833 C 338.560 257.496,338.462 255.021,338.370 254.333 C 338.272 253.601,338.247 251.667,338.309 249.667 C 338.454 244.987,338.366 238.414,338.132 236.500 C 338.025 235.629,337.933 232.892,337.927 230.417 C 337.913 224.584,337.990 224.724,335.325 225.663 C 334.500 225.954,333.571 226.162,333.083 226.165 C 332.170 226.169,330.195 226.606,328.025 227.282 L 326.629 227.718 323.773 227.521 C 322.202 227.413,319.979 227.339,318.833 227.356 C 317.185 227.382,316.593 227.327,316.000 227.096 C 315.587 226.935,314.462 226.741,313.500 226.664 C 306.300 226.094,301.177 221.336,300.133 214.250 L 299.789 211.917 300.724 208.197 C 301.862 203.670,302.115 203.161,304.468 200.651 C 305.448 199.606,306.712 198.188,307.276 197.500 C 309.075 195.309,311.510 193.161,313.520 191.992 C 314.196 191.599,315.425 190.882,316.250 190.400 C 317.271 189.803,318.202 189.410,319.167 189.167 C 319.946 188.971,321.333 188.559,322.250 188.251 C 323.167 187.944,324.742 187.533,325.750 187.338 C 326.758 187.143,328.258 186.840,329.083 186.665 C 330.867 186.286,332.639 186.328,335.500 186.816 M33.342 188.175 C 33.839 188.672,33.752 190.059,33.219 190.135 C 32.521 190.235,31.981 188.709,32.495 188.089 C 32.776 187.750,32.933 187.766,33.342 188.175 M328.583 193.861 C 321.883 195.109,320.750 195.740,319.112 199.134 C 316.308 204.944,316.896 209.399,321.100 214.203 C 324.036 217.559,331.421 218.859,335.516 216.742 C 335.795 216.598,336.595 216.370,337.295 216.236 C 339.856 215.746,340.735 214.866,343.023 210.496 C 343.511 209.564,343.715 208.081,343.607 206.250 C 343.435 203.329,343.173 200.871,342.983 200.387 C 342.881 200.128,342.619 199.259,342.401 198.454 C 341.522 195.215,340.351 194.310,336.506 193.900 C 334.147 193.649,329.839 193.627,328.583 193.861 M335.833 279.677 C 335.512 279.764,334.537 279.795,333.667 279.744 C 332.796 279.693,331.221 279.732,330.167 279.831 C 329.112 279.930,327.350 280.082,326.250 280.167 C 322.790 280.438,320.006 281.168,315.833 282.902 C 313.164 284.010,311.569 286.346,311.698 288.954 C 311.833 291.669,314.252 295.444,316.624 296.642 C 318.141 297.407,321.439 298.707,322.384 298.911 C 322.952 299.034,324.054 299.285,324.833 299.469 C 329.154 300.488,333.219 300.666,335.616 299.939 C 336.332 299.722,337.221 299.461,337.593 299.359 C 339.198 298.917,339.293 298.443,339.195 291.417 C 339.155 288.483,339.138 284.806,339.159 283.245 C 339.205 279.741,339.153 279.626,337.481 279.560 C 336.895 279.536,336.154 279.589,335.833 279.677 " stroke="none" fill="rgba(255,255,255,0)" fill-rule="evenodd"></path><path id="path2" d="M198.083 1.515 C 197.533 1.603,196.132 1.825,194.970 2.008 C 189.763 2.826,185.840 6.361,184.186 11.726 C 182.850 16.057,185.500 28.826,188.005 30.125 C 188.825 30.551,197.114 30.335,197.864 29.868 C 199.682 28.738,199.087 26.418,196.165 23.250 C 195.041 22.030,193.315 18.863,192.839 17.145 C 192.089 14.441,192.747 13.219,195.750 11.733 C 202.821 8.235,207.723 16.090,205.162 26.813 C 204.983 27.561,204.205 29.525,203.332 31.432 C 202.497 33.257,201.554 35.482,201.237 36.377 C 200.920 37.271,200.065 39.109,199.338 40.460 C 198.610 41.811,197.814 43.478,197.569 44.165 C 197.150 45.337,196.304 46.918,194.694 49.541 C 194.315 50.160,193.693 51.285,193.314 52.041 C 192.934 52.798,192.269 53.979,191.835 54.667 C 190.805 56.303,187.805 62.158,186.445 65.189 C 185.854 66.506,184.997 68.221,184.540 69.000 C 184.083 69.779,183.456 70.852,183.146 71.384 C 181.164 74.792,180.618 75.222,179.212 74.475 C 178.683 74.194,177.463 73.712,176.500 73.404 C 174.547 72.779,172.564 71.676,170.237 69.921 C 167.477 67.839,165.615 66.950,161.853 65.918 C 160.972 65.676,159.762 65.265,159.167 65.006 C 158.571 64.746,157.783 64.441,157.417 64.328 C 157.050 64.214,156.199 63.905,155.527 63.640 C 154.854 63.375,153.466 62.969,152.443 62.739 C 151.420 62.508,149.974 62.174,149.230 61.997 C 148.485 61.819,146.910 61.599,145.730 61.508 C 144.549 61.416,143.321 61.264,143.000 61.169 C 142.679 61.074,141.530 60.886,140.445 60.751 C 139.361 60.616,138.199 60.434,137.862 60.345 C 136.868 60.084,134.047 59.828,132.167 59.827 C 131.204 59.827,130.004 59.822,129.500 59.816 C 128.012 59.798,122.852 60.112,121.500 60.303 C 119.456 60.591,116.920 60.830,114.030 61.005 C 112.534 61.096,110.621 61.284,109.780 61.422 C 106.519 61.957,105.038 62.210,103.857 62.434 C 103.183 62.562,102.452 62.667,102.234 62.667 C 102.016 62.667,101.111 62.899,100.224 63.183 C 99.337 63.468,97.375 64.030,95.865 64.433 C 91.499 65.598,85.724 68.023,83.850 69.477 C 83.520 69.733,82.800 70.192,82.250 70.496 C 81.700 70.800,80.595 71.421,79.795 71.877 C 78.994 72.332,77.681 72.943,76.878 73.234 C 75.153 73.859,71.366 76.232,69.671 77.750 C 67.994 79.252,67.060 80.013,65.988 80.750 C 63.216 82.657,62.107 83.603,58.667 86.997 C 56.604 89.031,54.665 90.892,54.356 91.132 C 54.048 91.372,53.392 92.115,52.897 92.784 C 52.402 93.453,51.938 94.000,51.866 94.000 C 51.794 94.000,51.288 94.575,50.742 95.278 C 50.197 95.981,49.386 96.975,48.941 97.486 C 48.496 97.998,47.836 99.015,47.474 99.745 C 47.111 100.476,46.281 101.826,45.629 102.745 C 44.976 103.665,44.009 105.066,43.480 105.860 C 42.951 106.653,42.439 107.351,42.343 107.411 C 41.389 108.000,38.328 112.516,36.768 115.634 C 36.250 116.670,35.487 118.077,35.072 118.761 C 33.970 120.575,33.382 122.077,33.249 123.417 C 33.186 124.058,32.997 125.221,32.830 126.000 C 32.663 126.779,32.408 128.219,32.265 129.200 C 32.087 130.415,31.795 131.509,31.346 132.634 C 30.487 134.791,30.178 136.463,30.000 139.917 C 29.844 142.957,29.608 145.068,29.321 146.002 C 28.984 147.095,28.843 155.645,29.120 158.167 C 29.256 159.404,29.390 161.692,29.417 163.250 C 29.497 167.887,29.648 169.472,30.089 170.344 C 30.301 170.762,30.559 171.587,30.662 172.177 C 30.765 172.767,30.919 173.475,31.003 173.750 C 31.088 174.025,31.241 174.952,31.343 175.811 C 31.658 178.454,32.246 180.862,32.960 182.436 C 33.329 183.250,33.684 184.217,33.747 184.583 C 33.894 185.431,34.896 188.041,35.416 188.930 C 35.635 189.305,36.115 190.467,36.482 191.514 C 38.374 196.906,38.391 196.947,39.433 198.683 C 39.741 199.196,40.110 200.119,40.253 200.736 C 40.932 203.666,42.116 205.624,45.719 209.774 C 46.894 211.127,48.122 212.713,48.449 213.297 C 49.166 214.579,52.105 217.761,53.833 219.127 C 54.521 219.670,55.573 220.557,56.171 221.099 C 56.769 221.640,57.669 222.419,58.171 222.829 C 58.673 223.239,59.556 224.002,60.133 224.523 C 60.782 225.108,61.579 225.633,62.217 225.894 C 65.053 227.054,66.461 227.751,67.792 228.652 C 69.194 229.602,73.532 231.674,74.599 231.904 C 74.882 231.965,75.632 232.319,76.265 232.690 C 78.462 233.979,81.450 235.335,84.500 236.426 C 85.096 236.639,86.596 237.196,87.833 237.665 C 90.865 238.812,93.830 239.802,94.884 240.019 C 95.360 240.118,96.800 240.502,98.083 240.873 C 99.367 241.243,100.854 241.643,101.388 241.760 C 101.923 241.878,103.198 242.241,104.222 242.568 C 106.259 243.218,107.786 243.543,110.583 243.922 C 111.592 244.058,113.354 244.316,114.500 244.494 C 116.313 244.777,120.925 245.216,123.865 245.387 C 125.274 245.469,125.407 245.641,125.230 247.163 C 125.037 248.833,125.092 254.042,125.323 255.917 C 125.424 256.742,125.582 258.692,125.672 260.250 C 125.763 261.808,125.914 264.133,126.008 265.417 C 126.126 267.023,126.125 268.503,126.006 270.167 C 125.889 271.791,125.887 272.911,125.998 273.583 C 126.090 274.133,126.165 276.459,126.166 278.751 C 126.166 281.043,126.241 283.179,126.332 283.496 C 126.423 283.813,126.613 285.463,126.754 287.162 C 126.895 288.860,127.129 291.412,127.274 292.833 C 127.422 294.292,127.568 297.666,127.610 300.583 C 127.653 303.611,127.779 306.464,127.915 307.475 C 128.055 308.520,128.090 309.348,128.003 309.576 C 127.837 310.013,128.586 309.943,116.500 310.658 C 114.896 310.753,112.496 310.919,111.167 311.026 C 109.837 311.133,106.925 311.236,104.695 311.254 C 100.946 311.285,100.607 311.312,100.195 311.617 C 99.031 312.480,98.339 314.307,98.158 317.000 C 98.087 318.054,97.976 319.372,97.911 319.929 C 97.570 322.844,99.216 324.810,101.560 324.286 C 103.382 323.879,110.245 323.445,114.083 323.494 C 114.817 323.503,115.792 323.434,116.250 323.341 C 117.700 323.047,127.628 322.595,128.084 322.803 C 128.653 323.062,128.907 324.123,128.731 325.500 C 128.655 326.096,128.610 327.146,128.631 327.833 C 128.652 328.521,128.670 332.532,128.672 336.747 C 128.675 345.376,128.655 345.208,129.891 346.938 C 130.974 348.454,131.234 348.599,133.141 348.743 C 133.998 348.808,135.057 348.967,135.495 349.097 C 137.946 349.825,141.060 350.083,141.917 349.630 C 143.945 348.556,144.842 344.995,143.924 341.667 C 143.784 341.162,143.670 340.170,143.669 339.460 C 143.667 338.538,143.524 337.662,143.167 336.390 C 142.838 335.220,142.667 334.226,142.667 333.493 C 142.667 332.879,142.547 331.711,142.401 330.897 C 142.204 329.800,142.163 328.906,142.240 327.443 C 142.319 325.955,142.277 325.102,142.070 323.977 C 141.812 322.575,141.813 322.465,142.082 322.168 C 142.707 321.478,147.143 320.928,148.827 321.332 C 149.973 321.607,151.154 321.585,152.500 321.263 C 153.864 320.938,155.137 320.935,157.235 321.251 C 158.144 321.388,159.210 321.500,159.604 321.500 C 159.998 321.500,160.718 321.658,161.202 321.851 C 163.649 322.827,166.855 321.552,167.518 319.340 C 167.877 318.139,167.284 309.208,166.795 308.461 C 165.557 306.572,163.757 306.268,158.667 307.088 C 157.887 307.213,156.650 307.362,155.917 307.419 C 153.971 307.570,149.600 308.138,148.250 308.415 C 146.949 308.682,143.864 309.001,142.579 309.000 C 141.175 309.000,141.096 308.874,140.853 306.221 C 140.737 304.954,140.570 303.543,140.481 303.086 C 140.392 302.629,140.287 297.588,140.246 291.884 C 140.200 285.561,140.104 281.234,139.998 280.798 C 139.826 280.085,139.745 279.012,139.260 271.000 C 139.118 268.662,138.964 266.487,138.916 266.167 C 138.615 264.147,138.572 252.583,138.854 249.500 C 139.178 245.945,139.264 245.833,141.686 245.833 C 143.157 245.833,151.022 244.942,151.352 244.738 C 151.430 244.690,152.506 244.583,153.744 244.500 C 155.898 244.356,158.371 243.835,160.543 243.068 C 160.932 242.931,161.892 242.678,162.676 242.507 C 163.460 242.336,164.885 241.861,165.843 241.452 C 166.800 241.044,168.161 240.551,168.867 240.357 C 170.197 239.993,173.623 238.458,174.499 237.834 C 174.774 237.638,175.972 237.039,177.162 236.502 C 178.351 235.966,179.757 235.196,180.287 234.793 C 180.817 234.390,181.850 233.705,182.583 233.273 C 183.317 232.840,184.967 231.699,186.250 230.737 C 187.533 229.776,188.934 228.762,189.362 228.485 C 189.791 228.208,190.679 227.308,191.337 226.484 C 191.995 225.660,192.722 224.862,192.953 224.711 C 193.703 224.220,197.297 219.893,198.558 217.963 C 199.233 216.929,200.174 215.645,200.648 215.110 C 201.122 214.574,201.704 213.749,201.940 213.276 C 202.538 212.082,204.711 208.681,205.890 207.094 C 206.430 206.367,207.303 205.055,207.829 204.178 C 208.356 203.301,209.105 202.096,209.494 201.500 C 211.323 198.698,213.301 195.131,214.095 193.202 C 214.424 192.403,214.963 191.150,215.294 190.417 C 215.625 189.683,216.209 188.183,216.591 187.083 C 216.973 185.983,217.606 184.221,217.998 183.167 C 219.120 180.147,219.649 178.554,220.180 176.611 C 220.451 175.617,220.785 174.589,220.921 174.325 C 221.872 172.487,222.362 170.201,222.672 166.167 C 222.775 164.837,222.998 163.075,223.169 162.250 C 223.341 161.425,223.527 160.037,223.584 159.167 C 223.642 158.296,223.776 157.133,223.882 156.583 C 223.990 156.030,224.078 154.080,224.080 152.218 C 224.083 149.057,224.216 148.072,224.562 148.633 C 225.090 149.487,225.043 155.763,224.492 158.000 C 224.125 159.492,224.079 160.443,224.253 163.031 C 224.362 164.657,224.335 165.150,224.093 166.013 C 223.888 166.745,223.839 167.273,223.925 167.816 C 224.101 168.920,224.121 170.021,224.249 186.083 C 224.312 194.058,224.394 204.183,224.430 208.583 C 224.480 214.701,224.433 217.466,224.234 220.333 C 224.061 222.815,223.980 226.140,223.994 230.167 C 224.026 239.606,224.028 243.295,224.005 257.000 C 223.993 264.280,224.054 270.393,224.146 271.250 C 224.249 272.204,224.252 273.720,224.153 275.417 C 223.691 283.344,223.651 288.974,224.019 294.500 C 224.282 298.458,224.267 299.745,223.936 301.563 C 223.788 302.378,223.667 303.747,223.667 304.607 C 223.667 306.267,223.317 308.829,222.889 310.314 C 222.227 312.609,222.860 315.433,224.309 316.646 C 225.845 317.933,226.363 317.996,227.383 317.021 C 228.104 316.333,227.950 316.348,232.165 316.555 L 234.579 316.673 235.621 316.160 C 237.959 315.009,238.191 314.471,237.698 311.340 C 237.502 310.099,237.357 308.657,237.374 308.136 C 237.402 307.298,237.340 307.097,236.837 306.397 L 236.268 305.605 236.057 300.427 C 235.941 297.580,235.805 293.150,235.755 290.583 C 235.705 288.017,235.626 285.568,235.579 285.142 C 235.531 284.716,235.572 283.666,235.670 282.808 C 235.810 281.570,235.790 280.650,235.572 278.333 C 235.334 275.801,235.324 274.926,235.497 271.693 C 235.654 268.772,235.653 267.660,235.493 266.534 C 235.367 265.646,235.335 264.587,235.409 263.757 C 235.670 260.829,235.843 236.976,235.624 234.124 C 235.488 232.356,235.496 231.616,235.657 230.897 C 235.809 230.214,235.855 228.119,235.827 223.106 C 235.806 219.335,235.789 215.987,235.790 215.667 C 235.791 215.346,235.782 213.808,235.771 212.250 C 235.759 210.692,235.774 207.648,235.802 205.486 C 235.843 202.456,235.795 201.234,235.595 200.153 C 235.412 199.165,235.313 197.296,235.262 193.833 C 235.222 191.129,235.147 188.767,235.096 188.583 C 235.045 188.400,234.921 185.213,234.821 181.500 C 234.537 170.967,234.372 167.104,234.098 164.583 C 233.959 163.300,233.799 161.012,233.743 159.500 C 233.686 157.987,233.533 156.141,233.402 155.397 C 233.238 154.462,233.158 152.586,233.143 149.314 C 233.132 146.712,233.048 144.246,232.957 143.833 C 232.859 143.386,232.775 138.038,232.749 130.583 C 232.722 122.890,232.633 117.370,232.518 116.229 C 232.415 115.209,232.324 113.071,232.316 111.479 C 232.307 109.886,232.290 107.608,232.277 106.417 C 232.233 102.264,232.526 96.646,232.793 96.544 C 233.273 96.360,236.578 101.234,237.950 104.150 C 238.442 105.196,239.430 106.883,240.144 107.900 C 240.859 108.918,241.661 110.125,241.927 110.583 C 242.193 111.042,242.882 111.959,243.459 112.623 C 244.036 113.286,245.231 114.936,246.115 116.289 C 247.725 118.755,249.120 120.544,251.178 122.780 C 252.415 124.123,253.300 125.683,253.814 127.424 C 254.524 129.830,256.431 130.424,261.989 129.970 C 263.911 129.813,264.647 129.830,266.921 130.081 L 269.594 130.377 270.281 130.027 C 271.551 129.379,272.274 128.095,273.908 123.583 C 274.496 121.961,276.141 117.827,277.158 115.417 C 277.506 114.592,278.065 113.167,278.401 112.250 C 279.483 109.295,279.867 108.491,281.135 106.520 C 281.820 105.455,282.740 103.822,283.179 102.892 C 284.041 101.066,284.231 100.830,284.474 101.287 C 284.888 102.064,285.221 110.051,285.243 119.750 C 285.261 127.713,284.992 144.859,284.832 145.917 C 284.677 146.945,284.645 148.932,284.624 158.917 C 284.621 160.200,284.666 162.750,284.722 164.583 C 284.785 166.611,284.758 168.294,284.654 168.880 C 284.450 170.034,284.402 181.210,284.584 185.333 C 284.677 187.456,284.653 188.658,284.495 189.750 C 284.362 190.670,284.264 193.246,284.242 196.417 C 284.211 200.919,284.006 204.252,283.733 204.694 C 283.688 204.768,283.575 205.973,283.483 207.372 C 283.384 208.882,283.152 210.632,282.913 211.675 C 282.517 213.404,282.252 215.966,281.992 220.583 C 281.920 221.867,281.808 223.492,281.743 224.196 C 281.480 227.042,282.526 228.021,285.790 227.986 C 286.868 227.974,288.425 227.958,289.250 227.951 C 290.075 227.943,291.688 227.969,292.833 228.010 C 295.220 228.094,295.896 227.861,296.902 226.609 L 297.417 225.968 297.417 220.109 C 297.417 216.021,297.484 213.847,297.638 212.917 C 297.812 211.866,297.822 210.992,297.685 208.799 C 297.562 206.841,297.563 205.583,297.688 204.563 C 297.835 203.364,297.820 202.923,297.601 202.015 C 297.227 200.464,297.017 194.676,297.208 191.224 C 297.299 189.569,297.306 186.193,297.225 183.000 C 297.149 180.021,297.082 175.746,297.076 173.500 C 297.071 171.254,297.000 168.667,296.919 167.750 C 296.838 166.833,296.754 163.196,296.731 159.667 C 296.709 156.137,296.645 151.450,296.588 149.250 C 296.532 147.050,296.463 142.887,296.436 140.000 C 296.403 136.581,296.315 134.488,296.184 134.000 C 295.951 133.130,295.699 124.078,295.675 115.667 C 295.658 110.024,295.870 106.108,296.419 101.917 C 296.712 99.684,296.979 94.831,297.481 82.667 C 297.905 72.362,297.764 71.988,293.385 71.859 C 289.822 71.755,288.138 72.939,287.324 76.120 C 286.993 77.413,286.484 78.444,285.646 79.517 C 285.388 79.848,284.726 81.298,284.175 82.741 C 283.617 84.204,282.446 86.738,281.528 88.473 C 280.623 90.184,279.633 92.183,279.327 92.917 C 279.022 93.650,277.896 96.162,276.825 98.500 C 274.551 103.462,274.062 104.604,272.579 108.417 C 271.972 109.975,271.324 111.625,271.137 112.083 C 270.728 113.091,269.976 114.349,269.245 115.250 C 268.948 115.617,268.536 116.313,268.329 116.798 C 267.603 118.502,267.181 118.370,265.475 115.901 C 264.801 114.927,263.793 113.482,263.233 112.690 C 262.674 111.898,262.082 110.987,261.918 110.667 C 261.437 109.728,259.740 106.952,259.008 105.908 C 258.637 105.378,258.333 104.845,258.333 104.723 C 258.333 104.601,256.890 102.327,255.125 99.670 C 251.049 93.531,248.670 89.341,247.860 86.876 C 247.447 85.616,246.881 84.511,245.765 82.781 C 245.269 82.011,244.622 80.902,244.328 80.316 C 244.033 79.730,243.244 78.308,242.574 77.157 C 241.904 76.006,241.206 74.669,241.023 74.187 C 240.539 72.913,240.297 72.607,238.874 71.477 L 237.591 70.458 236.337 70.592 C 234.118 70.830,232.990 70.768,232.215 70.365 C 231.723 70.109,231.218 70.000,230.522 70.000 C 229.634 70.000,229.459 69.940,228.833 69.417 C 227.981 68.705,227.730 68.695,226.722 69.334 C 224.676 70.631,222.958 70.852,217.627 70.501 C 214.713 70.309,214.131 70.315,212.543 70.554 C 210.704 70.830,208.232 71.082,205.583 71.263 C 204.758 71.319,203.183 71.550,202.083 71.776 C 199.368 72.333,194.973 72.656,194.576 72.328 C 194.020 71.866,194.344 70.231,195.549 67.417 C 196.138 66.042,196.677 64.729,196.747 64.500 C 196.817 64.271,197.270 63.258,197.754 62.250 C 198.237 61.242,199.084 59.217,199.635 57.750 C 200.187 56.283,201.234 53.846,201.962 52.333 C 202.691 50.821,203.345 49.396,203.417 49.167 C 203.489 48.938,203.959 47.813,204.462 46.667 C 204.964 45.521,205.692 43.646,206.079 42.500 C 206.466 41.354,206.948 40.094,207.149 39.700 C 207.350 39.306,207.745 38.331,208.027 37.533 C 208.308 36.736,208.744 35.671,208.995 35.167 C 209.586 33.981,210.519 31.093,211.095 28.667 C 211.345 27.613,211.837 25.876,212.189 24.807 L 212.829 22.864 212.861 18.890 C 212.905 13.301,212.262 10.856,209.779 7.167 C 207.041 3.097,202.349 0.830,198.083 1.515 M202.639 3.064 C 207.567 4.967,209.987 7.844,211.349 13.417 L 211.878 15.583 211.769 19.202 C 211.673 22.365,211.608 22.995,211.249 24.202 C 211.023 24.962,210.531 26.708,210.156 28.083 C 209.079 32.036,208.305 34.211,206.300 38.917 C 205.831 40.017,205.204 41.667,204.907 42.583 C 204.209 44.735,202.329 49.222,200.753 52.500 C 200.069 53.921,199.142 56.058,198.692 57.250 C 198.242 58.442,197.557 60.092,197.170 60.917 C 193.571 68.586,192.468 72.426,193.606 73.321 C 194.265 73.840,199.492 73.589,202.000 72.919 C 203.006 72.650,204.847 72.434,208.417 72.165 C 209.700 72.068,211.571 71.865,212.574 71.713 C 214.167 71.473,214.760 71.463,217.241 71.637 C 221.036 71.902,222.734 71.886,224.609 71.566 C 226.067 71.318,226.259 71.319,227.379 71.586 C 228.910 71.950,234.241 72.091,235.861 71.811 C 237.505 71.526,239.413 72.755,239.840 74.374 C 239.943 74.764,240.424 75.758,240.908 76.583 C 241.392 77.408,242.225 78.908,242.758 79.917 C 243.292 80.925,244.130 82.341,244.622 83.064 C 245.703 84.652,246.207 85.625,246.772 87.214 C 247.938 90.496,250.059 94.186,255.418 102.250 C 256.271 103.533,257.262 105.071,257.620 105.667 C 257.979 106.263,258.799 107.612,259.444 108.667 C 260.088 109.721,260.833 110.973,261.099 111.450 C 261.861 112.813,265.427 118.028,265.992 118.606 C 267.151 119.792,268.611 119.237,269.335 117.333 C 269.458 117.013,269.891 116.300,270.298 115.750 C 271.210 114.518,272.134 112.702,272.799 110.833 C 273.861 107.852,275.220 104.592,277.176 100.333 C 278.291 97.904,279.600 95.011,280.085 93.905 C 280.569 92.798,281.718 90.436,282.638 88.655 C 283.558 86.874,284.690 84.442,285.153 83.250 C 285.617 82.058,286.226 80.746,286.507 80.333 C 287.283 79.195,287.904 77.898,288.412 76.359 C 289.213 73.933,290.247 73.177,292.956 73.035 C 294.724 72.943,295.824 73.243,296.282 73.942 C 296.586 74.406,296.477 84.277,296.138 86.917 C 296.044 87.650,295.940 89.600,295.907 91.250 C 295.793 97.015,295.688 98.936,295.343 101.570 C 294.382 108.905,294.281 128.482,295.168 135.364 C 295.441 137.483,295.462 138.200,295.323 140.698 C 295.213 142.681,295.220 144.313,295.345 145.917 C 295.446 147.200,295.520 149.225,295.510 150.417 C 295.476 154.690,295.623 165.620,295.740 167.500 C 295.806 168.554,295.892 171.817,295.933 174.750 C 295.973 177.683,296.061 180.683,296.128 181.417 C 296.195 182.150,296.194 184.925,296.125 187.583 C 295.960 193.980,296.100 200.574,296.432 202.004 C 296.629 202.852,296.651 203.422,296.536 204.587 C 296.454 205.410,296.444 206.533,296.513 207.083 C 296.726 208.780,296.679 211.421,296.404 213.209 C 296.186 214.620,296.159 215.814,296.247 220.083 C 296.389 227.001,296.396 226.989,292.092 226.750 C 289.186 226.588,288.372 226.588,286.160 226.749 C 283.512 226.943,282.646 226.279,282.905 224.255 C 282.964 223.794,283.080 222.179,283.162 220.667 C 283.397 216.326,283.640 213.917,284.075 211.583 C 284.297 210.392,284.558 208.442,284.654 207.250 C 284.751 206.058,284.947 204.521,285.090 203.833 C 285.288 202.883,285.364 201.244,285.405 197.000 C 285.439 193.560,285.540 190.937,285.669 190.167 C 285.820 189.261,285.844 187.976,285.755 185.500 C 285.572 180.406,285.607 170.076,285.811 168.917 C 285.922 168.289,285.948 166.614,285.883 164.417 C 285.739 159.600,285.818 147.245,286.003 145.417 C 286.087 144.592,286.212 139.192,286.282 133.417 C 286.528 112.961,286.185 99.775,285.379 98.694 C 284.582 97.625,283.904 98.279,282.591 101.387 C 282.055 102.654,280.935 104.829,280.100 106.220 C 279.266 107.612,278.380 109.275,278.132 109.917 C 277.883 110.558,277.074 112.658,276.332 114.583 C 275.591 116.508,274.716 118.721,274.389 119.500 C 274.062 120.279,273.536 121.592,273.221 122.417 C 270.398 129.799,270.755 129.445,266.667 128.937 C 265.330 128.770,264.219 128.758,261.963 128.882 C 256.369 129.192,255.405 128.893,254.679 126.625 C 253.934 124.303,253.578 123.763,250.459 120.249 C 249.749 119.449,248.295 117.472,247.229 115.855 C 246.162 114.239,244.906 112.436,244.436 111.848 C 243.564 110.755,242.849 109.778,240.901 107.014 C 240.292 106.150,239.402 104.613,238.923 103.597 C 238.154 101.967,236.774 99.668,235.165 97.333 C 234.881 96.921,234.255 95.984,233.775 95.251 C 232.640 93.520,231.815 93.124,231.422 94.120 C 231.094 94.952,231.057 111.026,231.373 115.417 C 231.486 116.994,231.578 123.190,231.599 130.583 C 231.633 143.130,231.839 152.216,232.154 155.167 C 232.247 156.037,232.368 157.500,232.422 158.417 C 232.476 159.333,232.699 162.146,232.917 164.667 C 233.288 168.961,233.512 174.032,233.578 179.667 C 233.619 183.100,234.283 199.569,234.476 201.917 C 234.613 203.591,234.601 223.013,234.447 247.250 C 234.273 274.765,234.307 286.487,234.583 293.667 C 234.634 294.996,234.711 297.996,234.753 300.333 C 234.854 305.851,234.889 306.135,235.593 307.158 C 236.124 307.930,236.180 308.141,236.415 310.259 C 236.777 313.530,236.767 313.673,236.125 314.282 C 235.036 315.315,234.850 315.352,230.954 315.298 C 227.794 315.255,227.331 315.284,226.615 315.568 C 224.709 316.325,223.255 313.529,224.085 310.705 C 224.461 309.427,224.665 307.943,224.925 304.583 C 225.060 302.842,225.245 300.779,225.337 300.000 C 225.450 299.039,225.446 297.699,225.326 295.833 C 225.037 291.341,224.883 284.785,225.036 283.473 C 225.115 282.800,225.136 281.688,225.083 281.000 C 225.030 280.313,225.059 279.225,225.147 278.583 C 225.362 277.018,225.414 272.462,225.272 267.583 C 225.209 265.383,225.168 259.233,225.183 253.917 C 225.197 248.600,225.224 239.037,225.241 232.667 C 225.263 224.985,225.341 220.438,225.475 219.167 C 225.674 217.282,225.666 212.554,225.422 185.750 C 225.250 166.941,225.377 159.474,225.906 157.167 C 226.142 156.138,226.178 155.356,226.113 152.750 C 225.993 147.942,225.695 141.389,225.504 139.379 C 225.410 138.391,225.333 136.946,225.333 136.167 C 225.333 135.387,225.150 132.762,224.926 130.333 C 224.273 123.237,223.847 111.893,223.757 99.167 C 223.721 94.079,223.651 89.804,223.602 89.667 C 223.553 89.529,223.402 88.537,223.266 87.462 C 222.877 84.387,222.407 83.636,220.750 83.440 C 219.311 83.269,205.576 83.307,202.000 83.491 C 200.121 83.588,196.933 83.711,194.917 83.764 C 189.804 83.898,188.865 84.538,191.300 86.227 C 192.320 86.936,194.070 88.824,195.182 90.417 C 197.582 93.854,198.089 94.508,199.836 96.417 C 203.947 100.908,207.045 104.853,209.100 108.216 C 209.896 109.518,211.090 111.408,211.753 112.417 C 212.959 114.249,215.057 118.261,216.096 120.721 C 216.399 121.438,216.828 122.264,217.051 122.555 C 218.036 123.848,219.678 127.718,220.086 129.713 C 220.222 130.375,220.481 131.479,220.662 132.167 C 220.843 132.854,221.103 134.204,221.240 135.167 C 221.376 136.129,221.679 138.117,221.912 139.583 C 222.881 145.682,223.164 152.864,222.593 156.917 C 222.452 157.925,222.264 159.425,222.177 160.250 C 221.785 163.956,221.143 169.338,220.984 170.250 C 220.760 171.528,218.611 178.190,217.004 182.583 C 216.534 183.867,215.937 185.517,215.676 186.250 C 213.106 193.475,210.845 197.661,203.883 208.083 C 202.781 209.733,201.560 211.608,201.171 212.250 C 200.782 212.892,200.033 213.979,199.507 214.667 C 198.980 215.354,198.032 216.704,197.400 217.665 C 196.269 219.385,195.684 220.072,192.477 223.443 C 191.592 224.374,190.548 225.559,190.157 226.076 C 189.659 226.736,188.871 227.416,187.515 228.356 C 186.453 229.093,185.021 230.138,184.333 230.679 C 183.646 231.220,182.633 231.901,182.083 232.191 C 181.533 232.481,180.558 233.059,179.917 233.476 C 178.731 234.247,175.760 235.865,172.005 237.784 C 170.862 238.368,169.174 239.078,168.255 239.360 C 167.336 239.643,165.908 240.158,165.083 240.506 C 164.258 240.854,162.796 241.328,161.833 241.560 C 160.871 241.791,159.108 242.246,157.917 242.570 C 156.593 242.931,155.166 243.199,154.250 243.259 C 153.425 243.314,152.150 243.463,151.417 243.591 C 149.384 243.945,145.551 244.334,142.565 244.489 C 139.062 244.671,138.450 244.943,137.992 246.521 C 137.722 247.448,137.414 252.711,137.441 255.917 C 137.499 262.810,137.620 265.602,138.186 273.167 C 138.286 274.496,138.385 276.602,138.406 277.847 C 138.428 279.092,138.492 280.186,138.550 280.279 C 138.818 280.714,138.990 285.470,139.012 293.083 C 139.026 297.667,139.099 301.904,139.175 302.500 C 139.250 303.096,139.400 304.671,139.507 306.000 C 139.724 308.686,139.864 309.325,140.330 309.747 C 141.073 310.419,144.933 310.417,148.250 309.743 C 148.892 309.612,151.104 309.319,153.167 309.091 C 155.229 308.863,158.342 308.476,160.083 308.232 C 164.842 307.562,165.767 307.970,166.014 310.845 C 166.370 314.992,166.381 318.883,166.037 319.500 C 165.391 320.661,163.304 321.179,161.568 320.609 C 161.118 320.461,160.000 320.262,159.083 320.167 C 158.167 320.071,156.755 319.917,155.947 319.824 C 154.456 319.654,154.223 319.670,152.003 320.107 C 150.969 320.310,150.508 320.318,149.293 320.152 C 146.232 319.734,142.132 320.344,141.104 321.371 L 140.625 321.849 140.771 323.383 C 140.851 324.227,140.892 325.862,140.862 327.018 C 140.827 328.379,140.897 329.640,141.061 330.601 C 141.201 331.416,141.356 332.758,141.406 333.583 C 141.462 334.511,141.688 335.743,141.999 336.813 C 142.381 338.131,142.500 338.880,142.500 339.956 C 142.500 340.733,142.620 341.829,142.767 342.393 C 143.469 345.091,142.669 347.874,141.062 348.318 C 140.447 348.488,140.368 348.478,136.417 347.759 C 135.133 347.526,133.603 347.334,133.016 347.334 C 131.995 347.333,131.922 347.305,131.339 346.692 C 130.089 345.379,130.086 345.363,130.057 339.583 C 129.958 319.912,130.228 321.125,126.030 321.485 C 124.776 321.592,122.212 321.756,120.333 321.849 C 118.454 321.941,115.604 322.086,114.000 322.171 C 112.396 322.255,109.283 322.404,107.083 322.501 C 104.883 322.598,102.521 322.779,101.833 322.904 C 99.668 323.296,99.069 322.643,99.247 320.083 C 99.789 312.305,99.623 312.551,104.333 312.525 C 107.406 312.509,109.460 312.409,116.417 311.936 C 122.658 311.512,125.867 311.331,127.138 311.332 C 128.279 311.333,128.393 311.300,128.870 310.823 L 129.380 310.312 129.266 308.531 C 129.203 307.551,129.085 305.700,129.003 304.417 C 128.921 303.133,128.847 300.808,128.837 299.250 C 128.827 297.692,128.750 295.629,128.665 294.667 C 128.581 293.704,128.394 291.417,128.251 289.583 C 128.108 287.750,127.883 285.387,127.751 284.333 C 127.439 281.828,127.118 271.958,127.257 269.130 C 127.320 267.842,127.287 266.080,127.178 264.917 C 127.074 263.817,126.922 261.642,126.839 260.083 C 126.756 258.525,126.613 256.725,126.521 256.083 C 126.186 253.759,126.129 250.015,126.408 248.697 C 127.247 244.741,126.791 244.166,122.667 243.974 C 118.243 243.769,115.293 243.541,114.667 243.356 C 114.346 243.261,112.911 243.030,111.478 242.842 C 109.080 242.528,105.796 241.933,105.522 241.764 C 105.270 241.608,95.038 238.667,94.748 238.667 C 94.232 238.667,90.167 237.281,87.484 236.191 C 85.871 235.536,84.461 235.000,84.350 235.000 C 84.171 235.000,83.170 234.590,79.583 233.048 C 79.033 232.811,78.021 232.301,77.333 231.913 C 76.646 231.525,74.996 230.779,73.667 230.256 C 71.012 229.211,69.195 228.282,67.917 227.318 C 67.458 226.972,66.454 226.420,65.685 226.091 C 62.442 224.703,60.194 223.177,56.597 219.922 C 55.856 219.251,54.769 218.320,54.181 217.851 C 52.818 216.766,50.939 214.689,49.489 212.667 C 48.290 210.994,47.509 210.022,45.979 208.303 C 43.697 205.738,42.001 202.907,41.470 200.771 C 41.264 199.948,40.754 198.698,40.168 197.583 C 39.592 196.488,38.824 194.614,38.259 192.927 C 37.740 191.374,36.948 189.311,36.500 188.343 C 36.051 187.375,35.453 185.779,35.170 184.795 C 34.887 183.811,34.353 182.245,33.984 181.314 C 33.269 179.508,32.596 177.114,32.421 175.750 C 32.209 174.093,31.503 170.729,31.171 169.794 C 30.809 168.774,30.495 165.131,30.549 162.583 C 30.565 161.850,30.466 160.125,30.331 158.750 C 29.968 155.085,30.038 148.827,30.469 146.240 C 30.652 145.146,30.884 143.050,30.985 141.583 C 31.302 136.983,31.586 135.269,32.419 132.919 C 32.918 131.514,33.284 130.087,33.504 128.691 C 33.687 127.532,33.986 125.937,34.168 125.146 C 34.351 124.356,34.502 123.493,34.504 123.229 C 34.510 122.357,35.285 120.527,36.575 118.337 C 37.275 117.148,38.006 115.817,38.198 115.379 C 38.950 113.670,40.551 111.178,41.869 109.667 C 42.629 108.796,43.775 107.321,44.417 106.390 C 45.058 105.458,46.090 103.984,46.709 103.114 C 47.328 102.245,48.090 101.020,48.401 100.392 C 49.474 98.229,52.521 94.683,57.667 89.610 C 63.181 84.174,63.992 83.440,65.812 82.247 C 66.762 81.623,68.562 80.258,69.812 79.213 C 72.690 76.805,75.162 75.155,76.885 74.490 C 79.098 73.637,83.280 71.407,84.667 70.340 C 85.576 69.641,86.747 69.035,88.917 68.142 C 92.804 66.540,94.374 65.990,97.130 65.260 C 98.663 64.855,100.251 64.403,100.661 64.256 C 101.070 64.110,102.082 63.883,102.911 63.753 C 103.739 63.623,104.829 63.443,105.333 63.353 C 110.682 62.401,112.196 62.179,113.917 62.093 C 116.330 61.972,119.111 61.721,121.577 61.403 C 122.581 61.273,124.269 61.165,125.327 61.163 C 126.384 61.161,127.547 61.090,127.909 61.006 C 128.969 60.760,136.090 61.084,138.333 61.481 C 142.593 62.233,144.320 62.490,145.750 62.584 C 148.832 62.787,156.183 64.747,158.804 66.065 C 159.232 66.281,160.543 66.732,161.717 67.067 C 165.624 68.182,166.701 68.709,169.885 71.062 C 172.065 72.673,173.695 73.569,175.833 74.332 C 176.887 74.709,178.242 75.313,178.843 75.675 C 180.701 76.794,181.187 76.621,182.615 74.333 C 185.436 69.816,186.554 67.748,187.998 64.374 C 188.479 63.251,189.134 61.901,189.454 61.374 C 189.774 60.848,190.397 59.650,190.838 58.713 C 191.279 57.777,192.052 56.344,192.556 55.529 C 193.060 54.714,193.822 53.351,194.250 52.500 C 194.678 51.649,195.423 50.307,195.907 49.518 C 197.547 46.841,198.125 45.753,198.573 44.500 C 198.818 43.813,199.571 42.188,200.246 40.890 C 200.921 39.592,201.811 37.642,202.223 36.557 C 202.636 35.471,203.582 33.271,204.326 31.667 C 205.952 28.158,206.259 27.211,206.588 24.688 C 206.726 23.622,206.907 22.337,206.989 21.833 C 207.191 20.584,206.508 16.570,205.833 15.044 C 203.724 10.277,199.653 8.548,195.444 10.634 C 193.949 11.375,192.183 12.830,191.740 13.685 C 190.717 15.665,192.621 20.602,195.944 24.583 C 197.382 26.306,197.834 27.094,197.831 27.868 C 197.825 29.147,197.495 29.240,192.714 29.305 L 188.677 29.359 188.288 28.970 C 186.311 26.993,184.241 16.901,184.985 12.866 C 185.226 11.556,186.101 9.595,186.964 8.427 C 187.308 7.963,187.802 7.268,188.062 6.882 C 189.337 4.995,191.933 3.614,195.225 3.073 C 199.820 2.317,200.703 2.316,202.639 3.064 M127.035 69.843 C 125.908 69.916,124.469 70.057,123.836 70.155 C 123.204 70.253,121.527 70.333,120.110 70.333 C 117.177 70.333,115.166 70.623,110.917 71.656 C 109.450 72.012,107.650 72.432,106.917 72.589 C 106.183 72.745,105.018 73.082,104.327 73.336 C 103.636 73.591,102.248 73.997,101.243 74.238 C 98.098 74.994,96.103 75.525,95.550 75.755 C 95.256 75.877,94.000 76.283,92.759 76.658 C 91.518 77.033,89.920 77.592,89.209 77.901 C 88.498 78.210,87.317 78.666,86.583 78.914 C 84.144 79.738,82.613 80.746,81.751 82.092 C 81.432 82.592,81.076 83.006,80.960 83.014 C 80.845 83.021,80.337 83.019,79.833 83.009 C 78.713 82.986,77.247 83.685,75.333 85.154 C 74.646 85.682,73.522 86.481,72.836 86.931 C 71.177 88.018,66.389 92.714,64.451 95.156 C 63.609 96.216,62.529 97.549,62.052 98.117 C 61.574 98.686,60.571 100.073,59.821 101.201 C 59.072 102.328,58.180 103.550,57.839 103.917 C 56.483 105.373,54.582 108.470,52.774 112.167 C 51.766 114.229,50.614 116.455,50.215 117.113 C 49.288 118.642,48.097 121.483,47.652 123.225 C 47.180 125.075,46.518 126.932,45.626 128.917 C 45.173 129.923,44.675 131.442,44.367 132.750 C 41.710 144.060,40.925 162.431,42.840 168.467 C 43.142 169.418,43.420 170.770,43.516 171.750 C 43.704 173.659,43.846 174.266,45.103 178.500 C 46.797 184.210,48.437 188.020,50.767 191.667 C 51.382 192.629,52.316 194.210,52.843 195.179 C 54.787 198.755,57.142 202.268,59.315 204.833 C 60.053 205.704,61.218 207.101,61.904 207.936 C 63.345 209.694,65.549 211.795,66.748 212.556 C 71.374 215.493,73.004 216.707,74.247 218.142 C 76.601 220.858,79.737 222.901,86.000 225.797 C 91.575 228.374,92.128 228.570,101.000 231.099 C 104.802 232.183,109.439 233.156,112.833 233.583 C 113.979 233.727,115.667 233.996,116.583 234.181 C 117.500 234.366,119.300 234.586,120.583 234.670 C 121.867 234.754,123.817 234.939,124.917 235.082 C 129.248 235.647,140.763 235.205,144.417 234.334 C 144.783 234.246,145.796 234.171,146.667 234.167 C 147.537 234.162,148.550 234.086,148.917 233.998 C 149.627 233.826,155.853 232.771,157.250 232.586 C 158.796 232.381,160.905 231.668,163.183 230.581 C 164.430 229.987,165.520 229.500,165.605 229.500 C 165.824 229.500,169.608 227.240,170.323 226.682 C 170.649 226.427,171.479 225.896,172.167 225.501 C 172.854 225.107,174.213 224.161,175.187 223.400 C 176.160 222.638,177.412 221.748,177.968 221.422 C 178.523 221.097,179.189 220.656,179.447 220.443 C 179.706 220.230,180.367 219.752,180.917 219.381 C 181.467 219.010,182.408 218.192,183.009 217.562 C 183.954 216.572,185.272 215.356,189.056 211.983 C 189.780 211.337,191.866 208.742,194.772 204.871 C 195.342 204.112,196.125 202.912,196.511 202.204 C 196.898 201.496,197.718 200.129,198.333 199.167 C 200.213 196.224,201.620 193.499,202.644 190.813 C 203.181 189.403,203.965 187.363,204.386 186.279 C 204.806 185.195,205.275 183.696,205.428 182.946 C 205.580 182.197,205.920 181.001,206.183 180.289 C 206.958 178.186,207.662 175.101,208.015 172.250 C 208.197 170.783,208.537 168.608,208.771 167.417 C 209.107 165.706,209.228 164.408,209.345 161.250 C 209.428 159.050,209.572 156.537,209.666 155.667 C 209.779 154.613,209.782 153.525,209.675 152.417 C 209.585 151.500,209.554 149.887,209.605 148.833 C 209.679 147.318,209.643 146.764,209.432 146.187 C 209.272 145.748,209.165 144.919,209.163 144.104 C 209.162 143.359,209.091 142.262,209.005 141.667 C 208.920 141.071,208.767 138.858,208.665 136.750 C 208.456 132.417,208.175 130.726,207.186 127.833 C 205.785 123.736,204.796 121.382,203.756 119.667 C 203.173 118.704,202.121 116.717,201.418 115.250 C 199.676 111.613,198.396 109.517,196.725 107.566 C 195.948 106.659,194.555 104.904,193.630 103.667 C 192.705 102.429,191.412 100.892,190.758 100.250 C 190.104 99.608,189.320 98.708,189.016 98.250 C 187.557 96.048,179.223 88.510,176.568 86.991 C 176.080 86.712,174.789 85.831,173.700 85.033 C 172.611 84.236,171.036 83.171,170.199 82.667 C 169.362 82.162,167.757 81.166,166.631 80.453 C 162.566 77.878,157.083 75.334,153.294 74.265 C 152.170 73.947,150.125 73.242,148.750 72.696 C 144.403 70.972,142.784 70.590,138.742 70.335 C 137.371 70.249,135.822 70.105,135.300 70.016 C 134.777 69.927,133.329 69.849,132.082 69.844 C 130.835 69.839,129.651 69.807,129.449 69.772 C 129.248 69.738,128.162 69.770,127.035 69.843 M135.310 71.188 C 135.710 71.273,137.285 71.412,138.810 71.496 C 142.572 71.703,144.685 72.222,148.644 73.910 C 149.411 74.237,151.061 74.811,152.311 75.184 C 156.140 76.329,160.980 78.414,164.057 80.244 C 168.316 82.777,172.035 85.145,173.361 86.170 C 174.208 86.825,175.524 87.728,176.284 88.178 C 178.882 89.712,186.535 96.676,187.994 98.833 C 188.211 99.154,189.076 100.129,189.917 101.000 C 190.757 101.871,191.758 103.033,192.140 103.583 C 192.967 104.774,194.108 106.218,195.905 108.349 C 197.687 110.462,198.265 111.390,200.048 115.000 C 200.886 116.696,202.085 118.967,202.713 120.048 C 203.341 121.128,203.993 122.403,204.160 122.881 C 204.327 123.359,204.629 124.125,204.830 124.583 C 205.313 125.686,206.803 130.051,207.020 131.000 C 207.299 132.218,207.553 135.559,207.978 143.583 C 208.048 144.915,208.207 146.203,208.347 146.583 C 208.578 147.211,208.637 154.176,208.435 157.083 C 208.404 157.542,208.293 159.642,208.190 161.750 C 208.057 164.464,207.904 165.997,207.666 167.000 C 207.222 168.865,207.044 170.002,206.819 172.417 C 206.623 174.517,206.220 176.263,205.164 179.590 C 204.814 180.694,204.442 182.067,204.338 182.642 C 204.087 184.024,203.160 186.667,202.166 188.833 C 201.725 189.796,201.309 190.846,201.244 191.167 C 201.048 192.122,198.798 196.445,197.458 198.439 C 196.773 199.460,195.824 200.998,195.350 201.856 C 194.875 202.714,194.134 203.881,193.702 204.449 C 189.342 210.179,188.787 210.843,187.536 211.821 C 186.024 213.004,184.151 214.711,182.268 216.623 C 180.993 217.918,180.038 218.665,177.790 220.126 C 177.262 220.469,175.874 221.451,174.706 222.309 C 173.539 223.166,172.026 224.174,171.345 224.549 C 170.663 224.924,169.872 225.435,169.586 225.686 C 169.024 226.180,165.192 228.500,164.939 228.500 C 164.854 228.500,163.614 229.056,162.184 229.735 C 159.542 230.990,158.282 231.367,156.000 231.584 C 155.404 231.640,154.017 231.861,152.917 232.075 C 149.027 232.828,147.875 233.000,146.704 233.000 C 146.052 233.000,144.184 233.182,142.551 233.404 C 136.477 234.231,128.211 234.469,124.917 233.912 C 124.092 233.772,122.367 233.589,121.083 233.505 C 119.800 233.421,117.775 233.169,116.583 232.944 C 115.392 232.720,113.522 232.447,112.429 232.337 C 111.336 232.228,109.873 231.993,109.179 231.815 C 108.485 231.638,106.979 231.301,105.833 231.067 C 104.688 230.834,103.150 230.466,102.417 230.250 C 98.448 229.082,96.270 228.438,95.000 228.058 C 92.351 227.265,89.546 226.176,86.979 224.942 C 85.570 224.265,83.759 223.404,82.956 223.029 C 79.650 221.485,76.672 219.292,74.860 217.069 C 73.807 215.777,73.262 215.351,70.320 213.525 C 67.169 211.568,66.289 210.937,65.175 209.833 C 64.319 208.985,63.724 208.281,60.114 203.849 C 57.130 200.185,55.892 198.360,54.167 195.083 C 53.588 193.983,52.803 192.633,52.423 192.083 C 49.829 188.329,48.726 185.972,46.882 180.250 C 45.315 175.384,44.999 174.123,44.836 172.083 C 44.719 170.622,44.551 169.850,44.009 168.279 C 43.047 165.494,42.842 163.789,43.083 160.583 C 43.154 159.644,43.126 157.427,43.020 155.500 C 42.863 152.665,42.873 151.629,43.080 149.417 C 43.779 141.927,43.947 140.635,44.821 136.000 C 45.606 131.836,45.938 130.646,46.846 128.728 C 47.747 126.825,48.477 124.863,48.922 123.145 C 49.335 121.554,50.438 118.917,51.313 117.432 C 52.071 116.145,53.639 113.016,54.870 110.333 C 55.502 108.957,57.586 105.833,58.721 104.562 C 59.120 104.115,60.059 102.832,60.808 101.710 C 61.557 100.589,62.601 99.164,63.127 98.544 C 63.653 97.924,64.623 96.704,65.282 95.833 C 67.445 92.977,71.381 89.146,73.847 87.496 C 74.710 86.918,75.829 86.124,76.333 85.731 C 77.930 84.488,78.901 84.241,79.871 84.833 C 81.017 85.532,81.884 84.998,82.586 83.159 C 83.199 81.555,84.260 80.828,87.781 79.603 C 88.681 79.290,90.017 78.808,90.750 78.532 C 93.892 77.348,98.516 76.006,101.500 75.411 C 102.279 75.256,103.667 74.874,104.583 74.562 C 109.969 72.732,116.300 71.500,120.323 71.500 C 121.695 71.500,123.196 71.419,123.660 71.319 C 125.761 70.869,133.411 70.782,135.310 71.188 M220.439 84.587 C 222.355 84.849,222.669 87.083,222.757 101.083 C 222.838 113.949,223.063 121.280,223.580 127.917 C 224.412 138.587,224.650 145.443,224.169 144.884 C 223.941 144.618,222.764 138.090,222.418 135.167 C 222.358 134.662,222.123 133.537,221.895 132.667 C 221.668 131.796,221.368 130.491,221.230 129.767 C 221.091 129.043,220.696 127.731,220.351 126.851 C 220.006 125.970,219.594 124.899,219.435 124.469 C 219.277 124.040,218.841 123.215,218.466 122.636 C 218.091 122.057,216.830 119.694,215.664 117.384 C 214.498 115.074,212.983 112.337,212.297 111.300 C 211.611 110.264,210.617 108.704,210.087 107.833 C 207.728 103.957,205.636 101.210,202.083 97.323 C 198.669 93.587,198.087 92.857,196.043 89.750 C 195.620 89.108,194.688 87.926,193.971 87.122 C 191.946 84.853,191.033 85.110,202.917 84.607 C 207.368 84.419,219.108 84.405,220.439 84.587 M329.083 186.665 C 328.258 186.840,326.758 187.143,325.750 187.338 C 324.742 187.533,323.167 187.944,322.250 188.251 C 321.333 188.559,319.946 188.971,319.167 189.167 C 318.202 189.410,317.271 189.803,316.250 190.400 C 315.425 190.882,314.196 191.599,313.520 191.992 C 311.510 193.161,309.075 195.309,307.276 197.500 C 306.712 198.188,305.448 199.606,304.468 200.651 C 302.115 203.161,301.862 203.670,300.724 208.197 L 299.789 211.917 300.133 214.250 C 301.177 221.336,306.300 226.094,313.500 226.664 C 314.462 226.741,315.587 226.935,316.000 227.096 C 316.593 227.327,317.185 227.382,318.833 227.356 C 319.979 227.339,322.202 227.413,323.773 227.521 L 326.629 227.718 328.025 227.282 C 330.195 226.606,332.170 226.169,333.083 226.165 C 333.571 226.162,334.500 225.954,335.325 225.663 C 337.990 224.724,337.913 224.584,337.927 230.417 C 337.933 232.892,338.025 235.629,338.132 236.500 C 338.366 238.414,338.454 244.987,338.309 249.667 C 338.247 251.667,338.272 253.601,338.370 254.333 C 338.462 255.021,338.560 257.496,338.589 259.833 C 338.618 262.171,338.721 264.758,338.819 265.583 C 339.078 267.775,339.232 271.349,339.098 272.063 C 338.930 272.961,338.669 273.012,333.417 273.178 C 327.052 273.379,324.305 273.591,322.949 273.985 C 322.325 274.167,321.200 274.437,320.449 274.586 C 317.711 275.128,313.405 276.461,311.833 277.252 C 311.421 277.460,310.108 277.971,308.917 278.388 C 301.982 280.815,296.431 284.681,294.554 288.392 C 294.316 288.864,293.831 289.677,293.477 290.199 C 291.258 293.472,292.520 300.715,295.646 302.638 C 296.087 302.910,296.922 303.554,297.501 304.071 C 299.936 306.244,307.284 308.487,312.032 308.507 C 312.977 308.511,314.087 308.590,314.500 308.683 C 315.391 308.883,319.156 309.111,325.000 309.318 C 329.117 309.464,330.237 309.430,336.142 308.978 C 337.580 308.869,339.697 308.828,340.977 308.887 C 344.535 309.048,346.949 308.444,348.133 307.097 C 348.636 306.524,348.705 306.305,348.922 304.611 C 348.978 304.168,349.132 303.502,349.262 303.132 C 349.541 302.343,349.570 301.154,349.331 300.332 C 349.238 300.012,349.121 299.075,349.072 298.250 C 349.023 297.425,348.908 296.300,348.817 295.750 C 348.726 295.200,348.625 292.987,348.593 290.833 C 348.561 288.679,348.445 286.098,348.336 285.097 C 348.185 283.724,348.182 282.963,348.325 281.991 C 348.517 280.674,348.450 278.192,348.157 275.750 C 348.013 274.560,347.789 266.872,347.781 262.917 C 347.778 261.144,347.991 248.186,348.102 243.417 C 348.145 241.583,348.173 239.783,348.164 239.417 C 348.155 239.050,348.152 237.400,348.157 235.750 C 348.163 233.716,348.080 232.240,347.898 231.167 C 347.498 228.814,347.477 220.813,347.866 218.750 C 348.021 217.925,348.230 216.688,348.331 216.000 C 348.431 215.313,348.773 213.945,349.090 212.961 C 350.381 208.957,350.591 203.338,349.670 197.474 C 349.207 194.523,347.467 191.742,344.667 189.478 C 342.811 187.978,342.104 187.710,339.000 187.335 C 338.129 187.229,336.554 186.996,335.500 186.816 C 332.639 186.328,330.867 186.286,329.083 186.665 M334.966 187.908 C 335.581 188.036,337.203 188.305,338.571 188.505 C 342.280 189.048,342.908 189.354,345.266 191.767 C 347.719 194.278,348.386 196.035,348.768 200.993 C 349.152 205.988,348.899 209.553,347.996 211.843 C 347.679 212.647,347.332 214.365,346.652 218.500 C 346.194 221.285,346.150 225.268,346.467 235.250 C 346.651 241.054,346.643 251.319,346.446 263.167 C 346.405 265.633,346.698 275.196,346.846 276.258 C 346.948 276.987,347.060 279.758,347.094 282.417 C 347.214 291.736,347.315 294.765,347.567 296.500 C 348.259 301.282,348.303 302.177,347.895 303.158 C 347.763 303.474,347.588 304.211,347.505 304.796 C 347.162 307.222,346.092 307.647,340.083 307.742 C 338.158 307.773,335.365 307.889,333.876 308.001 C 329.745 308.312,316.798 307.983,314.667 307.513 C 314.254 307.422,313.119 307.345,312.143 307.341 C 307.962 307.323,300.705 305.111,298.407 303.152 C 297.862 302.688,296.985 302.002,296.458 301.629 C 294.182 300.019,292.863 295.153,293.903 292.206 C 295.715 287.070,301.793 281.995,308.917 279.669 C 309.558 279.459,311.246 278.817,312.667 278.241 C 319.335 275.537,324.397 274.609,333.917 274.347 C 339.278 274.199,339.729 274.134,340.164 273.446 C 340.575 272.798,340.577 269.739,340.171 266.247 C 339.922 264.113,339.818 262.378,339.851 260.917 C 339.878 259.725,339.802 257.287,339.681 255.500 C 339.531 253.267,339.496 250.660,339.568 247.167 C 339.632 244.094,339.601 240.897,339.491 239.083 C 339.391 237.433,339.258 233.520,339.196 230.387 C 339.088 224.929,339.069 224.671,338.729 224.220 C 338.214 223.536,337.024 223.572,335.337 224.324 C 334.495 224.699,333.657 224.927,332.756 225.028 C 331.152 225.208,329.723 225.523,327.863 226.110 C 326.478 226.546,326.470 226.547,323.863 226.356 C 322.426 226.252,320.341 226.166,319.229 226.166 C 317.768 226.167,317.007 226.091,316.479 225.895 C 316.078 225.745,314.887 225.565,313.833 225.495 C 311.758 225.358,308.812 224.472,307.463 223.579 C 301.860 219.871,300.192 215.189,301.930 208.051 C 302.845 204.296,303.109 203.765,305.124 201.628 C 305.971 200.729,307.236 199.301,307.935 198.455 C 310.783 195.004,316.008 191.284,319.167 190.457 C 319.671 190.324,320.908 189.915,321.917 189.546 C 322.952 189.168,324.802 188.676,326.167 188.417 C 327.496 188.164,329.071 187.856,329.667 187.731 C 330.913 187.471,333.248 187.549,334.966 187.908 M32.495 188.089 C 31.981 188.709,32.521 190.235,33.219 190.135 C 33.752 190.059,33.839 188.672,33.342 188.175 C 32.933 187.766,32.776 187.750,32.495 188.089 M328.250 192.712 C 326.698 192.965,322.163 194.168,321.387 194.532 C 319.294 195.514,317.471 198.870,316.153 204.167 C 315.127 208.291,319.230 215.806,323.417 217.473 C 327.914 219.263,332.389 219.426,335.980 217.929 C 336.495 217.714,337.309 217.456,337.788 217.355 C 340.694 216.743,343.365 213.716,344.565 209.675 C 345.050 208.044,344.795 201.885,344.169 200.083 C 343.978 199.533,343.706 198.639,343.566 198.097 C 342.696 194.746,340.538 193.033,336.731 192.672 C 334.534 192.464,329.628 192.487,328.250 192.712 M336.506 193.900 C 340.351 194.310,341.522 195.215,342.401 198.454 C 342.619 199.259,342.881 200.128,342.983 200.387 C 343.173 200.871,343.435 203.329,343.607 206.250 C 343.715 208.081,343.511 209.564,343.023 210.496 C 340.735 214.866,339.856 215.746,337.295 216.236 C 336.595 216.370,335.795 216.598,335.516 216.742 C 331.421 218.859,324.036 217.559,321.100 214.203 C 316.896 209.399,316.308 204.944,319.112 199.134 C 320.750 195.740,321.883 195.109,328.583 193.861 C 329.839 193.627,334.147 193.649,336.506 193.900 M332.083 278.513 C 324.136 278.789,319.932 279.629,314.820 281.960 C 309.492 284.391,308.926 290.898,313.624 295.699 C 315.989 298.115,320.999 300.241,325.919 300.915 C 326.376 300.978,327.312 301.181,327.999 301.368 C 331.977 302.448,339.195 300.949,340.143 298.847 C 340.483 298.093,340.636 288.624,340.344 286.427 C 340.216 285.462,340.213 284.355,340.335 282.639 C 340.662 278.038,340.994 278.204,332.083 278.513 M338.870 280.004 C 339.169 280.373,339.193 280.645,339.159 283.245 C 339.138 284.806,339.155 288.483,339.195 291.417 C 339.293 298.443,339.198 298.917,337.593 299.359 C 337.221 299.461,336.332 299.722,335.616 299.939 C 333.219 300.666,329.154 300.488,324.833 299.469 C 324.054 299.285,322.952 299.034,322.384 298.911 C 321.439 298.707,318.141 297.407,316.624 296.642 C 314.252 295.444,311.833 291.669,311.698 288.954 C 311.569 286.346,313.164 284.010,315.833 282.902 C 320.006 281.168,322.790 280.438,326.250 280.167 C 327.350 280.082,329.112 279.930,330.167 279.831 C 331.221 279.732,332.796 279.693,333.667 279.744 C 334.537 279.795,335.512 279.764,335.833 279.677 C 336.926 279.378,338.500 279.547,338.870 280.004 " stroke="none" fill="#ffffff" fill-rule="evenodd"></path></g></svg>
