<svg viewBox="0 0 174 28" xmlns="http://www.w3.org/2000/svg"><g fill-rule="nonzero" fill="none"><path d="M20.63 7.633l1.028.02 2.79-2.835.136-1.2C22.366 1.613 19.449.393 16.255.393c-5.783 0-10.663 3.996-12.11 9.411.306-.214.956-.054.956-.054l5.577-.93s.289-.483.431-.453a6.906 6.906 0 0 1 5.146-2.31 6.87 6.87 0 0 1 4.376 1.575" fill="#EA4335"/><path d="M28.366 9.813a12.795 12.795 0 0 0-3.785-6.198l-3.953 4.016a7.112 7.112 0 0 1 2.598 5.509v.708c1.922 0 3.485 1.588 3.485 3.54 0 1.953-1.563 3.54-3.486 3.54h-6.97l-.698.713v4.248l.698.705h6.971c4.997 0 9.062-4.13 9.062-9.206a9.242 9.242 0 0 0-3.922-7.575" fill="#4285F4"/><path d="M9.284 26.594h6.965v-5.665H9.285c-.513 0-.998-.116-1.436-.318l-1.005.312-2.792 2.836-.245.957a8.923 8.923 0 0 0 5.477 1.878" fill="#34A853"/><path d="M9.284 8.183c-4.997 0-9.062 4.13-9.062 9.205a9.244 9.244 0 0 0 3.59 7.331l4.041-4.106A3.546 3.546 0 0 1 5.8 17.388c0-1.952 1.563-3.54 3.485-3.54 1.412 0 2.628.858 3.175 2.087l4.042-4.106c-1.656-2.214-4.275-3.646-7.217-3.646" fill="#FBBC05"/><g fill="#5F6368"><path d="M104.952 16.55l5.203-2.194c-.147-.373-.42-.675-.816-.907a2.623 2.623 0 0 0-1.345-.348c-.75 0-1.451.314-2.105.941-.654.627-.967 1.463-.937 2.508zm3.24 6.091c-1.645 0-3.02-.567-4.122-1.702-1.102-1.134-1.653-2.538-1.653-4.21 0-1.731.532-3.15 1.598-4.254 1.066-1.105 2.362-1.657 3.891-1.657.706 0 1.36.13 1.962.391.603.262 1.102.598 1.499 1.008.397.411.713.81.948 1.198.235.389.426.776.573 1.165l.265.672-7.782 3.269c.602 1.194 1.543 1.791 2.822 1.791 1.175 0 2.13-.545 2.865-1.635l1.985 1.344c-.442.672-1.066 1.276-1.874 1.814-.809.537-1.8.806-2.976.806zm-9.567-.358h2.558V4.906h-2.558v17.377zm-7.12-1.97c.882 0 1.62-.34 2.215-1.02.595-.679.893-1.526.893-2.541 0-1.03-.298-1.889-.893-2.575-.595-.687-1.333-1.03-2.215-1.03-.897 0-1.661.343-2.293 1.03-.632.686-.948 1.545-.948 2.575 0 1.015.316 1.862.948 2.541.632.68 1.396 1.02 2.293 1.02zm-.177 7.635c-1.293 0-2.38-.35-3.262-1.052-.882-.702-1.514-1.516-1.896-2.441l2.227-.94c.234.567.602 1.06 1.102 1.477.5.418 1.11.627 1.83.627.97 0 1.73-.299 2.281-.895.551-.598.827-1.456.827-2.576v-.85h-.088c-.72.895-1.742 1.343-3.065 1.343-1.484 0-2.785-.574-3.902-1.725-1.117-1.149-1.675-2.537-1.675-4.164 0-1.642.558-3.042 1.675-4.2 1.117-1.156 2.418-1.734 3.902-1.734.662 0 1.26.127 1.797.38.536.254.959.568 1.268.94h.088v-.962h2.425V21.79c0 2.06-.519 3.601-1.555 4.624-1.036 1.023-2.362 1.534-3.979 1.534zm-14.836-8.655c.647.68 1.418 1.02 2.315 1.02.896 0 1.668-.34 2.315-1.02.646-.679.97-1.534.97-2.564 0-1.045-.32-1.903-.96-2.575-.638-.672-1.414-1.007-2.325-1.007-.911 0-1.686.335-2.326 1.007-.639.672-.959 1.53-.959 2.575 0 1.03.323 1.885.97 2.564zm6.46 1.657c-1.132 1.128-2.514 1.691-4.145 1.691-1.631 0-3.013-.563-4.144-1.69-1.132-1.128-1.698-2.535-1.698-4.222 0-1.686.566-3.093 1.698-4.221 1.131-1.127 2.513-1.69 4.144-1.69 1.631 0 3.013.563 4.144 1.69 1.132 1.128 1.698 2.535 1.698 4.221 0 1.687-.566 3.094-1.698 4.221zM63.75 19.293c.646.68 1.418 1.02 2.314 1.02.896 0 1.668-.34 2.315-1.02.646-.679.97-1.534.97-2.564 0-1.045-.32-1.903-.959-2.575-.64-.672-1.415-1.007-2.326-1.007s-1.686.335-2.326 1.007c-.639.672-.958 1.53-.958 2.575 0 1.03.323 1.885.97 2.564zm6.459 1.657c-1.132 1.128-2.513 1.691-4.145 1.691-1.631 0-3.013-.563-4.144-1.69-1.132-1.128-1.697-2.535-1.697-4.222 0-1.686.565-3.093 1.697-4.221 1.131-1.127 2.513-1.69 4.144-1.69 1.632 0 3.013.563 4.145 1.69 1.131 1.128 1.697 2.535 1.697 4.221 0 1.687-.566 3.094-1.697 4.221zm-19.311 1.691c-2.499 0-4.652-.9-6.46-2.698-1.807-1.799-2.711-3.96-2.711-6.483 0-2.523.904-4.684 2.711-6.483 1.808-1.798 3.961-2.698 6.46-2.698 2.395 0 4.46.843 6.194 2.53l-1.741 1.77c-1.25-1.195-2.734-1.792-4.453-1.792-1.808 0-3.34.649-4.597 1.948-1.256 1.299-1.885 2.874-1.885 4.725 0 1.851.629 3.426 1.885 4.725 1.257 1.299 2.789 1.948 4.597 1.948 1.836 0 3.357-.612 4.563-1.836.72-.731 1.168-1.784 1.344-3.158H50.9v-2.508h8.31c.088.448.133.97.133 1.568 0 2.463-.713 4.419-2.139 5.867-1.616 1.717-3.718 2.575-6.304 2.575zM126.578 22.641c-2.322 0-4.27-.798-5.842-2.396-1.573-1.597-2.359-3.59-2.359-5.98 0-2.387.786-4.38 2.359-5.978 1.572-1.597 3.52-2.396 5.842-2.396 2.38 0 4.313.873 5.798 2.62l-1.411 1.388c-1.073-1.358-2.535-2.037-4.387-2.037-1.72 0-3.171.59-4.354 1.769-1.183 1.18-1.775 2.724-1.775 4.635 0 1.911.592 3.456 1.775 4.636 1.183 1.179 2.634 1.769 4.354 1.769 1.896 0 3.512-.777 4.85-2.33l1.41 1.434c-.72.88-1.624 1.579-2.711 2.093-1.088.516-2.27.773-3.55.773M134.646 22.283h2.028V6.249h-2.028zM141.49 19.674c.699.724 1.525 1.086 2.48 1.086.956 0 1.783-.362 2.481-1.086.698-.724 1.047-1.683 1.047-2.877 0-1.195-.35-2.154-1.047-2.878-.698-.724-1.525-1.086-2.48-1.086-.956 0-1.782.362-2.48 1.086-.698.724-1.047 1.683-1.047 2.878 0 1.194.349 2.153 1.047 2.877m-1.51-7.054c1.043-1.112 2.373-1.668 3.99-1.668s2.946.556 3.99 1.668c1.043 1.113 1.565 2.505 1.565 4.177 0 1.672-.522 3.064-1.565 4.176-1.044 1.112-2.373 1.668-3.99 1.668s-2.947-.556-3.99-1.668c-1.044-1.112-1.565-2.504-1.565-4.176 0-1.672.521-3.064 1.565-4.177M160.747 22.283h-1.94V20.76h-.088c-.309.523-.78.967-1.41 1.332-.633.366-1.302.55-2.007.55-1.352 0-2.377-.419-3.075-1.255-.698-.836-1.047-1.956-1.047-3.359V11.31h2.028v6.382c0 2.046.889 3.068 2.667 3.068.838 0 1.521-.343 2.05-1.03.53-.686.794-1.478.794-2.373V11.31h2.028v10.973zM167.956 20.76c.955 0 1.767-.358 2.436-1.075.668-.716 1.003-1.68 1.003-2.888 0-1.21-.335-2.173-1.003-2.89-.67-.716-1.481-1.074-2.436-1.074-.94 0-1.75.362-2.425 1.086-.676.724-1.014 1.683-1.014 2.878 0 1.194.338 2.153 1.014 2.877.676.724 1.484 1.086 2.425 1.086m-.33 1.881c-1.397 0-2.602-.56-3.616-1.68-1.014-1.119-1.521-2.508-1.521-4.164 0-1.658.507-3.046 1.52-4.165 1.015-1.12 2.22-1.68 3.616-1.68.823 0 1.561.179 2.216.537.653.358 1.142.806 1.466 1.344h.088l-.088-1.523V6.25h2.028v16.033h-1.94V20.76h-.088c-.324.537-.813.985-1.466 1.344-.655.358-1.393.537-2.216.537"/></g></g></svg>