<svg viewBox="0 0 205 23" xmlns="http://www.w3.org/2000/svg"><g fill="none" fill-rule="evenodd"><path fill="#5F6368" d="M75.998 17.388V2.245h2.363l7.357 11.785h.083l-.083-2.926v-8.86h1.94v15.144h-2.022L77.929 5.032h-.083l.083 2.926v9.43z"/><path d="M95.062 17.728a4.974 4.974 0 0 1-3.817-1.564 5.521 5.521 0 0 1-1.471-3.956 5.724 5.724 0 0 1 1.425-3.928 4.643 4.643 0 0 1 3.679-1.628 4.763 4.763 0 0 1 3.678 1.5 5.669 5.669 0 0 1 1.389 4.02v.358h-8.194c.01.931.387 1.82 1.048 2.475.6.593 1.41.924 2.254.92a2.759 2.759 0 0 0 2.832-1.775l1.738.717a4.655 4.655 0 0 1-1.674 2.024c-.85.578-1.86.872-2.887.837zm2.759-6.77a2.76 2.76 0 0 0-.81-1.694 2.933 2.933 0 0 0-2.234-.8 2.758 2.758 0 0 0-1.84.672 3.496 3.496 0 0 0-1.094 1.84l5.978-.019z" fill="#5F6368" fill-rule="nonzero"/><path fill="#5F6368" d="M112.663 17.388h-1.995l-2.575-7.949-2.557 7.949h-1.968l-3.329-10.36h2.033l2.308 7.82 2.556-7.82h2.014l2.557 7.82 2.29-7.82h1.986zM120.885 17.728a4.597 4.597 0 0 1-2.87-.846 5.05 5.05 0 0 1-1.664-2.116l1.738-.718a2.878 2.878 0 0 0 2.814 1.95 2.565 2.565 0 0 0 1.49-.404c.364-.228.584-.628.58-1.058 0-.68-.47-1.132-1.417-1.37l-2.087-.516a4.892 4.892 0 0 1-1.84-.92 2.328 2.328 0 0 1-.92-1.923 2.604 2.604 0 0 1 1.224-2.226 5.24 5.24 0 0 1 5.334-.24 3.597 3.597 0 0 1 1.545 1.795l-1.692.699a2.29 2.29 0 0 0-2.364-1.38 2.758 2.758 0 0 0-1.462.359c-.364.19-.594.564-.598.975 0 .598.46.993 1.38 1.205l2.05.488a3.908 3.908 0 0 1 2.161 1.168c.446.51.694 1.163.7 1.84a2.88 2.88 0 0 1-1.15 2.328 4.496 4.496 0 0 1-2.952.91zM131.644 17.388V2.245h1.95v15.143zM138.119 7.029v1.435h.082c.322-.534.783-.97 1.334-1.26.589-.343 1.26-.52 1.94-.516a3.678 3.678 0 0 1 2.943 1.187 4.656 4.656 0 0 1 1.012 3.165v6.348h-1.968v-6.044c0-1.923-.856-2.88-2.566-2.88-.77-.014-1.5.346-1.959.966a3.423 3.423 0 0 0-.763 2.226v5.732h-1.95V7.028h1.895z"/><path d="M149.568 4.425a1.379 1.379 0 0 1-2.345-.975c-.01-.368.137-.723.405-.975a1.379 1.379 0 0 1 2.345.975c.003.367-.143.719-.405.975zm0 12.963h-1.94V7.028h1.94v10.36z" fill="#5F6368" fill-rule="nonzero"/><path d="M156.18 17.563a3.006 3.006 0 0 1-3.338-3.321V8.804h-1.84V7.03h1.84V3.846h1.94v3.183h2.538v1.775h-2.538v5.29c0 1.123.47 1.693 1.398 1.693.316.014.631-.046.92-.175l.671 1.675a3.935 3.935 0 0 1-1.59.276z" fill="#5F6368"/><path d="M161.017 4.425a1.379 1.379 0 1 1 0-1.95c.262.256.405.61.396.975.007.366-.136.718-.396.975zm0 12.963h-1.922V7.028h1.95l-.028 10.36zM166.544 17.728a4.1 4.1 0 0 1-2.759-.92 3.165 3.165 0 0 1-1.103-2.52 3.11 3.11 0 0 1 1.306-2.66 5.36 5.36 0 0 1 3.237-.92 5.59 5.59 0 0 1 2.814.636v-.295c.03-.7-.258-1.375-.782-1.84a2.823 2.823 0 0 0-1.931-.69 2.896 2.896 0 0 0-1.527.405c-.424.247-.75.634-.92 1.095l-1.802-.819a4.057 4.057 0 0 1 1.417-1.72 4.523 4.523 0 0 1 2.758-.792 4.808 4.808 0 0 1 3.302 1.16c.9.846 1.38 2.05 1.306 3.284v6.256h-1.84v-1.435h-.082a3.825 3.825 0 0 1-3.394 1.775zm.322-1.775a3.135 3.135 0 0 0 2.189-.92 2.76 2.76 0 0 0 .984-2.125 3.852 3.852 0 0 0-2.474-.672 3.273 3.273 0 0 0-2.143.607 1.84 1.84 0 0 0-.717 1.445c-.01.49.243.95.662 1.205.441.303.964.464 1.5.46z" fill="#5F6368" fill-rule="nonzero"/><path d="M178.16 17.563a3.006 3.006 0 0 1-3.34-3.321V8.804h-1.838V7.03h1.839V3.846h1.94v3.183h2.566v1.775h-2.538v5.29c0 1.123.469 1.693 1.398 1.693.316.015.63-.045.92-.175l.67 1.675a3.935 3.935 0 0 1-1.618.276z" fill="#5F6368"/><path d="M183.006 4.425a1.37 1.37 0 0 1-2.345-.975c-.01-.366.133-.72.395-.975a1.379 1.379 0 0 1 1.95 0c.264.255.41.608.404.975.004.367-.142.719-.404.975zm0 12.963h-1.95V7.028h1.95v10.36z" fill="#5F6368" fill-rule="nonzero"/><path fill="#5F6368" d="M188.422 17.388l-4.184-10.36h2.115l3.09 8.032 3.08-8.031h2.08l-4.24 10.359z"/><path d="M200.046 17.728a4.974 4.974 0 0 1-3.816-1.564 5.521 5.521 0 0 1-1.472-3.956 5.724 5.724 0 0 1 1.426-3.928 4.643 4.643 0 0 1 3.678-1.628 4.763 4.763 0 0 1 3.679 1.5 5.669 5.669 0 0 1 1.388 4.02v.358h-8.184c-.02.934.33 1.836.975 2.512.6.593 1.41.924 2.253.92a2.759 2.759 0 0 0 2.841-1.776l1.73.718a4.692 4.692 0 0 1-1.665 2.024 4.873 4.873 0 0 1-2.833.8zm2.76-6.77a2.834 2.834 0 0 0-.82-1.694 2.905 2.905 0 0 0-2.234-.8 2.758 2.758 0 0 0-1.84.672 3.496 3.496 0 0 0-1.094 1.84l5.987-.019z" fill="#5F6368" fill-rule="nonzero"/><path d="M9.288 17.728c-4.733 0-8.57-3.838-8.57-8.574S4.554.58 9.287.58a8.165 8.165 0 0 1 5.867 2.364L13.51 4.6a5.94 5.94 0 0 0-4.22-1.674 6.236 6.236 0 0 0-5.996 6.233 6.236 6.236 0 0 0 5.995 6.233c1.62.065 3.19-.56 4.322-1.72a4.868 4.868 0 0 0 1.279-2.945h-5.6V8.381h7.871c.094.482.137.972.129 1.463a7.748 7.748 0 0 1-2.023 5.52 7.852 7.852 0 0 1-5.978 2.364z" fill="#4285F4"/><path d="M29.474 12.208a5.436 5.436 0 0 1-10.87-.11 5.436 5.436 0 0 1 5.435-5.41 5.397 5.397 0 0 1 5.435 5.52zm-2.382 0a3.073 3.073 0 0 0-4.677-2.902 3.073 3.073 0 0 0-1.438 2.902 3.073 3.073 0 0 0 4.676 2.903 3.073 3.073 0 0 0 1.44-2.903z" fill="#EA4335" fill-rule="nonzero"/><path d="M41.668 12.208a5.445 5.445 0 0 1-10.888-.104c.017-2.999 2.455-5.42 5.453-5.416a5.397 5.397 0 0 1 5.435 5.52zm-2.382 0a3.073 3.073 0 0 0-4.676-2.902 3.073 3.073 0 0 0-1.44 2.902 3.073 3.073 0 0 0 4.678 2.903 3.073 3.073 0 0 0 1.438-2.903z" fill="#FBBC04" fill-rule="nonzero"/><path d="M53.559 7.02v9.917c0 4.076-2.41 5.75-5.251 5.75a5.27 5.27 0 0 1-4.892-3.266l2.115-.92a3.062 3.062 0 0 0 2.759 1.96c1.839 0 2.952-1.123 2.952-3.239v-.79h-.092a3.76 3.76 0 0 1-2.897 1.25 5.519 5.519 0 0 1-5.518-5.52c0-3.048 2.47-5.52 5.518-5.52a3.816 3.816 0 0 1 2.897 1.233h.092v-.92l2.317.065zm-2.134 5.207a3.12 3.12 0 0 0-2.952-3.367 3.2 3.2 0 0 0-3.071 3.367 3.175 3.175 0 0 0 3.071 3.33 3.09 3.09 0 0 0 2.952-3.33z" fill="#4285F4" fill-rule="nonzero"/><path fill="#34A853" d="M57.808 1.168v16.23H55.38V1.167z"/><path d="M67.335 14.03l1.84 1.251a5.517 5.517 0 0 1-4.599 2.447 5.333 5.333 0 0 1-5.398-5.52c0-3.284 2.28-5.52 5.122-5.52a5.141 5.141 0 0 1 4.727 3.515l.248.625-7.357 3.055a2.814 2.814 0 0 0 2.677 1.674 3.145 3.145 0 0 0 2.74-1.527zm-5.784-1.987L66.48 9.99a2.143 2.143 0 0 0-2.051-1.168 3.016 3.016 0 0 0-2.878 3.22z" fill="#EA4335" fill-rule="nonzero"/></g></svg>