<svg viewBox="0 0 22 19" xmlns="http://www.w3.org/2000/svg" xmlns:xlink="http://www.w3.org/1999/xlink"><defs><path id="a" d="M0 .037h22v12H0z"/><path d="M1 .037c-.55 0-1 .45-1 1 0 .09.01.18.04.27l2.54 9.27a1.99 1.99 0 0 0 1.92 1.459h13c.919 0 1.69-.62 1.93-1.459l2.54-9.27.03-.27c0-.55-.45-1-1-1H1z" id="c"/><path d="M6 .057c-.32 0-.64.14-.83.429L.79 7.037H3.2L6 2.836l2.8 4.201h2.41L6.83.477A.991.991 0 0 0 6 .057z" id="e"/><path d="M6 .057c-.32 0-.64.14-.83.429L.79 7.037H3.2L6 2.836l2.8 4.201h2.41L6.83.477A.991.991 0 0 0 6 .057z" id="g"/><path id="i" d="M7.001 6.083L4.258 3.34.393 7.208l2.828 2.828h7.927l3.97-3.97.651-2.375L12.637.585z"/><linearGradient x1="75.314%" y1="65.688%" x2="50%" y2="38.578%" id="j"><stop stop-opacity="0" offset="0%"/><stop stop-opacity=".3" offset="100%"/></linearGradient></defs><g fill="none" fill-rule="evenodd"><g transform="translate(0 6.943)"><mask id="b" fill="#fff"><use xlink:href="#a"/></mask><path d="M1 .037c-.55 0-1 .45-1 1 0 .09.01.18.04.27l2.54 9.27c.23.84 1 1.46 1.92 1.46h13c.92 0 1.69-.62 1.93-1.46l2.54-9.27.03-.27c0-.55-.45-1-1-1H1z" fill="#D01F1A" mask="url(#b)"/></g><g transform="translate(0 6.943)"><mask id="d" fill="#fff"><use xlink:href="#c"/></mask><path fill="#B70505" mask="url(#d)" d="M.212.037L11 0v12.037H.212z"/></g><path d="M8.2 6.98l2.8-4.2 2.8 4.2h2.41L11.83.42A.992.992 0 0 0 11 0c-.32 0-.64.14-.83.43L5.79 6.98H8.2z" fill="#959CA5"/><g transform="translate(5 -.057)"><mask id="f" fill="#fff"><use xlink:href="#e"/></mask><path fill="#676C72" mask="url(#f)" d="M6 7.037h5.21V.058H6z"/></g><g transform="translate(5 -.057)"><mask id="h" fill="#fff"><use xlink:href="#g"/></mask><path fill-opacity=".2" fill="#000" mask="url(#h)" d="M11.21 6.733L.79 6.178v.859h10.42z"/></g><g transform="translate(5 8.943)"><mask id="k" fill="#fff"><use xlink:href="#i"/></mask><path fill="url(#j)" mask="url(#k)" d="M7.001 6.083L4.258 3.34.393 7.208l2.828 2.828h7.927l3.97-3.97.651-2.375L12.637.585z"/></g><path fill="#FFF" d="M8.608 10.826l3.282 3.283 2.702-2.702-1.879-1.88h4.924v4.925l-1.879-1.88-3.868 3.86-3.282-3.283-3.089 3.088-1.157-1.157z"/></g></svg>