<svg viewBox="0 0 169 169" xmlns="http://www.w3.org/2000/svg" xmlns:xlink="http://www.w3.org/1999/xlink"><defs><path id="a" d="M0 0h100v100H0z"/></defs><g fill="none" fill-rule="evenodd"><circle fill="#FBBC04" cx="84.5" cy="84.5" r="72.5"/><circle stroke="#FBBC04" stroke-width="5" cx="84.5" cy="84.5" r="84.5"/><g transform="translate(34 35)"><mask id="b" fill="#fff"><use xlink:href="#a"/></mask><path d="M56.25 18.75c4.583 0 8.333-3.75 8.333-8.333 0-4.584-3.75-8.334-8.333-8.334s-8.333 3.75-8.333 8.334c0 4.583 3.75 8.333 8.333 8.333zm-15 57.917l3.958-18.334 8.959 8.334v25H62.5V60.208l-8.542-8.541 2.5-12.5C61.875 45.833 70 50 79.167 50v-8.333c-7.709 0-14.375-4.167-18.125-10.209l-3.959-6.666c-1.458-2.5-4.166-3.959-7.083-3.959a8.36 8.36 0 0 0-3.125.625L25 30.417V50h8.333V36.042l7.292-2.917-6.458 33.542-20.417-3.959-1.667 8.125s29.167 5.625 29.167 5.834z" fill="#FFF" fill-rule="nonzero" mask="url(#b)"/></g></g></svg>