<svg viewBox="0 0 48 48" xmlns="http://www.w3.org/2000/svg" xmlns:xlink="http://www.w3.org/1999/xlink"><defs><path id="a" d="M0 0h26.833v26.833H0z"/></defs><g transform="translate(1 1)" fill="none" fill-rule="evenodd"><circle fill="#FBBC04" cx="23" cy="23" r="20.125"/><circle stroke="#FBBC04" stroke-width="1.425" cx="23" cy="23" r="23"/><g transform="translate(9.583 9.583)"><mask id="b" fill="#fff"><use xlink:href="#a"/></mask><path d="M15.094 5.031a2.243 2.243 0 0 0 2.236-2.236A2.243 2.243 0 0 0 15.094.56a2.243 2.243 0 0 0-2.236 2.236 2.243 2.243 0 0 0 2.236 2.236zm-4.025 15.541l1.062-4.92 2.404 2.237v6.708h2.236v-8.441l-2.292-2.292.67-3.354a7.802 7.802 0 0 0 6.094 2.907V11.18c-2.068 0-3.857-1.118-4.863-2.74l-1.063-1.789c-.391-.67-1.118-1.062-1.9-1.062-.28 0-.56.056-.839.168l-5.87 2.404v5.255h2.236V9.67l1.957-.782-1.733 9-5.478-1.062-.448 2.18s7.827 1.51 7.827 1.565z" fill="#FFF" fill-rule="nonzero" mask="url(#b)"/></g></g></svg>