<svg viewBox="0 0 169 169" xmlns="http://www.w3.org/2000/svg"><g fill="none" fill-rule="evenodd"><circle fill="#4285F4" cx="84.5" cy="84.5" r="72.5"/><circle stroke="#4285F4" stroke-width="5" cx="84.5" cy="84.5" r="84.5"/><path d="M34 35h100v100H34z"/><path d="M113.75 88.9c.15-1.25.25-2.55.25-3.9s-.1-2.65-.3-3.9l8.45-6.6c.75-.6.95-1.7.5-2.55l-8-13.85c-.5-.9-1.55-1.2-2.45-.9l-9.95 4c-2.1-1.6-4.3-2.9-6.75-3.9L94 46.7c-.15-1-1-1.7-2-1.7H76c-1 0-1.8.7-1.95 1.7l-1.5 10.6c-2.45 1-4.7 2.35-6.75 3.9l-9.95-4c-.9-.35-1.95 0-2.45.9l-8 13.85c-.5.9-.3 1.95.5 2.55l8.45 6.6c-.2 1.25-.35 2.6-.35 3.9 0 1.3.1 2.65.3 3.9l-8.45 6.6c-.75.6-.95 1.7-.5 2.55l8 13.85c.5.9 1.55 1.2 2.45.9l9.95-4c2.1 1.6 4.3 2.9 6.75 3.9l1.5 10.6c.2 1 1 1.7 2 1.7h16c1 0 1.85-.7 1.95-1.7l1.5-10.6c2.45-1 4.7-2.35 6.75-3.9l9.95 4c.9.35 1.95 0 2.45-.9l8-13.85c.5-.9.3-1.95-.5-2.55l-8.35-6.6zM84 100c-8.25 0-15-6.75-15-15s6.75-15 15-15 15 6.75 15 15-6.75 15-15 15z" fill="#FFF" fill-rule="nonzero"/></g></svg>