<svg viewBox="0 0 48 48" xmlns="http://www.w3.org/2000/svg"><g transform="translate(1 1)" fill="none" fill-rule="evenodd"><circle fill="#4285F4" cx="23" cy="23" r="20.125"/><circle stroke="#4285F4" stroke-width="1.425" cx="23" cy="23" r="23"/><path d="M9.583 9.583h26.834v26.834H9.583z"/><path d="M30.983 24.046c.04-.335.067-.684.067-1.046s-.027-.711-.08-1.047l2.267-1.77a.554.554 0 0 0 .134-.685l-2.147-3.716a.546.546 0 0 0-.657-.242l-2.67 1.074a7.86 7.86 0 0 0-1.811-1.047l-.403-2.844a.536.536 0 0 0-.536-.456h-4.294a.522.522 0 0 0-.523.456l-.402 2.844a8.07 8.07 0 0 0-1.812 1.047l-2.67-1.074a.53.53 0 0 0-.657.242l-2.147 3.716a.52.52 0 0 0 .134.684l2.268 1.771A6.744 6.744 0 0 0 14.95 23c0 .349.027.711.08 1.046l-2.267 1.771a.554.554 0 0 0-.134.685l2.147 3.716a.546.546 0 0 0 .657.242l2.67-1.074a7.86 7.86 0 0 0 1.811 1.047l.403 2.844a.546.546 0 0 0 .536.456h4.294a.513.513 0 0 0 .523-.456l.402-2.844a8.07 8.07 0 0 0 1.812-1.047l2.67 1.074a.53.53 0 0 0 .657-.242l2.147-3.716a.52.52 0 0 0-.135-.685l-2.24-1.77zM23 27.025A4.037 4.037 0 0 1 18.975 23 4.037 4.037 0 0 1 23 18.975 4.037 4.037 0 0 1 27.025 23 4.037 4.037 0 0 1 23 27.025z" fill="#FFF" fill-rule="nonzero"/></g></svg>