<svg viewBox="0 0 48 37" xmlns="http://www.w3.org/2000/svg" xmlns:xlink="http://www.w3.org/1999/xlink"><defs><path id="a" d="M.142.129h9.883v9.773H.142z"/><path id="c" d="M0 .042h25.477V25.59H0z"/></defs><g fill="none" fill-rule="evenodd"><path d="M47.749 5.277c0 2.637-2.082 4.775-4.65 4.775-2.567 0-4.649-2.138-4.649-4.775 0-2.636 2.082-4.774 4.65-4.774 2.567 0 4.649 2.138 4.649 4.774" fill="#70C2B3"/><g transform="translate(37.948)"><mask id="b" fill="#fff"><use xlink:href="#a"/></mask><path d="M5.084.54C2.589.54.559 2.548.559 5.015c0 2.468 2.03 4.475 4.525 4.475 2.495 0 4.525-2.007 4.525-4.475C9.609 2.548 7.579.54 5.084.54m0 9.362C2.36 9.902.142 7.71.142 5.015.142 2.321 2.36.128 5.084.128s4.941 2.193 4.941 4.887c0 2.695-2.217 4.887-4.941 4.887" fill="#004F59" mask="url(#b)"/></g><path d="M42.849 8.293V7.52c-.429-.007-.873-.145-1.132-.337l.178-.512c.266.184.65.329 1.064.329.525 0 .88-.314.88-.75 0-.42-.29-.68-.836-.91-.753-.306-1.22-.658-1.22-1.325 0-.634.438-1.117 1.117-1.232V2.01h.458v.742c.444.016.746.138.962.269l-.186.504a1.742 1.742 0 0 0-.93-.26c-.57 0-.784.352-.784.659 0 .398.273.597.917.872.76.322 1.145.72 1.145 1.4 0 .605-.407 1.17-1.168 1.301v.796h-.465z" fill="#004F59"/><path d="M42.928 7.883h.056v-.57c0-.1.069-.186.162-.203.576-.1.949-.52.949-1.066 0-.543-.273-.873-.97-1.175-.562-.248-.991-.48-.991-1.04 0-.408.294-.847.939-.847.343 0 .606.089.78.172l.04-.108a1.718 1.718 0 0 0-.68-.153c-.104-.004-.187-.095-.187-.205V2.17h-.05v.547a.202.202 0 0 1-.16.203c-.556.096-.9.478-.9.998 0 .481.29.789 1.037 1.1.428.184.917.472.917 1.079 0 .542-.433.935-1.03.935-.31 0-.63-.08-.908-.225l-.038.111c.226.124.545.206.845.212.105.002.19.093.19.205v.548zm.25.41h-.443c-.107 0-.194-.092-.194-.205v-.56c-.377-.04-.753-.171-.994-.354a.211.211 0 0 1-.07-.236l.17-.5a.2.2 0 0 1 .12-.126.186.186 0 0 1 .168.024c.253.18.59.286.906.286.384 0 .643-.211.643-.525 0-.212-.082-.443-.674-.698-.632-.263-1.282-.645-1.282-1.481 0-.67.412-1.191 1.062-1.368v-.586a.2.2 0 0 1 .193-.205h.437a.2.2 0 0 1 .193.205v.532c.306.034.576.124.819.275.081.05.117.156.083.25l-.177.493a.197.197 0 0 1-.115.12.182.182 0 0 1-.161-.015 1.444 1.444 0 0 0-.79-.226c-.407 0-.552.225-.552.436 0 .228.109.377.752.66.563.244 1.21.64 1.21 1.555 0 .693-.44 1.251-1.111 1.435v.609c0 .113-.087.205-.194.205z" fill="#004F59"/><path d="M47.749 18.346c0 2.636-2.082 4.774-4.65 4.774-2.567 0-4.649-2.138-4.649-4.774 0-2.637 2.082-4.775 4.65-4.775 2.567 0 4.649 2.138 4.649 4.775" fill="#70C2B3"/><path d="M43.225 13.984c-2.41 0-4.372 2.013-4.372 4.488 0 2.474 1.961 4.487 4.372 4.487 2.41 0 4.373-2.013 4.373-4.487 0-2.475-1.962-4.488-4.373-4.488m0 9.388c-2.632 0-4.775-2.198-4.775-4.9 0-2.703 2.143-4.901 4.775-4.901 2.632 0 4.775 2.198 4.775 4.9 0 2.703-2.143 4.9-4.775 4.9" fill="#004F59"/><path d="M42.849 21.361v-.773c-.429-.007-.873-.145-1.132-.337l.178-.512c.266.184.65.329 1.064.329.525 0 .88-.314.88-.75 0-.42-.29-.68-.836-.91-.753-.306-1.22-.658-1.22-1.324 0-.635.438-1.118 1.117-1.232v-.773h.458v.741c.444.016.746.139.962.269l-.186.504a1.742 1.742 0 0 0-.93-.26c-.57 0-.784.352-.784.659 0 .398.273.597.917.872.76.322 1.145.72 1.145 1.4 0 .605-.407 1.171-1.168 1.301v.796h-.465z" fill="#004F59"/><path d="M42.928 21.202h.056v-.57c0-.1.069-.186.162-.202.576-.101.949-.52.949-1.067 0-.543-.273-.873-.97-1.174-.562-.248-.991-.481-.991-1.04 0-.409.294-.847.939-.847.343 0 .606.088.78.171l.04-.107a1.718 1.718 0 0 0-.68-.154c-.104-.003-.187-.094-.187-.205v-.518h-.05v.547a.202.202 0 0 1-.16.203c-.556.096-.9.479-.9.998 0 .481.29.79 1.037 1.1.428.184.917.472.917 1.079 0 .543-.433.936-1.03.936-.31 0-.63-.08-.908-.226l-.038.112c.226.124.545.206.845.211.105.002.19.093.19.206v.547zm.25.41h-.443c-.107 0-.194-.091-.194-.205v-.56c-.377-.039-.753-.171-.994-.354a.211.211 0 0 1-.07-.236l.17-.5a.2.2 0 0 1 .12-.126.182.182 0 0 1 .168.025c.253.179.59.285.906.285.384 0 .643-.21.643-.525 0-.212-.082-.442-.674-.698-.632-.262-1.282-.645-1.282-1.48 0-.67.412-1.192 1.062-1.368v-.586a.2.2 0 0 1 .193-.205h.437a.2.2 0 0 1 .193.205v.532c.306.033.576.124.819.275.081.05.117.156.083.25l-.177.493a.197.197 0 0 1-.115.12.188.188 0 0 1-.161-.015 1.444 1.444 0 0 0-.79-.227c-.407 0-.552.226-.552.437 0 .227.109.377.752.66.563.244 1.21.64 1.21 1.554 0 .693-.44 1.251-1.111 1.435v.61c0 .113-.087.205-.194.205z" fill="#004F59"/><path d="M47.749 31.162c0 2.637-2.082 4.775-4.65 4.775-2.567 0-4.649-2.138-4.649-4.775 0-2.637 2.082-4.775 4.65-4.775 2.567 0 4.649 2.138 4.649 4.775" fill="#70C2B3"/><path d="M43.225 26.8c-2.41 0-4.372 2.014-4.372 4.488 0 2.475 1.961 4.488 4.372 4.488 2.41 0 4.373-2.013 4.373-4.488 0-2.474-1.962-4.488-4.373-4.488m0 9.388c-2.632 0-4.775-2.197-4.775-4.9 0-2.702 2.143-4.9 4.775-4.9 2.632 0 4.775 2.198 4.775 4.9 0 2.703-2.143 4.9-4.775 4.9" fill="#004F59"/><path d="M42.849 34.43v-.774c-.429-.007-.873-.145-1.132-.337l.178-.512c.266.184.65.329 1.064.329.525 0 .88-.314.88-.75 0-.42-.29-.68-.836-.91-.753-.306-1.22-.658-1.22-1.324 0-.635.438-1.118 1.117-1.232v-.773h.458v.741c.444.016.746.139.962.27l-.186.503a1.742 1.742 0 0 0-.93-.26c-.57 0-.784.352-.784.659 0 .398.273.597.917.872.76.322 1.145.72 1.145 1.4 0 .605-.407 1.171-1.168 1.302v.795h-.465z" fill="#004F59"/><path d="M42.928 34.27h.056v-.57c0-.1.069-.186.162-.202.576-.101.949-.52.949-1.067 0-.543-.273-.873-.97-1.174-.562-.248-.991-.481-.991-1.04 0-.409.294-.847.939-.847.343 0 .606.088.78.171l.04-.107a1.718 1.718 0 0 0-.68-.154c-.104-.003-.187-.094-.187-.205v-.518h-.05v.548a.202.202 0 0 1-.16.202c-.556.096-.9.479-.9.998 0 .481.29.79 1.037 1.1.428.184.917.472.917 1.079 0 .543-.433.936-1.03.936-.31 0-.63-.08-.908-.226l-.038.112c.226.124.545.206.845.211.105.002.19.093.19.206v.547zm.25.41h-.443c-.107 0-.194-.091-.194-.205v-.56c-.377-.039-.753-.171-.994-.354a.211.211 0 0 1-.07-.236l.17-.5a.2.2 0 0 1 .12-.126.186.186 0 0 1 .168.025c.253.179.59.285.906.285.384 0 .643-.21.643-.525 0-.212-.082-.442-.674-.698-.632-.262-1.282-.645-1.282-1.48 0-.67.412-1.192 1.062-1.368v-.586a.2.2 0 0 1 .193-.205h.437a.2.2 0 0 1 .193.205v.532c.306.033.576.124.819.275.081.05.117.156.083.25l-.177.493a.197.197 0 0 1-.115.12.185.185 0 0 1-.161-.015 1.444 1.444 0 0 0-.79-.227c-.407 0-.552.226-.552.437 0 .227.109.377.752.66.563.244 1.21.64 1.21 1.554 0 .693-.44 1.251-1.111 1.435v.61c0 .113-.087.205-.194.205z" fill="#004F59"/><path d="M25.382 18.22c0 6.87-5.57 12.44-12.44 12.44-6.87 0-12.44-5.57-12.44-12.44 0-6.87 5.57-12.44 12.44-12.44 6.87 0 12.44 5.57 12.44 12.44" fill="#FEFEFE"/><g transform="translate(0 5.78)"><mask id="d" fill="#fff"><use xlink:href="#c"/></mask><path d="M12.739.457C5.942.457.413 6.001.413 12.816c0 6.814 5.529 12.358 12.326 12.358 6.796 0 12.325-5.544 12.325-12.358C25.064 6 19.535.457 12.739.457m0 25.132c-7.025 0-12.74-5.73-12.74-12.773C0 5.772 5.715.042 12.74.042c7.023 0 12.738 5.73 12.738 12.774 0 7.043-5.715 12.773-12.738 12.773" fill="#004F59" mask="url(#d)"/></g><path d="M12.132 25.382v-1.978c-1.17-.02-2.38-.373-3.085-.862l.483-1.313c.726.47 1.774.842 2.905.842 1.43 0 2.398-.803 2.398-1.919 0-1.078-.787-1.744-2.279-2.332-2.056-.783-3.326-1.684-3.326-3.389 0-1.626 1.19-2.86 3.045-3.154V9.298h1.249V11.2c1.21.039 2.037.352 2.622.685l-.505 1.293a4.992 4.992 0 0 0-2.54-.666c-1.553 0-2.136.901-2.136 1.685 0 1.019.745 1.528 2.5 2.234 2.076.822 3.123 1.84 3.123 3.585 0 1.547-1.107 2.997-3.184 3.33v2.037h-1.27z" fill="#004F59"/><path d="M12.483 25.212h.82v-1.837c0-.103.075-.191.176-.208 1.784-.294 2.937-1.526 2.937-3.139 0-1.575-.847-2.562-2.923-3.408-1.708-.706-2.574-1.278-2.574-2.44 0-.948.71-1.904 2.299-1.904 1.066 0 1.819.288 2.372.579l.342-.903c-.667-.357-1.424-.545-2.307-.573a.212.212 0 0 1-.204-.211v-1.7h-.8v1.778a.21.21 0 0 1-.177.208c-1.7.277-2.798 1.44-2.798 2.962 0 1.431.874 2.332 3.117 3.21 1.655.672 2.36 1.43 2.36 2.54 0 1.26-1.05 2.14-2.555 2.14a5.486 5.486 0 0 1-2.728-.74l-.328.919c.68.428 1.764.722 2.764.739a.211.211 0 0 1 .207.21v1.778zm1.03.422h-1.24a.21.21 0 0 1-.211-.211v-1.785c-1.1-.056-2.23-.4-2.927-.899a.21.21 0 0 1-.075-.242l.472-1.32a.21.21 0 0 1 .132-.128.21.21 0 0 1 .183.024 5.02 5.02 0 0 0 2.721.812c1.257 0 2.134-.707 2.134-1.72 0-.922-.607-1.544-2.095-2.147-1.756-.688-3.383-1.601-3.383-3.602 0-1.686 1.162-2.983 2.976-3.346V9.258a.21.21 0 0 1 .21-.21h1.222a.21.21 0 0 1 .21.21v1.709c.937.056 1.743.289 2.458.707a.21.21 0 0 1 .09.257l-.493 1.3a.209.209 0 0 1-.301.108c-.336-.192-1.124-.642-2.378-.642-1.386 0-1.877.8-1.877 1.483 0 .848.518 1.308 2.313 2.05 2.23.909 3.184 2.046 3.184 3.798 0 1.46-.964 3.093-3.114 3.523v1.872c0 .116-.095.21-.21.21zM4.62 23.874a.201.201 0 0 1-.167-.092 10.452 10.452 0 0 1-1.689-5.724c0-3.586 1.763-6.849 4.718-8.728a.197.197 0 0 1 .278.069.215.215 0 0 1-.066.29c-2.833 1.802-4.523 4.93-4.523 8.37 0 1.965.559 3.863 1.618 5.487a.215.215 0 0 1-.054.292.197.197 0 0 1-.114.036M8.348 27.141a.193.193 0 0 1-.083-.019 9.533 9.533 0 0 1-2.678-1.902.202.202 0 0 1-.002-.282.195.195 0 0 1 .278 0 9.175 9.175 0 0 0 2.568 1.824.2.2 0 0 1 .095.265.197.197 0 0 1-.178.114M17.79 26.89a.195.195 0 0 1-.17-.103.215.215 0 0 1 .068-.285c2.796-1.75 4.533-4.96 4.533-8.381 0-2.878-1.198-5.593-3.287-7.45a.217.217 0 0 1-.024-.294.193.193 0 0 1 .28-.025c2.178 1.936 3.428 4.768 3.428 7.769 0 3.567-1.811 6.917-4.727 8.74a.188.188 0 0 1-.101.03M36.737 18.408H26.342c-.114 0-.206-.084-.206-.188s.092-.189.206-.189h10.395c.113 0 .205.085.205.189s-.092.188-.205.188" fill="#004F59"/><path d="M36.44 31.665h-3.58c-.105 0-.19-.093-.19-.207V5.233c0-.114.085-.207.19-.207h3.58v.414h-3.39v25.81h3.39v.415z" fill="#004F59"/></g></svg>