<svg viewBox="0 0 24 26" xmlns="http://www.w3.org/2000/svg"><path d="M5.75 17.75h8.75v2.5H5.75v-2.5zm0-5h12.5v2.5H5.75v-2.5zm0-5h12.5v2.5H5.75v-2.5zm15-5h-5.225C15 1.3 13.625.25 12 .25S9 1.3 8.475 2.75H3.25a2.19 2.19 0 0 0-.5.05c-.487.1-.925.35-1.263.688-.224.225-.412.5-.537.8-.125.287-.2.612-.2.962v17.5c0 .337.075.675.2.975.125.3.313.563.537.8a2.51 2.51 0 0 0 1.263.688c.162.024.325.037.5.037h17.5c1.375 0 2.5-1.125 2.5-2.5V5.25c0-1.375-1.125-2.5-2.5-2.5zM12 2.437c.512 0 .938.425.938.938a.944.944 0 0 1-.938.938.944.944 0 0 1-.938-.938c0-.513.426-.938.938-.938zm8.75 20.313H3.25V5.25h17.5v17.5z"/></svg>
