<svg viewBox="0 0 37 30" xmlns="http://www.w3.org/2000/svg"><g fill-rule="nonzero" fill="none"><path d="M23.058 8.257h1.106l3.151-3.176.155-1.348A14.087 14.087 0 0 0 14.026.763c-4.69 1.416-8.32 5.173-9.602 9.934.35-.145.74-.168 1.105-.067l6.304-1.047s.32-.535.487-.502a7.82 7.82 0 0 1 10.76-.824h-.022z" fill="#EA4335"/><path d="M31.805 10.697a14.324 14.324 0 0 0-4.28-6.953l-4.423 4.457a7.947 7.947 0 0 1 2.886 6.285v.79c2.175 0 3.937 1.777 3.937 3.968 0 2.19-1.762 3.967-3.937 3.967h-7.874l-.785.802v4.758l.785.791h7.874c4.515.035 8.52-2.912 9.86-7.257 1.339-4.344-.303-9.06-4.043-11.608z" fill="#4285F4"/><path d="M10.23 29.517h7.873v-6.351H10.23a3.89 3.89 0 0 1-1.625-.357l-1.106.346-3.174 3.176-.276 1.114a10.135 10.135 0 0 0 6.181 2.072z" fill="#34A853"/><path d="M10.23 8.914C5.855 8.941 1.98 11.763.585 15.94-.81 20.116.58 24.725 4.048 27.411l4.567-4.602a3.973 3.973 0 0 1-2.277-4.174 3.952 3.952 0 0 1 3.343-3.368 3.931 3.931 0 0 1 4.143 2.294l4.567-4.602a10.203 10.203 0 0 0-8.162-4.045z" fill="#FBBC05"/></g></svg>