<svg viewBox="0 0 18 18" xmlns="http://www.w3.org/2000/svg"><g fill="none" fill-rule="evenodd"><path d="M-3-3h24v24H-3z"/><path d="M2.561 15.016a8.788 8.788 0 0 0 5.825 2.575c4.984.218 9.101-3.698 9.206-8.6h.005V1.318c0-.096.007-.182 0-.278C10.784 3.286 5.264 8.433 2.561 15.016z" fill="#9AA0A6"/><path d="M16.307 0H8.622v.005C3.712.11-.21 4.221.009 9.197a8.691 8.691 0 0 0 1.27 4.151c1.373-2.571 5.141-7.29 10.516-9.497a24.456 24.456 0 0 1 5.801-2.811A1.318 1.318 0 0 0 16.307 0z" fill="#80868B"/><path d="M8.688.218V.213h7.857c.229 0 .444.058.632.158a1.314 1.314 0 0 0-.903-.358H8.59v.005C4.501.105 1.25 2.883.3 6.6 1.3 3.233 4.683.383 8.688.218z" fill="#9AA0A6"/><path d="M8.642 17.441c-1.59 0-3.083-.41-4.383-1.128A8.783 8.783 0 0 0 8.846 17.6a8.807 8.807 0 0 0 8.751-7.782 9.068 9.068 0 0 1-8.955 7.623z" fill="#80868B"/></g></svg>