<svg viewBox="0 0 74 73" xmlns="http://www.w3.org/2000/svg" xmlns:xlink="http://www.w3.org/1999/xlink"><defs><circle id="b" cx="31.5" cy="31.5" r="31.5"/><filter x="-15.9%" y="-12.7%" width="131.7%" height="131.7%" filterUnits="objectBoundingBox" id="a"><feOffset dy="2" in="SourceAlpha" result="shadowOffsetOuter1"/><feGaussianBlur stdDeviation="3" in="shadowOffsetOuter1" result="shadowBlurOuter1"/><feColorMatrix values="0 0 0 0 0.355070153 0 0 0 0 0.353830266 0 0 0 0 0.353830266 0 0 0 0.591796875 0" in="shadowBlurOuter1"/></filter></defs><g fill-rule="nonzero" fill="none"><g transform="translate(6 5)"><use fill="#000" filter="url(#a)" xlink:href="#b"/><use fill="#FFF" xlink:href="#b"/></g><path d="M48.5 30.5h-21A4.504 4.504 0 0 0 23 35v9h6v6h18v-6h6v-9c0-2.483-2.017-4.5-4.5-4.5zM44 47H32v-7.5h12V47zm4.5-10.5c-.833 0-1.5-.668-1.5-1.5s.667-1.5 1.5-1.5 1.5.668 1.5 1.5-.667 1.5-1.5 1.5zM47 23H29v6h18v-6z" fill="#255FDB"/></g></svg>