<svg viewBox="0 0 48 36" xmlns="http://www.w3.org/2000/svg" xmlns:xlink="http://www.w3.org/1999/xlink"><defs><path id="a" d="M0 0h48v48H0z"/><path id="b" d="M.096.077h5.782v17.328H.096z"/><path id="d" d="M.014.248h6.224v17.548H.014z"/><path id="f" d="M.078.088h28.613v25.73H.078z"/><path id="h" d="M.245.008h29.06v25.95H.245z"/></defs><g fill="none" fill-rule="evenodd"><path d="M40.963 17.623c0 9.577-7.707 17.34-17.214 17.34-9.507 0-17.215-7.763-17.215-17.34S14.242.283 23.749.283s17.214 7.763 17.214 17.34" fill="#70C2B3"/><g transform="translate(20.925 17.76)"><mask id="c" fill="#fff"><use xlink:href="#b"/></mask><path fill="#FEFEFE" mask="url(#c)" d="M5.878 19.754H.096V.077h5.263z"/></g><g transform="translate(20.786 17.37)"><mask id="e" fill="#fff"><use xlink:href="#d"/></mask><path d="M.455 19.926H5.79L5.283.689H.455v19.237zm5.562.44H.234a.22.22 0 0 1-.22-.22V.468a.22.22 0 0 1 .22-.22h5.264a.22.22 0 0 1 .22.215l.52 19.677a.214.214 0 0 1-.063.159.22.22 0 0 1-.158.067z" fill="#004F59" mask="url(#e)"/></g><g transform="translate(9.437 9.348)"><mask id="g" fill="#fff"><use xlink:href="#f"/></mask><path d="M16.002 8.18c5.718 1.436 13.4-1.706 2.709-4.187V.088c18.89 4.444 5.76 13.469 2.507 12.775v14.885a.95.95 0 0 1-.95.945H8.502a.95.95 0 0 1-.95-.945V12.863c-3.253.694-16.383-8.33 2.507-12.775v3.905C-.632 6.474 7.05 9.616 12.768 8.18" fill="#FEFEFE" mask="url(#g)"/></g><g transform="translate(9.047 9.208)"><mask id="i" fill="#fff"><use xlink:href="#h"/></mask><path d="M20.66 29.054H8.89a1.17 1.17 0 0 1-1.17-1.166V13.254c-2.062.129-6.658-2.401-7.38-5.6-.516-2.284.81-5.465 10.057-7.64a.218.218 0 0 1 .188.042.221.221 0 0 1 .083.172v3.904c0 .102-.07.191-.17.215-4.321 1.003-5.047 1.982-5.16 2.357-.061.207.004.407.199.609.945.983 4.532 1.555 7.566.795l.214-.055.108.427-.214.054c-3.228.81-6.946.172-7.994-.917-.385-.4-.377-.786-.301-1.038.29-.973 2.076-1.855 5.31-2.621V.508C1.577 2.594.305 5.487.772 7.557c.694 3.071 5.454 5.593 7.123 5.229a.228.228 0 0 1 .186.045.22.22 0 0 1 .081.17v14.886c0 .4.328.725.73.725h11.767a.728.728 0 0 0 .728-.725V13.003c0-.067.03-.13.082-.171a.232.232 0 0 1 .186-.045c1.674.358 6.428-2.158 7.123-5.23.468-2.07-.806-4.962-9.456-7.05v3.45c3.234.767 5.021 1.649 5.31 2.622.077.252.086.638-.301 1.038-1.047 1.09-4.766 1.728-7.994.917l-.214-.054.108-.427.215.055c3.03.76 6.621.188 7.567-.795.195-.202.259-.402.198-.61-.113-.374-.84-1.353-5.16-2.356a.221.221 0 0 1-.17-.215V.228a.22.22 0 0 1 .271-.214C28.4 2.19 29.725 5.37 29.21 7.654c-.724 3.198-5.337 5.72-7.38 5.6v14.634a1.17 1.17 0 0 1-1.17 1.166" fill="#004F59" mask="url(#i)"/></g><path d="M21.168 17.465c-.045.273-.256.501-.46.704-.54.546-1.202 1.083-1.98 1.056-.291-.008-.583-.105-.856-.21-.734-.3-1.432-.784-1.776-1.498-.346-.704-.23-1.672.414-2.139.213-.14.451-.229.655-.378.212-.15.38-.397.327-.643-.045-.22-.247-.37-.39-.546-.327-.44-.212-1.136.24-1.453.202-.14.458-.202.663-.352a.373.373 0 0 0 .08-.079c.352-1.849.874-3.645 1.625-4.701l1.219 9.666a.569.569 0 0 1 .24.573" fill="#004F59"/><path d="M19.57 7.875c-.502.931-.928 2.304-1.27 4.093a.203.203 0 0 1-.04.091.552.552 0 0 1-.135.13 1.972 1.972 0 0 1-.377.204c-.097.044-.195.086-.281.146a.817.817 0 0 0-.32.537.802.802 0 0 0 .133.604c.03.037.07.08.11.122.129.137.274.291.318.512.079.364-.163.686-.414.865-.119.087-.25.155-.382.224-.094.05-.19.099-.278.158-.568.41-.62 1.287-.34 1.86.354.732 1.099 1.16 1.661 1.39.248.095.517.186.78.195.727.02 1.348-.517 1.816-.992.184-.183.365-.38.398-.584l.002-.01c.026-.12-.039-.282-.136-.339a.224.224 0 0 1-.105-.161l-1.14-9.045zm-.787 11.572l-.062-.001c-.329-.01-.654-.12-.93-.227-.637-.26-1.48-.749-1.894-1.606-.366-.748-.286-1.856.485-2.413.11-.073.218-.13.326-.187.112-.058.224-.115.326-.19.145-.103.273-.271.241-.42-.02-.101-.111-.198-.207-.3a2.237 2.237 0 0 1-.138-.154 1.244 1.244 0 0 1-.218-.942c.054-.341.237-.642.501-.828.11-.076.232-.132.354-.187a1.68 1.68 0 0 0 .305-.162l.006.002c.422-2.195.978-3.787 1.651-4.733a.229.229 0 0 1 .234-.087.22.22 0 0 1 .166.186l1.207 9.574a.796.796 0 0 1 .249.733c-.057.332-.288.587-.52.82-.518.524-1.222 1.122-2.082 1.122zM26.045 17.465c.045.273.256.501.46.704.54.546 1.202 1.083 1.98 1.056.291-.008.583-.105.856-.21.734-.3 1.432-.784 1.776-1.498.345-.704.23-1.672-.414-2.139-.213-.14-.451-.229-.655-.378-.212-.15-.38-.397-.327-.643.045-.22.247-.37.39-.546.326-.44.212-1.136-.24-1.453-.202-.14-.459-.202-.663-.352a.373.373 0 0 1-.08-.079c-.352-1.849-.874-3.645-1.625-4.701l-1.219 9.666a.569.569 0 0 0-.24.573" fill="#004F59"/><path d="M27.644 7.875l-1.141 9.045a.223.223 0 0 1-.105.162c-.097.057-.162.219-.136.338l.001.01c.034.206.215.402.398.583.459.465 1.072.993 1.77.993h.045c.264-.009.534-.1.785-.197.56-.228 1.304-.655 1.657-1.387.28-.574.229-1.45-.347-1.866-.081-.054-.176-.103-.27-.152a2.86 2.86 0 0 1-.384-.228c-.25-.175-.49-.497-.412-.865.043-.218.188-.372.317-.508.04-.043.08-.085.116-.13a.8.8 0 0 0 .127-.596.812.812 0 0 0-.32-.538c-.087-.06-.185-.102-.282-.146-.129-.058-.261-.117-.386-.21a.584.584 0 0 1-.125-.123.208.208 0 0 1-.04-.092c-.341-1.788-.767-3.16-1.268-4.093m.785 11.571c-.86 0-1.563-.598-2.082-1.123-.221-.22-.463-.483-.52-.818a.802.802 0 0 1 .25-.733l1.207-9.574a.22.22 0 0 1 .165-.185.222.222 0 0 1 .234.086c.673.945 1.227 2.532 1.65 4.717.11.085.208.129.312.175.122.056.244.112.353.187.265.186.448.488.503.83.055.336-.023.678-.213.934-.048.06-.096.111-.144.162-.096.102-.187.198-.206.296-.033.152.096.32.237.42.106.077.218.135.33.194.108.056.217.112.32.18.777.563.857 1.671.49 2.42-.412.857-1.256 1.345-1.89 1.603-.279.108-.604.218-.934.228l-.062.001" fill="#004F59"/><path d="M25.74 17.721c0 .771-.877 1.397-1.96 1.397s-1.96-.626-1.96-1.397l-.02-.546h3.91l.03.546z" fill="#FEFEFE"/><path d="M22.03 17.396l.01.318c0 .656.78 1.185 1.739 1.185.957 0 1.734-.526 1.74-1.172l-.02-.331h-3.47zm1.749 1.943c-1.203 0-2.18-.726-2.18-1.618l-.02-.538a.221.221 0 0 1 .221-.227h3.908c.118 0 .214.091.221.207l.03.545v.013c0 .892-.977 1.618-2.18 1.618z" fill="#004F59"/><path d="M23.634 17.838c-2.484 0-4.515-2.024-4.515-4.498V9.437c0-2.475 2.031-4.499 4.515-4.499 2.483 0 4.514 2.024 4.514 4.499v3.903c0 2.474-2.031 4.498-4.514 4.498" fill="#FEFEFE"/><path d="M23.634 5.158c-2.369 0-4.294 1.92-4.294 4.278v3.904c0 2.359 1.925 4.278 4.294 4.278 2.368 0 4.293-1.919 4.293-4.278V9.436c0-2.359-1.925-4.278-4.293-4.278m0 12.9c-2.612 0-4.736-2.116-4.736-4.718V9.436c0-2.602 2.124-4.718 4.736-4.718 2.61 0 4.735 2.116 4.735 4.718v3.904c0 2.602-2.124 4.718-4.735 4.718" fill="#004F59"/><path d="M23.79 14.573c-.69 0-1.345-.307-1.714-.572a.22.22 0 0 1-.05-.307.224.224 0 0 1 .308-.05c.062.045 1.536 1.076 2.59.023a.221.221 0 0 1 .313.312c-.44.438-.952.594-1.446.594M27.305 6.923c-1.608 2.016-6.98 2.228-8.218 2.254a.089.089 0 0 1 0-.07 4.518 4.518 0 0 1 4.498-4.156 4.492 4.492 0 0 1 3.623 1.823c.036.044.071.097.097.15" fill="#004F59"/><path d="M23.585 5.171c-2.17 0-4.01 1.646-4.26 3.78 1.703-.053 6.168-.356 7.706-2.046a4.272 4.272 0 0 0-3.445-1.734zm-4.498 4.226a.222.222 0 0 1-.21-.152.325.325 0 0 1 0-.207c.176-2.392 2.25-4.307 4.708-4.307a4.71 4.71 0 0 1 3.8 1.91c.03.036.078.103.118.183a.217.217 0 0 1-.025.236c-1.624 2.036-6.83 2.303-8.386 2.337h-.005z" fill="#004F59"/><g fill="#004F59"><path d="M47.527 35.715H10.439c-.122 0-.22-.105-.22-.235s.098-.236.22-.236h37.088c.121 0 .22.106.22.236s-.099.235-.22.235M6.068 35.715H.426c-.121 0-.22-.105-.22-.235s.099-.236.22-.236h5.642c.121 0 .22.106.22.236s-.099.235-.22.235"/></g></g></svg>