<svg viewBox="0 0 44 48" xmlns="http://www.w3.org/2000/svg" xmlns:xlink="http://www.w3.org/1999/xlink"><defs><path id="a" d="M0 0h48v48H0z"/><path id="c" d="M.11.226h39.405v5.67H.11z"/><path id="e" d="M0 .1h8.863v8.832H0z"/><path id="g" d="M.078.135h10.544V10.64H.078z"/><path id="i" d="M.07.01h9.709v4.729H.069z"/><path id="k" d="M.063.066H10.25v5.822H.063z"/></defs><g transform="translate(-2)" fill="none" fill-rule="evenodd"><mask id="b" fill="#fff"><use xlink:href="#a"/></mask><g mask="url(#b)"><g transform="translate(3.916 41.838)"><mask id="d" fill="#fff"><use xlink:href="#c"/></mask><path d="M39.515 3.061c0 1.566-8.821 2.835-19.702 2.835C8.93 5.896.11 4.626.11 3.061S8.931.226 19.813.226c10.88 0 19.702 1.27 19.702 2.835" fill="#70C2B3" mask="url(#d)"/></g><path d="M45.011 27.643c0 1.751-1.168 3.17-2.608 3.17-1.44 0-2.607-1.419-2.607-3.17s1.168-3.171 2.607-3.171c1.44 0 2.608 1.42 2.608 3.17" fill="#FEFEFE"/><path d="M42.403 24.717c-1.302 0-2.362 1.312-2.362 2.926 0 1.612 1.06 2.924 2.362 2.924s2.362-1.312 2.362-2.924c0-1.614-1.06-2.926-2.362-2.926m0 6.342c-1.574 0-2.855-1.532-2.855-3.416s1.281-3.417 2.855-3.417 2.855 1.533 2.855 3.417-1.281 3.416-2.855 3.416" fill="#004F59"/><path d="M13.065 44.944a3.021 3.021 0 0 1-3.019-3.007v-2.406a3.021 3.021 0 0 1 3.019-3.007 3.022 3.022 0 0 1 3.018 3.007v2.406a3.022 3.022 0 0 1-3.018 3.007" fill="#FEFEFE"/><path d="M13.064 36.769a2.77 2.77 0 0 0-2.772 2.762v2.406a2.77 2.77 0 0 0 2.772 2.761 2.77 2.77 0 0 0 2.772-2.761V39.53a2.77 2.77 0 0 0-2.772-2.762m0 8.42c-1.8 0-3.265-1.459-3.265-3.252V39.53a3.263 3.263 0 0 1 3.265-3.253c1.8 0 3.265 1.459 3.265 3.253v2.406a3.263 3.263 0 0 1-3.265 3.252" fill="#004F59"/><path d="M28.822 45.514a3.022 3.022 0 0 1-3.018-3.008v-2.405a3.022 3.022 0 0 1 3.018-3.007 3.021 3.021 0 0 1 3.019 3.007v2.405a3.022 3.022 0 0 1-3.019 3.008" fill="#FEFEFE"/><path d="M28.822 37.339A2.77 2.77 0 0 0 26.05 40.1v2.405a2.77 2.77 0 0 0 2.772 2.763 2.77 2.77 0 0 0 2.772-2.763v-2.405a2.77 2.77 0 0 0-2.772-2.762m0 8.42c-1.8 0-3.265-1.46-3.265-3.253v-2.405a3.263 3.263 0 0 1 3.265-3.254c1.8 0 3.265 1.46 3.265 3.254v2.405a3.264 3.264 0 0 1-3.265 3.254" fill="#004F59"/><path d="M32.201 18.982H16.163c-6.176 0-11.229 5.036-11.229 11.19v.05c0 6.155 5.053 11.19 11.229 11.19h.644c-.006.087-.026.17-.026.256v2.406a3.023 3.023 0 0 0 3.018 3.008 3.022 3.022 0 0 0 3.018-3.008v-2.406c0-.087-.018-.17-.026-.256h9.41c.35 0 .696-.02 1.038-.053v2.715a3.022 3.022 0 0 0 3.018 3.008 3.023 3.023 0 0 0 3.018-3.008v-4.72c0-.146-.024-.288-.044-.43 2.556-2.054 4.2-5.194 4.2-8.703v-.05c0-6.153-5.053-11.19-11.23-11.19" fill="#FEFEFE"/><path d="M33.238 41.114a.246.246 0 0 1 .246.245v2.714a2.77 2.77 0 0 0 2.772 2.763 2.77 2.77 0 0 0 2.771-2.763v-4.72c0-.118-.016-.232-.033-.346-.013-.086.015-.218.082-.272 2.61-2.101 4.108-5.204 4.108-8.513 0-6.085-4.927-10.995-10.984-10.995H16.163c-6.057 0-10.984 4.91-10.984 10.945 0 6.084 4.927 10.995 10.984 10.995h.644a.245.245 0 0 1 .246.267l-.013.105c-.006.042-.012.085-.012.129v2.405a2.77 2.77 0 0 0 2.771 2.763 2.77 2.77 0 0 0 2.772-2.763v-2.405c0-.044-.007-.087-.012-.129l-.013-.105a.248.248 0 0 1 .245-.267h9.41c.307 0 .638-.017 1.014-.052l.023-.001m3.018 6.213c-1.8 0-3.265-1.46-3.265-3.254v-2.446c-.284.02-.544.031-.79.031h-9.137V44.073a3.263 3.263 0 0 1-3.265 3.254c-1.8 0-3.264-1.46-3.264-3.254V41.658h-.372c-6.328 0-11.477-5.13-11.477-11.436 0-6.356 5.15-11.486 11.477-11.486H32.2c6.328 0 11.477 5.13 11.477 11.436 0 3.462-1.522 6.663-4.182 8.856.015.12.026.222.026.326v4.72a3.262 3.262 0 0 1-3.265 3.253" fill="#004F59"/><path d="M11.13 30.631a4.177 4.177 0 0 1-4.185 4.17 4.178 4.178 0 0 1-4.186-4.17 4.178 4.178 0 0 1 4.186-4.17 4.177 4.177 0 0 1 4.185 4.17" fill="#FEFEFE"/><g transform="translate(2.513 26.116)"><mask id="f" fill="#fff"><use xlink:href="#e"/></mask><path d="M4.432.59C2.26.59.492 2.353.492 4.517c0 2.163 1.768 3.924 3.94 3.924 2.171 0 3.938-1.76 3.938-3.924C8.37 2.352 6.603.59 4.432.59m0 8.34C1.987 8.932 0 6.952 0 4.517 0 2.08 1.987.099 4.432.099 6.876.1 8.863 2.08 8.863 4.516c0 2.435-1.987 4.416-4.431 4.416" fill="#004F59" mask="url(#f)"/></g><path d="M19.617 22.456l1.52 1.514c.663.66.332 1.79-.583 1.993l-1.89.418" fill="#FEFEFE"/><path d="M18.664 26.627a.246.246 0 0 1-.054-.486l1.89-.418a.928.928 0 0 0 .7-.654.924.924 0 0 0-.238-.925l-1.52-1.515a.244.244 0 0 1 0-.347.247.247 0 0 1 .35 0l1.519 1.515c.375.373.512.9.364 1.409-.15.509-.548.881-1.066.996l-1.89.419a.262.262 0 0 1-.055.006M6.87 24.154a.247.247 0 0 1-.179-.077l-.585-.618a1.406 1.406 0 0 1-.276-1.547c.23-.533.735-.864 1.318-.864H9.35c.135 0 .246.11.246.245a.246.246 0 0 1-.246.246H7.148a.931.931 0 0 0-.865.568.925.925 0 0 0 .181 1.015l.586.617a.247.247 0 0 1-.18.415M6.008 30.708c0 .78-.362 1.412-.808 1.412-.447 0-.809-.633-.809-1.412 0-.78.362-1.411.809-1.411.446 0 .808.632.808 1.411M8.713 30.637c0 .78-.362 1.411-.808 1.411-.447 0-.809-.632-.809-1.411 0-.78.362-1.412.81-1.412.445 0 .807.633.807 1.412" fill="#004F59"/><path fill="#70C2B3" d="M20.075 18.982l1.41 1.292H32.62l-1.451-1.292z"/><path d="M21.582 20.185h10.391l-.9-.898H20.708l.875.898zm11.037.551H21.485a.23.23 0 0 1-.166-.073l-1.41-1.449a.3.3 0 0 1-.065-.303.25.25 0 0 1 .231-.175h11.093c.06 0 .12.024.165.07l1.45 1.448a.298.298 0 0 1 .067.305.25.25 0 0 1-.23.177z" fill="#004F59"/><path d="M31.372 5.388c0 2.765-2.25 5.008-5.025 5.008-2.775 0-5.025-2.243-5.025-5.008S23.572.38 26.347.38c2.776 0 5.025 2.243 5.025 5.008" fill="#70C2B3"/><g transform="translate(20.997)"><mask id="h" fill="#fff"><use xlink:href="#g"/></mask><path d="M5.35.626C2.715.626.57 2.762.57 5.388c0 2.626 2.144 4.762 4.779 4.762s4.779-2.136 4.779-4.762c0-2.626-2.144-4.762-4.78-4.762m0 10.015c-2.905 0-5.271-2.357-5.271-5.253C.078 2.49 2.444.135 5.35.135s5.272 2.356 5.272 5.253c0 2.896-2.366 5.253-5.272 5.253" fill="#004F59" mask="url(#h)"/></g><g><g transform="translate(21.342 14.899)"><mask id="j" fill="#fff"><use xlink:href="#i"/></mask><path d="M9.779 4.739c0 2.61-2.173 4.728-4.855 4.728C2.243 9.467.07 7.35.07 4.74.07 2.128 2.243.01 4.924.01c2.682 0 4.855 2.118 4.855 4.729" fill="#70C2B3" mask="url(#j)"/></g><g transform="translate(21.11 14.325)"><mask id="l" fill="#fff"><use xlink:href="#k"/></mask><path d="M5.156.817C2.611.817.54 2.834.54 5.313c0 2.48 2.072 4.496 4.617 4.496 2.546 0 4.617-2.016 4.617-4.496 0-2.479-2.071-4.496-4.617-4.496m0 9.456c-2.807 0-5.093-2.225-5.093-4.96S2.35.353 5.156.353c2.808 0 5.093 2.225 5.093 4.96s-2.285 4.96-5.093 4.96" fill="#004F59" mask="url(#l)"/></g></g></g></g></svg>