<svg viewBox="0 0 48 36" xmlns="http://www.w3.org/2000/svg" xmlns:xlink="http://www.w3.org/1999/xlink"><defs><path id="a" d="M0 0h48v48H0z"/><path id="c" d="M0 .091h47.992V35.99H0z"/><path d="M12.506.19S10.243 21.561.22 33.663h34.34S43.221 24.534 43.221.19H12.506z" id="e"/><path id="g" d="M0 .09h43.3v34.02H0z"/></defs><g transform="translate(0 -6)" fill="none" fill-rule="evenodd"><mask id="b" fill="#fff"><use xlink:href="#a"/></mask><g mask="url(#b)"><path fill="#70C2B3" d="M12.565 42H48V6.503H12.565z"/><g transform="translate(0 6)"><mask id="d" fill="#fff"><use xlink:href="#c"/></mask><path d="M12.721 35.547h34.831V.534h-34.83v35.013zm35.051.442h-35.27a.22.22 0 0 1-.22-.221V.312a.22.22 0 0 1 .22-.221h35.27c.12 0 .22.099.22.22v35.457c0 .122-.1.221-.22.221z" fill="#004F59" mask="url(#d)"/><path fill="#70C2B3" mask="url(#d)" d="M43.205 35.768h4.567V.313h-4.567z"/><path d="M43.425 35.547h4.126V.534h-4.126v35.013zm4.347.442h-4.567a.22.22 0 0 1-.22-.221V.312a.22.22 0 0 1 .22-.221h4.567c.12 0 .22.099.22.22v35.457c0 .122-.1.221-.22.221z" fill="#004F59" mask="url(#d)"/><path d="M12.502.312S10.24 21.739.22 33.872h34.326s8.66-9.153 8.66-33.56H12.501z" fill="#FEFEFE" mask="url(#d)"/><path d="M.684 33.65h33.763c.368-.419 2.313-2.766 4.237-7.52 1.95-4.822 4.273-13.166 4.3-25.596H12.698c-.26 2.175-2.82 21.64-12.013 33.116m33.86.443H.22a.22.22 0 0 1-.2-.128.224.224 0 0 1 .03-.235C9.91 21.789 12.26.503 12.282.289a.22.22 0 0 1 .22-.198h30.703a.22.22 0 0 1 .22.221c0 24.215-8.633 33.62-8.72 33.712a.217.217 0 0 1-.16.069" fill="#004F59" mask="url(#d)"/></g><g transform="translate(0 6.252)"><mask id="f" fill="#fff"><use xlink:href="#e"/></mask><path fill="#004F59" mask="url(#f)" d="M6.025 5.564h41.077V.19H6.025z"/><path d="M6.244 5.343h40.637V.411H6.244v4.932zm40.857.441H6.024a.221.221 0 0 1-.22-.22V.189c0-.121.1-.22.22-.22h41.077a.22.22 0 0 1 .22.22v5.375a.22.22 0 0 1-.22.22z" fill="#004F59" mask="url(#f)"/></g><g transform="translate(0 6)"><mask id="h" fill="#fff"><use xlink:href="#g"/></mask><path d="M.682 33.668h33.667c.366-.42 2.306-2.769 4.224-7.525 1.945-4.824 4.261-13.173 4.289-25.61H12.66C12.4 2.71 9.85 22.184.682 33.668m33.764.442H.219a.22.22 0 0 1-.199-.127.225.225 0 0 1 .03-.236C9.883 21.8 12.224.502 12.247.287a.22.22 0 0 1 .218-.197h30.616a.22.22 0 0 1 .22.221c0 24.228-8.608 33.638-8.696 33.73a.216.216 0 0 1-.159.07" fill="#004F59" mask="url(#h)"/></g><path d="M11.97 28.822l-.326-.297 4.648-5.182c.044-.048.117-.08.167-.073.063.001.123.03.164.079l3.327 4.014 7.18-8.1a.231.231 0 0 1 .203-.072.219.219 0 0 1 .165.14l2.13 5.598c3.443-4.022 8.419-9.884 8.629-10.268l.155.087h.264c0 .102 0 .294-8.955 10.75a.217.217 0 0 1-.37-.065l-2.133-5.606-7.11 8.022a.244.244 0 0 1-.166.073.216.216 0 0 1-.165-.078l-3.33-4.016-4.478 4.994z" fill="#004F59"/><path d="M38.949 16.85c.44-1.038.107-2.176-.744-2.542-.85-.367-1.895.177-2.335 1.213-.44 1.037-.107 2.174.744 2.542.85.366 1.895-.177 2.335-1.214" fill="#70C2B3"/><path d="M37.646 14.414c-.621 0-1.264.461-1.575 1.194-.39.923-.109 1.932.629 2.25.735.318 1.656-.174 2.048-1.096.39-.923.108-1.933-.63-2.251a1.187 1.187 0 0 0-.472-.097m-.478 3.983a1.61 1.61 0 0 1-.64-.131c-.96-.414-1.347-1.685-.86-2.832.486-1.147 1.66-1.744 2.623-1.33.96.415 1.346 1.685.86 2.832-.382.9-1.19 1.46-1.983 1.46" fill="#004F59"/><path d="M30.263 25.505c.229-.536.056-1.125-.384-1.315-.44-.19-.982.092-1.209.628-.228.537-.056 1.126.384 1.316.44.19.982-.091 1.21-.629" fill="#70C2B3"/><path d="M29.587 24.351c-.28 0-.572.215-.716.553-.18.424-.06.884.269 1.026.328.142.741-.088.922-.511.18-.424.057-.885-.271-1.026a.51.51 0 0 0-.204-.042m-.247 2.063a.935.935 0 0 1-.373-.077c-.55-.238-.775-.958-.499-1.606.274-.648.942-.982 1.497-.745.55.237.774.957.5 1.606-.215.507-.673.822-1.125.822" fill="#004F59"/><path d="M20.515 27.808c.227-.536.054-1.125-.385-1.316-.44-.19-.982.091-1.21.629-.227.537-.055 1.125.386 1.315.44.19.98-.091 1.209-.628" fill="#70C2B3"/><path d="M19.84 26.654a.644.644 0 0 0-.295.076.948.948 0 0 0-.423.477.94.94 0 0 0-.027.706.566.566 0 0 0 .296.32c.154.066.33.052.499-.035a.948.948 0 0 0 .423-.477.957.957 0 0 0 .049-.639.582.582 0 0 0-.32-.386.513.513 0 0 0-.202-.042m-.244 2.063a.96.96 0 0 1-.378-.077 1.012 1.012 0 0 1-.53-.563c-.127-.318-.115-.7.031-1.044a1.38 1.38 0 0 1 .626-.696.997.997 0 0 1 .871-.048c.274.118.476.355.567.669.087.297.062.63-.068.937a1.382 1.382 0 0 1-.625.696c-.16.084-.33.126-.494.126" fill="#004F59"/><path d="M27.98 19.857c.229-.536.056-1.125-.383-1.316-.44-.189-.983.092-1.21.629-.227.537-.056 1.125.385 1.316.44.189.982-.092 1.209-.629" fill="#70C2B3"/><path d="M27.306 18.704a.64.64 0 0 0-.294.076.946.946 0 0 0-.424.477c-.179.424-.058.884.27 1.024a.571.571 0 0 0 .498-.034.946.946 0 0 0 .424-.477c.179-.424.057-.883-.272-1.025a.513.513 0 0 0-.202-.041m-.243 2.062a.945.945 0 0 1-.377-.077c-.55-.238-.775-.958-.5-1.607.13-.306.351-.554.626-.695a.995.995 0 0 1 .87-.049c.55.237.775.958.5 1.606-.13.307-.352.554-.626.696-.16.084-.33.126-.493.126" fill="#004F59"/><path d="M13.016 28.269c.228-.536.055-1.126-.384-1.316-.44-.19-.983.092-1.21.628-.227.537-.055 1.127.385 1.316.44.19.981-.09 1.21-.628" fill="#70C2B3"/><path d="M12.34 27.115c-.28 0-.573.215-.717.553-.179.424-.058.884.27 1.025.326.141.742-.087.922-.511.179-.424.057-.884-.271-1.026a.508.508 0 0 0-.204-.041m-.247 2.063a.935.935 0 0 1-.373-.077c-.551-.238-.775-.959-.5-1.607.274-.647.943-.983 1.497-.745.55.237.775.958.5 1.606v.001c-.214.507-.672.822-1.124.822" fill="#004F59"/><path d="M35.152 31.171H8.098a.22.22 0 0 1-.186-.338c3.72-6.04 5.569-16.664 5.587-16.771l.433.075c-.019.106-1.816 10.43-5.444 16.591h26.664v.443z" fill="#004F59"/><path fill="#70C2B3" d="M19.674 33.111h-9.202l.422-.792h9.202zM18.955 34.365H9.752l.423-.791h9.202zM18.235 35.619H9.032l.423-.792h9.202zM30.018 33.111h-9.201l.422-.792h9.202zM29.299 34.365h-9.202l.422-.791h9.203zM28.58 35.619h-9.203l.422-.792h9.203zM17.515 36.872H8.313l.422-.792h9.202z"/></g></g></svg>