<svg viewBox="0 0 86 28" xmlns="http://www.w3.org/2000/svg" xmlns:xlink="http://www.w3.org/1999/xlink"><defs><path id="a" d="M0 0h85.857v28H0z"/></defs><g transform="matrix(1 0 0 -1 0 28)" fill="none" fill-rule="evenodd"><path d="M.15 17.178c0 5.956 5.019 10.805 10.99 10.805 3.302 0 5.653-1.291 7.423-2.978l-2.087-2.082c-1.268 1.186-2.985 2.108-5.337 2.108-4.359 0-7.767-3.505-7.767-7.853 0-4.349 3.408-7.854 7.767-7.854 2.827 0 4.439 1.133 5.47 2.161.845.844 1.4 2.056 1.61 3.716h-7.08v2.952h9.96c.106-.527.159-1.16.159-1.845 0-2.214-.608-4.955-2.563-6.905-1.902-1.976-4.333-3.03-7.556-3.03C5.17 6.373.15 11.222.15 17.178M29.307 9.113c-2.114 0-3.936 1.74-3.936 4.217 0 2.504 1.822 4.217 3.936 4.217 2.113 0 3.936-1.713 3.936-4.217 0-2.477-1.823-4.217-3.936-4.217m0 11.174c-3.857 0-7.001-2.925-7.001-6.957 0-4.006 3.144-6.958 7.001-6.958s7 2.952 7 6.958c0 4.032-3.143 6.957-7 6.957M44.58 9.113c-2.114 0-3.937 1.74-3.937 4.217 0 2.504 1.823 4.217 3.937 4.217 2.113 0 3.936-1.713 3.936-4.217 0-2.477-1.823-4.217-3.936-4.217m0 11.174c-3.858 0-7.001-2.925-7.001-6.957 0-4.006 3.143-6.958 7-6.958 3.858 0 7.002 2.952 7.002 6.958 0 4.032-3.144 6.957-7.001 6.957M59.812 9.113c-2.113 0-3.883 1.766-3.883 4.19 0 2.451 1.77 4.244 3.883 4.244 2.087 0 3.725-1.793 3.725-4.243 0-2.425-1.638-4.19-3.725-4.19zm3.514 10.753v-1.133h-.106c-.687.816-2.008 1.554-3.672 1.554-3.487 0-6.684-3.057-6.684-6.983 0-3.9 3.197-6.932 6.684-6.932 1.664 0 2.985.738 3.672 1.582h.106V6.952c0-2.661-1.427-4.085-3.725-4.085-1.876 0-3.038 1.344-3.514 2.478l-2.668-1.107c.766-1.845 2.8-4.111 6.182-4.111 3.593 0 6.63 2.108 6.63 7.247v12.492h-2.905z" fill="#5F6368"/><mask id="b" fill="#fff"><use xlink:href="#a"/></mask><path fill="#5F6368" mask="url(#b)" d="M71.41 6.794h-3.065v20.451h3.065zM79.573 17.6c1.216 0 2.246-.607 2.59-1.476l-6.235-2.583c-.08 2.688 2.087 4.058 3.645 4.058m.238-8.486c-1.559 0-2.668.712-3.381 2.108l9.325 3.848-.317.791c-.58 1.555-2.351 4.428-5.97 4.428-3.593 0-6.579-2.82-6.579-6.958 0-3.9 2.96-6.957 6.922-6.957 3.197 0 5.046 1.95 5.812 3.083l-2.377 1.581c-.793-1.16-1.876-1.924-3.435-1.924"/></g></svg>