<svg height="41" viewBox="0 0 41 41" width="41" xmlns="http://www.w3.org/2000/svg"><g fill="none" fill-rule="evenodd"><path d="m-1069-4390h1440v6628h-1440z" fill="#fff"/><circle cx="20.5" cy="20.5" fill="#34a853" fill-rule="nonzero" r="20.5"/><g transform="translate(12 9)"><path d="m0 3h24v24h-24z"/><path d="m9 16c1.1 0 2-.9 2-2s-.9-2-2-2-2 .9-2 2 .9 2 2 2zm6-9h-1v-2c0-2.76-2.24-5-5-5s-5 2.24-5 5h1.9c0-1.71 1.39-3.1 3.1-3.1s3.1 1.39 3.1 3.1v2h-9.1c-1.1 0-2 .9-2 2v10c0 1.1.9 2 2 2h12c1.1 0 2-.9 2-2v-10c0-1.1-.9-2-2-2zm0 12h-12v-10h12z" fill="#fff" fill-rule="nonzero"/></g></g></svg>