<svg width="41px" height="41px" viewBox="0 0 41 41" version="1.1" xmlns="http://www.w3.org/2000/svg" xmlns:xlink="http://www.w3.org/1999/xlink">
    <g stroke="none" stroke-width="1" fill="none" fill-rule="evenodd">
        <g transform="translate(-839.000000, -4364.000000)">
            <g transform="translate(112.000000, 3958.000000)" fill-rule="nonzero">
                <g transform="translate(0.000000, 240.000000)">
                    <g transform="translate(703.000000, 126.000000)">
                        <rect stroke="#D9D9D9" x="0.5" y="0.5" width="219" height="349" rx="3"></rect>
                        <circle id="Oval-3-Copy-9" fill="#34A853" cx="44.5" cy="60.5" r="20.5"></circle>
                        <path d="M45,54 C40.4545455,54 36.5727273,56.8272727 35,60.8181818 C36.5727273,64.8090909 40.4545455,67.6363636 45,67.6363636 C49.5454545,67.6363636 53.4272727,64.8090909 55,60.8181818 C53.4272727,56.8272727 49.5454545,54 45,54 Z M45,65.3636364 C42.4909091,65.3636364 40.4545455,63.3272727 40.4545455,60.8181818 C40.4545455,58.3090909 42.4909091,56.2727273 45,56.2727273 C47.5090909,56.2727273 49.5454545,58.3090909 49.5454545,60.8181818 C49.5454545,63.3272727 47.5090909,65.3636364 45,65.3636364 Z M45,58.0909091 C43.4909091,58.0909091 42.2727273,59.3090909 42.2727273,60.8181818 C42.2727273,62.3272727 43.4909091,63.5454545 45,63.5454545 C46.5090909,63.5454545 47.7272727,62.3272727 47.7272727,60.8181818 C47.7272727,59.3090909 46.5090909,58.0909091 45,58.0909091 Z" id="Shape" fill="#FFFFFF"></path>
                    </g>
                </g>
            </g>
        </g>
    </g>
</svg>
