<svg viewBox="0 0 21 21" xmlns="http://www.w3.org/2000/svg"><defs><linearGradient x1=".332%" y1="50.002%" x2="100.096%" y2="50.002%" id="a"><stop stop-color="#E96F0B" offset="0%"/><stop stop-color="#F37901" offset="100%"/></linearGradient></defs><g fill="none" fill-rule="evenodd"><path d="M9.657 20.715H2.074a1.684 1.684 0 0 1-1.686-1.686v-3.636c0-.931.754-1.685 1.686-1.685h4.789V8.386c0-.93.754-1.685 1.685-1.685h5.322v13.97H9.657v.044z" fill="#FFC517"/><path d="M19.191 20.715H13.87V1.912c0-.931.753-1.685 1.685-1.685h3.636c.931 0 1.685.754 1.685 1.685v17.117c-.044.932-.798 1.686-1.685 1.686z" fill="#F57E02"/><path d="M20.491 13.481v5.322c0 .93-.754 1.685-1.685 1.685h-5.322V6.475l7.007 7.006z" fill="url(#a)" transform="translate(.34 .227)"/></g></svg>