<svg height="41" viewBox="0 0 41 41" width="41" xmlns="http://www.w3.org/2000/svg"><g fill="none" fill-rule="evenodd"><path d="m-381-4390h1440v6628h-1440z" fill="#fff"/><g fill-rule="nonzero" transform=""><circle cx="20.5" cy="20.5" fill="#ea4335" r="20.5"/><path d="m32 20.01-5-.01c-.55 0-1 .45-1 1v9c0 .55.45 1 1 1h5c.55 0 1-.45 1-1v-9c0-.55-.45-.99-1-.99zm0 8.99h-5v-7h5zm-3-18h-18c-1.11 0-2 .89-2 2v12c0 1.1.89 2 2 2h7v2h-2v2h8v-2h-2v-2h2v-2h-13v-12h18v5h2v-5c0-1.11-.9-2-2-2zm-8.03 7-.97-3-.97 3h-3.03l2.47 1.76-.94 2.91 2.47-1.8 2.47 1.8-.94-2.91 2.47-1.76z" fill="#fff"/></g></g></svg>