<?xml version="1.0" encoding="UTF-8"?>
<svg width="41px" height="41px" viewBox="0 0 41 41" version="1.1" xmlns="http://www.w3.org/2000/svg" xmlns:xlink="http://www.w3.org/1999/xlink">
    <!-- Generator: Sketch 51 (57462) - http://www.bohemiancoding.com/sketch -->
    <title>Group 11</title>
    <desc>Created with Sketch.</desc>
    <defs></defs>
    <g id="Homepage" stroke="none" stroke-width="1" fill="none" fill-rule="evenodd">
        <g id="v7c" transform="translate(-381.000000, -4390.000000)">
            <rect fill="#FFFFFF" x="0" y="0" width="1440" height="6628"></rect>
            <g id="Group-9-Copy" transform="translate(112.000000, 3980.000000)" fill-rule="nonzero">
                <g id="Group-7-Copy" transform="translate(0.000000, 244.000000)">
                    <g id="Group-4">
                        <g id="Group-11" transform="translate(269.000000, 166.000000)">
                            <circle id="Oval-3-Copy-6" fill="#EA4335" cx="20.5" cy="20.5" r="20.5"></circle>
                            <path d="M32,20.01 L27,20 C26.45,20 26,20.45 26,21 L26,30 C26,30.55 26.45,31 27,31 L32,31 C32.55,31 33,30.55 33,30 L33,21 C33,20.45 32.55,20.01 32,20.01 Z M32,29 L27,29 L27,22 L32,22 L32,29 Z M29,11 L11,11 C9.89,11 9,11.89 9,13 L9,25 C9,26.1 9.89,27 11,27 L18,27 L18,29 L16,29 L16,31 L24,31 L24,29 L22,29 L22,27 L24,27 L24,25 L11,25 L11,13 L29,13 L29,18 L31,18 L31,13 C31,11.89 30.1,11 29,11 Z M20.97,18 L20,15 L19.03,18 L16,18 L18.47,19.76 L17.53,22.67 L20,20.87 L22.47,22.67 L21.53,19.76 L24,18 L20.97,18 Z" id="Shape" fill="#FFFFFF"></path>
                        </g>
                    </g>
                </g>
            </g>
        </g>
    </g>
</svg>