<?xml version="1.0" encoding="UTF-8"?>
<svg width="41px" height="41px" viewBox="0 0 41 41" version="1.1" xmlns="http://www.w3.org/2000/svg" xmlns:xlink="http://www.w3.org/1999/xlink">
    <!-- Generator: Sketch 51 (57462) - http://www.bohemiancoding.com/sketch -->
    <title>Group 10</title>
    <desc>Created with Sketch.</desc>
    <defs></defs>
    <g id="Homepage" stroke="none" stroke-width="1" fill="none" fill-rule="evenodd">
        <g id="v7c" transform="translate(-152.000000, -4390.000000)">
            <rect fill="#FFFFFF" x="0" y="0" width="1440" height="6628"></rect>
            <g id="Group-9-Copy" transform="translate(112.000000, 3980.000000)" fill-rule="nonzero">
                <g id="Group-7-Copy" transform="translate(0.000000, 244.000000)">
                    <g id="Group-4">
                        <g id="Group-10" transform="translate(40.000000, 166.000000)">
                            <circle id="Oval-3-Copy-7" fill="#4285F4" cx="20.5" cy="20.5" r="20.5"></circle>
                            <path d="M32,17 C32,18.1 31.1,19 30,19 C29.82,19 29.65,18.98 29.49,18.93 L25.93,22.48 C25.98,22.64 26,22.82 26,23 C26,24.1 25.1,25 24,25 C22.9,25 22,24.1 22,23 C22,22.82 22.02,22.64 22.07,22.48 L19.52,19.93 C19.36,19.98 19.18,20 19,20 C18.82,20 18.64,19.98 18.48,19.93 L13.93,24.49 C13.98,24.65 14,24.82 14,25 C14,26.1 13.1,27 12,27 C10.9,27 10,26.1 10,25 C10,23.9 10.9,23 12,23 C12.18,23 12.35,23.02 12.51,23.07 L17.07,18.52 C17.02,18.36 17,18.18 17,18 C17,16.9 17.9,16 19,16 C20.1,16 21,16.9 21,18 C21,18.18 20.98,18.36 20.93,18.52 L23.48,21.07 C23.64,21.02 23.82,21 24,21 C24.18,21 24.36,21.02 24.52,21.07 L28.07,17.51 C28.02,17.35 28,17.18 28,17 C28,15.9 28.9,15 30,15 C31.1,15 32,15.9 32,17 Z" id="Shape-Copy" fill="#FFFFFF"></path>
                        </g>
                    </g>
                </g>
            </g>
        </g>
    </g>
</svg>