<?xml version="1.0" encoding="UTF-8"?>
<svg width="41px" height="41px" viewBox="0 0 41 41" version="1.1" xmlns="http://www.w3.org/2000/svg" xmlns:xlink="http://www.w3.org/1999/xlink">
    <!-- Generator: Sketch 51 (57462) - http://www.bohemiancoding.com/sketch -->
    <title>Group 14</title>
    <desc>Created with Sketch.</desc>
    <defs></defs>
    <g id="Homepage" stroke="none" stroke-width="1" fill="none" fill-rule="evenodd">
        <g id="v7c" transform="translate(-840.000000, -4390.000000)">
            <rect fill="#FFFFFF" x="0" y="0" width="1440" height="6628"></rect>
            <g id="Group-9-Copy" transform="translate(112.000000, 3980.000000)">
                <g id="Group-7-Copy" transform="translate(0.000000, 244.000000)">
                    <g id="Group-4">
                        <g id="Group-14" transform="translate(728.000000, 166.000000)">
                            <g id="Group-13">
                                <circle id="Oval-3-Copy-5" fill="#FBBC04" fill-rule="nonzero" cx="20.5" cy="20.5" r="20.5"></circle>
                                <polygon id="Shape" points="11 17 35 17 35 41 11 41"></polygon>
                            </g>
                            <circle id="Oval" fill="#FFFFFF" fill-rule="nonzero" cx="23.25" cy="19.25" r="1.25"></circle>
                            <circle id="Oval" fill="#FFFFFF" fill-rule="nonzero" cx="18.25" cy="19.25" r="1.25"></circle>
                            <path d="M31.94,21.66 C31.98,21.45 32,21.23 32,21 C32,20.77 31.98,20.55 31.94,20.34 C31.69,18.83 30.58,17.6 29.13,17.17 C28.6,16.05 27.85,15.07 26.94,14.26 C25.36,12.85 23.28,12 21,12 C18.72,12 16.64,12.85 15.06,14.26 C14.14,15.07 13.39,16.06 12.87,17.17 C11.42,17.6 10.31,18.82 10.06,20.34 C10.02,20.55 10,20.77 10,21 C10,21.23 10.02,21.45 10.06,21.66 C10.31,23.17 11.42,24.4 12.87,24.83 C13.39,25.94 14.14,26.92 15.04,27.72 C16.62,29.14 18.71,30 21,30 C23.29,30 25.38,29.14 26.97,27.72 C27.87,26.92 28.62,25.93 29.14,24.83 C30.58,24.4 31.69,23.18 31.94,21.66 Z M28,23 C27.9,23 27.81,22.98 27.71,22.97 C27.51,23.64 27.22,24.26 26.85,24.83 C25.6,26.74 23.45,28 21,28 C18.55,28 16.4,26.74 15.15,24.83 C14.78,24.26 14.49,23.64 14.29,22.97 C14.19,22.98 14.1,23 14,23 C12.9,23 12,22.1 12,21 C12,19.9 12.9,19 14,19 C14.1,19 14.19,19.02 14.29,19.03 C14.49,18.36 14.78,17.74 15.15,17.17 C16.4,15.26 18.55,14 21,14 C23.45,14 25.6,15.26 26.85,17.17 C27.22,17.74 27.51,18.36 27.71,19.03 C27.81,19.02 27.9,19 28,19 C29.1,19 30,19.9 30,21 C30,22.1 29.1,23 28,23 Z M16.5,23 C17.26,24.77 18.99,26 21,26 C23.01,26 24.74,24.77 25.5,23 L16.5,23 Z" id="Shape" fill="#FFFFFF" fill-rule="nonzero"></path>
                        </g>
                    </g>
                </g>
            </g>
        </g>
    </g>
</svg>