<svg height="41" viewBox="0 0 41 41" width="41" xmlns="http://www.w3.org/2000/svg"><g fill="none" fill-rule="evenodd"><path d="m-840-4390h1440v6628h-1440z" fill="#fff"/><g transform=""><circle cx="20.5" cy="20.5" fill="#fbbc04" fill-rule="nonzero" r="20.5"/><path d="m11 17h24v24h-24z"/><g fill="#fff" fill-rule="nonzero"><circle cx="23.25" cy="19.25" r="1.25"/><circle cx="18.25" cy="19.25" r="1.25"/><path d="m31.94 21.66c.04-.21.06-.43.06-.66s-.02-.45-.06-.66c-.25-1.51-1.36-2.74-2.81-3.17-.53-1.12-1.28-2.1-2.19-2.91-1.58-1.41-3.66-2.26-5.94-2.26s-4.36.85-5.94 2.26c-.92.81-1.67 1.8-2.19 2.91-1.45.43-2.56 1.65-2.81 3.17-.04.21-.06.43-.06.66s.02.45.06.66c.25 1.51 1.36 2.74 2.81 3.17.52 1.11 1.27 2.09 2.17 2.89 1.58 1.42 3.67 2.28 5.96 2.28s4.38-.86 5.97-2.28c.9-.8 1.65-1.79 2.17-2.89 1.44-.43 2.55-1.65 2.8-3.17zm-3.94 1.34c-.1 0-.19-.02-.29-.03-.2.67-.49 1.29-.86 1.86-1.25 1.91-3.4 3.17-5.85 3.17s-4.6-1.26-5.85-3.17c-.37-.57-.66-1.19-.86-1.86-.1.01-.19.03-.29.03-1.1 0-2-.9-2-2s.9-2 2-2c.1 0 .19.02.29.03.2-.67.49-1.29.86-1.86 1.25-1.91 3.4-3.17 5.85-3.17s4.6 1.26 5.85 3.17c.37.57.66 1.19.86 1.86.1-.01.19-.03.29-.03 1.1 0 2 .9 2 2s-.9 2-2 2zm-11.5 0c.76 1.77 2.49 3 4.5 3s3.74-1.23 4.5-3z"/></g></g></g></svg>