<svg height="70" viewBox="0 0 60 70" width="60" xmlns="http://www.w3.org/2000/svg"><g fill="none" fill-rule="evenodd"><path d="m57.2602353 33.9137791c0-4.5490245-1.7775608-8.8248223-5.0073929-12.0409763-3.2290367-3.215362-7.5238147-4.9861869-12.0921859-4.9861869 0 0-.0007953 0-.0015907 0-4.5675758 0-8.8615584 1.7708249-12.0905952 4.9861869-3.2298321 3.216154-5.0073929 7.4919518-5.0073929 12.0409763 0 4.1245333 1.4999909 8.0740432 4.212859 11.1737789.0429478.0871157.0922582.1718555.1582705.2486758 1.0267701 1.2101165 1.5914538 2.7520647 1.5914538 4.3399467 0 .0712765.0087487.1401771.0206786.2074938-.0095439.060189-.0182926.1203781-.0182926.183735v3.1678443c0 1.6456951.782604 3.1100311 1.9930951 4.0524648.002386.1496807.0087487.2985694.0238599.4458741-.0174972.082364-.0286318.1663118-.0286318.2534276v3.1678443c0 .1813591.0103392.3611342.0286318.5385335-.0174972.082364-.0286318.1663119-.0286318.2534276v3.1678443c0 1.6456951.7826039 3.1100312 1.993095 4.0524648.0501058 2.7948307 2.3462213 5.0550876 5.1648682 5.0550876h3.9766462c2.8186469 0 5.1147624-2.2602569 5.1648682-5.0550876 1.2104911-.9424336 1.9930951-2.4067697 1.9930951-4.0524648v-3.1678443c0-.0871157-.0111346-.1718556-.0286319-.2534276.0182926-.1773993.0286319-.3563825.0286319-.5385335v-3.1678443c0-.0871158-.0111346-.1718556-.0286319-.2534276.0159066-.1473047.0214739-.2954015.0238599-.4458741 1.2104911-.9424337 1.9930951-2.4067697 1.9930951-4.0524648v-3.1678443c0-.061773-.009544-.1203781-.0182926-.1805672.0127253-.0689006.0214739-.1393851.0214739-.2122455-.0007953-1.587882.5638884-3.1290383 1.5906585-4.3391548.065217-.0768202.1153227-.1607681.1574752-.2470919 2.7136634-3.0981517 4.2144497-7.0492455 4.2136543-11.1745708zm-13.1229326 33.9743384h-7.9532924c-1.3989842 0-2.5490303-1.0366771-2.7438859-2.3766752.7961245.4997274 1.7354084.792753 2.7438859.792753h7.9532924c1.0084775 0 1.946966-.2930256 2.743886-.792753-.1948557 1.3399981-1.3449018 2.3766752-2.743886 2.3766752zm-1.5906584-11.8794162h-4.7719755v-10.8435311l-4.3918081-10.9353986h13.556387l-4.3918081 10.9353986v10.8435311zm3.5789816 2.3758832c.1797444 0 .3563075-.0095035.5304846-.0269266-.4429984.9479774-1.4021655 1.6108488-2.5188078 1.6108488h-7.9532924c-1.1174376 0-2.0766047-.6628714-2.5188078-1.6108488.1741771.0174231.3515356.0269266.5304846.0269266zm.7555628 3.1670524c-.1948557 1.3399981-1.3449018 2.3766752-2.743886 2.3766752h-7.9532924c-1.3989842 0-2.5490303-1.0366771-2.7438859-2.3766752.7961245.4997274 1.7354084.792753 2.7438859.792753h7.9532924c1.0084775 0 1.946966-.2930256 2.743886-.792753zm-17.1250294-37.9982927c2.7788804-2.767112 6.4731847-4.2900531 10.4037019-4.2900531h.0007953c3.9313125 0 7.6264122 1.5237331 10.4052926 4.2900531 2.7788804 2.7663201 4.3082985 6.4465632 4.3082985 10.3612269.0007953 3.6446048-1.3512644 7.1363613-3.8056505 9.8345727-.062831.0689006-.0946441.1520565-.1375919.2304606-1.299568 1.6116408-2.019341 3.623222-2.0185456 5.69816 0 .060981.0095439.1203781.0182925.1797752-.0127252.0689006-.0214739.1385932-.0214739.2114536v3.1678443c0 1.5284849-1.2486669 2.7718638-2.7836523 2.7718638h-1.9883232v-10.5394181l4.7155072-11.7376552c.0206785-.0522694.0198832-.1053308.0294271-.1591841.0079533-.0459338.0278366-.0871158.0278366-.1354254 0-.0023759-.0015907-.0039598-.0015907-.0063357-.0007953-.0839478-.0222692-.1639359-.0493104-.2423401-.0063626-.019007-.004772-.0419739-.0135206-.060981-.0254505-.0586051-.0683983-.1069147-.1073694-.1583922-.0222693-.0300945-.0365852-.0657327-.0628311-.0926594-.0206785-.019799-.0501057-.0308865-.0731703-.0491016-.058059-.0467257-.116118-.0934514-.186107-.121962-.002386-.000792-.0039766-.0031679-.0063626-.0039598-.0501058-.019799-.1002115-.0182151-.1503173-.0277187-.048515-.0095035-.0938488-.0293025-.1447499-.0293025h-15.9065849c-.0556731 0-.1041882.020591-.1566799.0316784-.0469244.0087116-.0930535.0071277-.1391826.0245508-.002386.000792-.0039767.0031679-.0063627.0039598-.0699889.0293026-.1288433.0760283-.1876977.122754-.0222692.0174231-.0516964.0285106-.0715796.0483096-.0278365.0277187-.0429478.0657328-.0660123.0974112-.0365852.0498936-.0795329.0966193-.1033928.1528485-.0079533.0190071-.0063627.041974-.0135206.061773-.0262459.0784041-.0485151.1576002-.0493104.2415481 0 .0023759-.0015907.0039598-.0015907.0063357 0 .0483096.0190879.0902836.0278365.1370093.009544.0522694.0079533.1053308.0294272.1576002l4.7155071 11.7376552v10.5394181h-1.9883231c-1.5349854 0-2.7836524-1.2433789-2.7836524-2.7718638v-3.1678443c0-.0712765-.0087486-.1401772-.0206785-.2074938.0095439-.0601891.0182925-.1203781.0182925-.183735 0-2.0725622-.7181823-4.0825594-2.0153643-5.6926163-.0445384-.079988-.0763516-.1647279-.1407732-.2352124-2.4543861-2.6974194-3.8064458-6.1907598-3.8064458-9.8353647-.0015907-3.9130797 1.5278275-7.5925308 4.3075032-10.3596429zm12.3928203 48.2945787h-3.9766462c-1.1174376 0-2.0766047-.6628714-2.5188077-1.6108488.1741771.0174231.3515355.0269266.5304846.0269266h7.9532924c.1797445 0 .3563076-.0095035.5304847-.0269266-.4422031.9479774-1.4013702 1.6108488-2.5188078 1.6108488zm-7.6017569-48.7998498c-.1709958-.4031082.0174972-.8671974.4223198-1.038261 1.5715706-.6620795 3.2401714-.997871 4.9604685-.997871.4390218 0 .7953293.3547986.7953293.7919611s-.3563075.7919611-.7953293.7919611c-1.5063536 0-2.9665781.2938175-4.340907.8727411-.1010068.0427659-.2059903.0633569-.3093831.0633569-.3093831 0-.6044502-.1821511-.7324982-.4838882zm-2.3016829 1.5094778c-.1272526-.1663118-.1749724-.3801413-.1431592-.5860512.0318131-.2059099.1431592-.3959806.3101784-.5147747.3419915-.2534276.8669089-.1742315 1.1134609.1663118.2624587.3563825.1829257.8473984-.1670191 1.1087455-.1431593.102955-.3022251.1504726-.4771976.1504726-.246552 0-.4931041-.1187941-.6362634-.324704zm-2.5744807 4.8048279c-.5805904 1.3677167-.8756575 2.8217573-.8756575 4.3225235 0 .4371626-.3563076.7919611-.7953293.7919611s-.7953292-.3547985-.7953292-.7919611c0-1.7122198.3364242-3.3721702.9997288-4.9347095.0007953-.0007919 0-.0015839.0007953-.0023758.3817581-.8949161.8669089-1.750234 1.4474993-2.5421951.2545053-.3405433.7714694-.4197394 1.1134609-.1742314.3499449.2613471.4294778.7602826.1749725 1.1087455-.5074201.6866302-.9353072 1.4358254-1.2685502 2.217491-.0007953.0015839-.0007953.0023759-.0015906.0047518zm20.0709289-12.4440845.1988323-.3429191c.2195108-.3793494.7046617-.509231 1.0864197-.2898578.3801674.2185813.5106014.7032614.2910905 1.0818188l-.1988323.3429192c-.1479312.2542195-.4143665.3959805-.6895504.3959805-.1344107 0-.2712073-.0340543-.3968693-.1061228-.3801674-.2185812-.5106014-.7024694-.2910905-1.0818188zm1.7425663-2.5453629c-.0477197-.2059099-.0238598-.4197394.0874863-.6018904l1.9485566-3.3658346s0 0 0-.000792l.1988323-.3429191c.2195109-.37855743.7046617-.51002297 1.0864198-.28985779.3801674.21858126.5106014.70326139.2910905 1.08181879l-.1988323.3429192c-.0015907.0031678-.004772.0055437-.0063627.0087116l-1.9437846 3.3579149c-.1431593.245508-.405618.3959806-.6919365.3959806-.135206 0-.2783652-.0395981-.3976646-.1108746-.1829257-.1029549-.3181317-.2692667-.3738048-.4751766zm5.7343239 10.8981764c-.2195108-.3793493-.0890769-.8632376.2910905-1.0818188l.3443776-.1979903c.3809627-.2193732.8661135-.0886996 1.0864197.2898578.2195109.3793493.0890769.8632375-.2910905 1.0818188l-.3443775.1979903c-.125662.0720684-.2624587.1061228-.3968693.1061228-.2743886 0-.5416192-.1417611-.6895505-.3959806zm6.8318783-4.8396741s.0007953 0 0 0c.0015906-.000792.0015906-.000792.002386-.001584l.3443775-.1979902c.3801674-.2193733.8661136-.0894916 1.0864198.2898577.2195108.3793494.0890768.8632376-.2910905 1.0818189l-.3443776.1979902c-.0031813.0015839-.007158.0023759-.0103393.0039598l-3.372196 1.9355529c-.1192994.0712765-.2545053.1108746-.3976646.1108746-.2783653 0-.5487772-.1504726-.6839832-.3959806-.1113461-.182151-.1352059-.3959805-.0795329-.6018904.0556731-.2059099.1829257-.3722217.3658515-.4830963zm-3.0667896 15.5065979h-.3976646c-.4390218 0-.7953293-.3547985-.7953293-.7919611 0-.4371625.3563075-.791961.7953293-.791961h.3976646c.4390217 0 .7953292.3547985.7953292.791961 0 .4371626-.3563075.7919611-.7953292.7919611zm8.3493664-.7903771c0 .4371625-.3563075.791961-.7953292.791961h-.3976646c-.0031814 0-.0063627-.0015839-.009544-.0015839h-3.8971133c-.4374311 0-.7953293-.3563825-.7953293-.7919611s.3578982-.791961.7953293-.791961h3.9050666c.0031813 0 .0063626.0015839.009544.0015839h.3897113c.4390217 0 .7953292.3547985.7953292.7919611zm-10.5516331 10.8205642c-.1479312.2534276-.4143665.3959805-.6895505.3959805-.1344106 0-.2712072-.0340543-.3968693-.1061227l-.3443775-.1979903c-.3801674-.2185813-.5106014-.7032614-.2910905-1.0818188.2195108-.3785574.705457-.509231 1.0864197-.2898578l.3443776.1979903c.3801674.2185812.5106014.7032614.2910905 1.0818188zm6.5415831 3.7626071c-.1479313.2534275-.4143666.3959805-.6895505.3959805-.1344106 0-.2712073-.0340543-.3968693-.1061227l-.3443776-.1979903c-.0023859-.0015839-.0039766-.0047518-.0071579-.0063357l-3.3737867-1.9355529c-.381758-.2217491-.5090107-.7056373-.2942718-1.0849867.2147389-.3643021.7237496-.507647 1.0896011-.285106l3.3801493 1.9403047h.0007953l.3443776.1979903c.3801673.2185812.5106013.7032614.2910905 1.0818188zm-42.5413662-5.0281609c.2195109.3793494.0890769.8632376-.2910905 1.0818188l-.3443776.1979903c-.125662.0720685-.2624586.1061228-.3968693.1061228-.2751839 0-.5424145-.142553-.6895504-.3959806-.2195109-.3793493-.0890769-.8632375.2910905-1.0818188l.3443776-.1979903c.379372-.2201651.8661135-.0886996 1.0864197.2898578zm-6.8326736 4.8412581c-.0007953.0007919-.0007953.0007919-.0015906.0015839l-.3443776.1979903c-.125662.0720684-.2624586.1061228-.3968693.1061228-.2751839 0-.5424145-.142553-.6895504-.3959806-.2195109-.3793493-.0890769-.8632376.2910905-1.0818188l.3443775-.1979903c.0015907-.0007919.0031813-.0007919.004772-.0015839l3.3777633-1.9379288c.3658515-.2146214.8748622-.079988 1.0896011.2843141.1033928.182151.1272527.3959805.0715796.6026823-.0477197.2059099-.1829257.3722217-.3658514.4823043zm3.0675849-13.9242597c-.4390217 0-.7953292-.3547986-.7953292-.7919611s.3563075-.7919611.7953292-.7919611h.3976647c.4390217 0 .7953292.3547986.7953292.7919611s-.3563075.7919611-.7953292.7919611zm-7.1635305 0h-.391302c-.4390217 0-.7953292-.3547986-.7953292-.7919611s.3563075-.7919611.7953292-.7919611h.3976646c.002386 0 .004772.0015839.0079533.0015839h3.898704c.4374311 0 .7953293.3563825.7953293.7919611s-.3578982.7919611-.7953293.7919611h-3.9050666c-.0031813 0-.0055673-.0015839-.0079533-.0015839zm11.0884804-10.623366c-.1479313.2542195-.4143666.3959806-.6895505.3959806-.1344106 0-.2712072-.0340544-.3968693-.1061228l-.3443775-.1979903c-.3801674-.2185812-.5106014-.7032614-.2910905-1.0818188.2195108-.3793494.7046617-.509231 1.0864197-.2898578l.3443776.1979903c.3801674.2185812.5106014.7024695.2910905 1.0818188zm-8.2650616-4.7517665c.2195109-.3793493.7046618-.5092309 1.0864198-.2898577l.3443776.1979903c.0023859.0007919.0031813.0031678.0055673.0047517l3.374582 1.9371368c.1829257.1108746.3181317.2771864.3738047.4830963.0556731.2059099.0238599.4197394-.0795329.6018904-.1431593.2455079-.4056179.3959805-.6919365.3959805-.1431592 0-.2783652-.039598-.3976646-.1108745l-3.379354-1.9395127s-.0007953 0-.0007953-.000792l-.3443776-.1979902c-.3801673-.2185813-.5106013-.7032615-.2910905-1.0818189zm14.2817273-3.0363787c-.2195108-.3793494-.0890768-.8632376.2910906-1.0818189.3809627-.2193732.8661135-.0886996 1.0864197.2898578l.1988323.3429191c.2195109.3793494.0890769.8632376-.2910905 1.0818189-.125662.0720684-.2624586.1061227-.3968693.1061227-.2751839 0-.5424145-.141761-.6895504-.3959805zm-3.7770186-6.5154639c-.2195108-.3793493-.0890768-.86323753.2910906-1.08181879.3809627-.21937322.8661135-.08869964 1.0864197.28985775l.1988323.34291914c.0015907.0031679.0015907.0063357.0031813.0095035l1.9453754 3.3594989c.1113461.1821511.1352059.3959806.0795329.6018905-.055673.1979902-.1829257.3722217-.3658515.4751766-.1192993.0712765-.2624586.1108746-.3976646.1108746-.2863185 0-.5487772-.1504726-.6919364-.3959806l-1.9485567-3.3658346c0-.0007919 0-.0015839-.0007953-.0023758zm19.5324911 4.3296513.2059902-.7650344c.1145274-.4221153.5519585-.6731669.9742784-.5599165.4239104.1132504.6760298.5480371.5622977.9701523l-.2059902.7650344c-.0954395.3532147-.4167526.5868432-.7674928.5868432-.0683983 0-.1375919-.0087116-.2067856-.0277187-.4247058-.1124584-.6760298-.5464531-.5622977-.9693603zm1.8531171-6.88214182.2059903-.7650344c.1145274-.42211526.5519585-.67237496.9742783-.55991649.4239105.11325044.6760299.54803707.5622978.97015233l-.2059903.7650344c-.0954395.35321464-.4167525.58684316-.7674927.58684316-.0683983 0-.137592-.00871157-.2067856-.02771864-.4239105-.11245847-.6760299-.5472451-.5622978-.96936036zm8.1020191 11.34484252c.3109737-.3096568.8136218-.3096568 1.1245955 0 .3109737.3096567.3109737.8101761 0 1.1198329l-.5622978.5599165c-.1550892.1544324-.3586935.2320446-.5622977.2320446-.2036043 0-.4072086-.0776122-.5622978-.2320446-.3109738-.3096568-.3109738-.8101762 0-1.119833zm4.4999728-3.358707c-.3109737-.3096568-.3109737-.8101762 0-1.1198329l.5622978-.5599165c.3109738-.3096568.8136218-.3096568 1.1245956 0 .3109737.3096568.3109737.8101762 0 1.1198329l-.5622978.5599165c-.1550892.1544324-.3586935.2320446-.5622978.2320446s-.4072086-.0768202-.5622978-.2320446zm-.0111346 13.9139642c-.1137321-.4221152.137592-.8569018.5622978-.9701523l.7682881-.2051179c.4239105-.1156263.8605462.1378012.9742783.5599165.1137321.4221152-.137592.8569019-.5622978.9701523l-.768288.2051179c-.0683984.0182151-.1383873.0277187-.2059903.0277187-.3523309 0-.6728486-.2336285-.7682881-.5876352zm6.9130019-1.8428934c-.1137321-.4221152.1375919-.8569019.5622977-.9701523l.7682881-.2051179c.4231151-.1148344.8605462.1370092.9742783.5599165.1137321.4221152-.1375919.8569018-.5622978.9701523l-.768288.2051179c-.0683983.0182151-.1383873.0277186-.2059903.0277186-.3515355-.0007919-.6728485-.2344204-.768288-.5876351zm-6.9957161 12.0441441c.1137321-.4221152.5487772-.6739589.9742783-.5599165l.7682881.205118c.4247058.1132504.6760298.5472451.5622978.9701523-.0954396.3540066-.4167526.5868432-.7674928.5868432-.067603 0-.1367966-.0087116-.2059902-.0269267l-.7682881-.2051179c-.4247058-.1132505-.6768252-.5480371-.5630931-.9701524zm9.2170706 2.4606231c-.0954395.3540066-.4167525.5868432-.7674927.5868432-.067603 0-.1367966-.0087116-.2059903-.0269267l-.768288-.2051179c-.4247058-.1132505-.6760299-.5472451-.5622978-.9701524.1137321-.4229072.5487772-.6747508.9742783-.5599164l.7682881.2051179c.4239105.1132504.6752345.5480371.5615024.9701523zm-12.7244726 6.8924373c.3109737.3096568.3109737.8101762 0 1.119833-.1550892.1544324-.3586935.2320446-.5622978.2320446s-.4072085-.0776122-.5622978-.2320446l-.5622977-.5599165c-.3109738-.3096568-.3109738-.8101762 0-1.119833.3109737-.3096568.8136218-.3096568 1.1245955 0zm5.06068 5.0408323c.3109737.3096568.3109737.8101762 0 1.1198329-.1550892.1544325-.3586935.2320446-.5622978.2320446s-.4072085-.0776121-.5622977-.2320446l-.5622978-.5599164c-.3109738-.3096568-.3109738-.8101762 0-1.119833.3109737-.3096568.8136218-.3096568 1.1245955 0zm-34.7352096-5.8264577c.3109738.3096568.3109738.8101762 0 1.119833l-.5622978.5599165c-.1550892.1544324-.3586934.2320446-.5622977.2320446s-.4072086-.0776122-.5622978-.2320446c-.3109737-.3096568-.3109737-.8101762 0-1.119833l.5622978-.5599165c.3101784-.3096568.8136218-.3096568 1.1245955 0zm-5.0614753 5.0392484c.3109737.3096567.3109737.8101761 0 1.1198329l-.5622978.5599165c-.1550892.1544324-.3586935.2320446-.5622978.2320446s-.4072085-.0776122-.5622977-.2320446c-.3109738-.3096568-.3109738-.8101762 0-1.119833l.5622977-.5599164c.3109738-.3088649.8144172-.3088649 1.1245956 0zm-2.2929342-13.3001944c-.1137321-.4221153.1375919-.8569019.5622977-.9701524l.7682881-.2051179c.4231152-.1156263.8605462.1378013.9742783.5599165.1137321.4221153-.1375919.8569019-.5622978.9701523l-.768288.205118c-.0683983.0182151-.1383873.0269266-.2059903.0269266-.3523308.000792-.6736439-.2320446-.768288-.5868431zm-4.6097284 1.2299155c.1137321.4221153-.1375919.8569019-.5622977.9701524l-.7682881.2051179c-.0683983.0182151-.1383873.0269266-.2059903.0269266-.3515355 0-.6728485-.2328365-.7674927-.5868431-.1137321-.4221153.137592-.8569019.5622978-.9701523l.768288-.205118c.4215245-.1156263.859751.1370093.973483.5599165zm6.9973068-12.045728c-.0954395.3540066-.4167526.5876351-.7674928.5876351-.0676029 0-.1367966-.0087116-.2059902-.0277186l-.7682881-.2051179c-.4247058-.1132505-.6760298-.5472452-.5622978-.9701524.1137321-.4229072.5487772-.6747508.9742784-.5599165l.768288.205118c.4231152.1140424.6752346.548037.5615025.9701523zm-9.2186613-2.4590392c.113732-.4229072.5479818-.6731669.9742783-.5599165l.768288.205118c.4247059.1132504.6760299.5472451.5622978.9701523-.0954395.3540066-.4167525.5876351-.7674927.5876351-.067603 0-.1367966-.0087116-.2059903-.0277186l-.768288-.2051179c-.4255012-.1140424-.6768252-.5480371-.5630931-.9701524zm12.7252679-6.8932292c-.3109737-.3096568-.3109737-.8101762 0-1.119833.3109738-.3096568.8136218-.3096568 1.1245956 0l.5622978.5599165c.3109737.3096568.3109737.8101762 0 1.119833-.1550892.1544324-.3586935.2320446-.5622978.2320446s-.4072086-.0776122-.5622978-.2320446zm-5.0614753-5.0400403c-.3109737-.3096568-.3109737-.8101762 0-1.119833s.8136218-.3096568 1.1245955 0l.5622978.5599165c.3109738.3096568.3109738.8101762 0 1.119833-.1550892.1544324-.3586935.2320445-.5622978.2320445-.2036042 0-.4072085-.0776121-.5622977-.2320445zm14.4813549-.753947c-.113732-.4221152.137592-.8569019.5622978-.9701523.4239105-.1156263.8605463.1378012.9742783.5599165l.2059903.7650344c.1137321.4221152-.1375919.8569019-.5622978.9701523-.0683983.0182151-.1383872.0277186-.2059902.0277186-.3515356 0-.6728486-.2336285-.7674928-.5876351zm-1.8523218-6.88451766c-.1137321-.42211525.137592-.85690189.5622978-.97015232.4239105-.11562632.8605462.13780123.9742783.55991648l.2059903.76503441c.1137321.42211525-.137592.85690189-.5622978.97015232-.0683983.01821511-.1383873.02771864-.2059902.02771864-.3515356 0-.6728486-.23362852-.7674928-.58763512zm8.9554074 6.39191786v.3959806c0 .4371625-.3563075.791961-.7953293.791961-.4390217 0-.7953292-.3547985-.7953292-.791961v-.3959806c0-.4371625.3563075-.7919611.7953292-.7919611.4390218 0 .7953293.3547986.7953293.7919611zm-1.5922492-3.2367449v-3.88852892c0-.00316784.0015907-.00633569.0015907-.00950353v-.38885289c0-.43716252.3563075-.79196108.7953292-.79196108.4390218 0 .7953293.35479856.7953293.79196108v.39598054c0 .00316784-.0015907.00633569-.0015907.00950353v3.88060927c0 .4355786-.3578982.7919611-.7953293.7919611-.437431.000792-.7953292-.3555905-.7953292-.7911691z" fill="#80868b" fill-rule="nonzero" transform="translate(-10 -5)"/></g></svg>
