<?xml version="1.0" encoding="UTF-8"?>
<svg width="60px" height="70px" viewBox="0 0 60 70" version="1.1" xmlns="http://www.w3.org/2000/svg" xmlns:xlink="http://www.w3.org/1999/xlink">
    <!-- Generator: Sketch 51 (57462) - http://www.bohemiancoding.com/sketch -->
    <title>noun_1174504_cc</title>
    <desc>Created with Sketch.</desc>
    <defs></defs>
    <g id="Homepage" stroke="none" stroke-width="1" fill="none" fill-rule="evenodd">
        <g id="v7c" transform="translate(-1045.000000, -2547.000000)">
            <rect fill="#FFFFFF" x="0" y="0" width="1440" height="6628"></rect>
            <g id="noun_1174504_cc" transform="translate(1035.000000, 2542.000000)" fill="#80868B" fill-rule="nonzero">
                <path d="M57.2602353,33.9137791 C57.2602353,29.3647546 55.4826745,25.0889568 52.2528424,21.8728028 C49.0238057,18.6574408 44.7290277,16.8866159 40.1606565,16.8866159 C40.1606565,16.8866159 40.1598612,16.8866159 40.1590658,16.8866159 C35.59149,16.8866159 31.2975074,18.6574408 28.0684706,21.8728028 C24.8386385,25.0889568 23.0610777,29.3647546 23.0610777,33.9137791 C23.0610777,38.0383124 24.5610686,41.9878223 27.2739367,45.087558 C27.3168845,45.1746737 27.3661949,45.2594135 27.4322072,45.3362338 C28.4589773,46.5463503 29.023661,48.0882985 29.023661,49.6761805 C29.023661,49.747457 29.0324097,49.8163576 29.0443396,49.8836743 C29.0347957,49.9438633 29.026047,50.0040524 29.026047,50.0674093 L29.026047,53.2352536 C29.026047,54.8809487 29.808651,56.3452847 31.0191421,57.2877184 C31.0215281,57.4373991 31.0278908,57.5862878 31.043002,57.7335925 C31.0255048,57.8159565 31.0143702,57.8999043 31.0143702,57.9870201 L31.0143702,61.1548644 C31.0143702,61.3362235 31.0247094,61.5159986 31.043002,61.6933979 C31.0255048,61.7757619 31.0143702,61.8597098 31.0143702,61.9468255 L31.0143702,65.1146698 C31.0143702,66.7603649 31.7969741,68.224701 33.0074652,69.1671346 C33.057571,71.9619653 35.3536865,74.2222222 38.1723334,74.2222222 L42.1489796,74.2222222 C44.9676265,74.2222222 47.263742,71.9619653 47.3138478,69.1671346 C48.5243389,68.224701 49.3069429,66.7603649 49.3069429,65.1146698 L49.3069429,61.9468255 C49.3069429,61.8597098 49.2958083,61.7749699 49.278311,61.6933979 C49.2966036,61.5159986 49.3069429,61.3370154 49.3069429,61.1548644 L49.3069429,57.9870201 C49.3069429,57.8999043 49.2958083,57.8151645 49.278311,57.7335925 C49.2942176,57.5862878 49.2997849,57.438191 49.3021709,57.2877184 C50.512662,56.3452847 51.295266,54.8809487 51.295266,53.2352536 L51.295266,50.0674093 C51.295266,50.0056363 51.285722,49.9470312 51.2769734,49.8868421 C51.2896987,49.8179415 51.2984473,49.747457 51.2984473,49.6745966 C51.297652,48.0867146 51.8623357,46.5455583 52.8891058,45.3354418 C52.9543228,45.2586216 53.0044285,45.1746737 53.046581,45.0883499 C55.7602444,41.9901982 57.2610307,38.0391044 57.2602353,33.9137791 Z M44.1373027,67.8881175 L36.1840103,67.8881175 C34.7850261,67.8881175 33.63498,66.8514404 33.4401244,65.5114423 C34.2362489,66.0111697 35.1755328,66.3041953 36.1840103,66.3041953 L44.1373027,66.3041953 C45.1457802,66.3041953 46.0842687,66.0111697 46.8811887,65.5114423 C46.686333,66.8514404 45.5362869,67.8881175 44.1373027,67.8881175 Z M42.5466443,56.0087013 L37.7746688,56.0087013 L37.7746688,45.1651702 L33.3828607,34.2297716 L46.9392477,34.2297716 L42.5474396,45.1651702 L42.5474396,56.0087013 L42.5466443,56.0087013 Z M46.1256259,58.3845845 C46.3053703,58.3845845 46.4819334,58.375081 46.6561105,58.3576579 C46.2131121,59.3056353 45.253945,59.9685067 44.1373027,59.9685067 L36.1840103,59.9685067 C35.0665727,59.9685067 34.1074056,59.3056353 33.6652025,58.3576579 C33.8393796,58.375081 34.0167381,58.3845845 34.1956871,58.3845845 L46.1256259,58.3845845 Z M46.8811887,61.5516369 C46.686333,62.891635 45.5362869,63.9283121 44.1373027,63.9283121 L36.1840103,63.9283121 C34.7850261,63.9283121 33.63498,62.891635 33.4401244,61.5516369 C34.2362489,62.0513643 35.1755328,62.3443899 36.1840103,62.3443899 L44.1373027,62.3443899 C45.1457802,62.3443899 46.0842687,62.0513643 46.8811887,61.5516369 Z M29.7561593,23.5533442 C32.5350397,20.7862322 36.229344,19.2632911 40.1598612,19.2632911 C40.1598612,19.2632911 40.1606565,19.2632911 40.1606565,19.2632911 C44.091969,19.2632911 47.7870687,20.7870242 50.5659491,23.5533442 C53.3448295,26.3196643 54.8742476,29.9999074 54.8742476,33.9145711 C54.8750429,37.5591759 53.5229832,41.0509324 51.0685971,43.7491438 C51.0057661,43.8180444 50.973953,43.9012003 50.9310052,43.9796044 C49.6314372,45.5912452 48.9116642,47.6028264 48.9124596,49.6777644 C48.9124596,49.7387454 48.9220035,49.7981425 48.9307521,49.8575396 C48.9180269,49.9264402 48.9092782,49.9961328 48.9092782,50.0689932 L48.9092782,53.2368375 C48.9092782,54.7653224 47.6606113,56.0087013 46.1256259,56.0087013 L44.1373027,56.0087013 L44.1373027,45.4692832 L48.8528099,33.731628 C48.8734884,33.6793586 48.8726931,33.6262972 48.882237,33.5724439 C48.8901903,33.5265101 48.9100736,33.4853281 48.9100736,33.4370185 C48.9100736,33.4346426 48.9084829,33.4330587 48.9084829,33.4306828 C48.9076876,33.346735 48.8862137,33.2667469 48.8591725,33.1883427 C48.8528099,33.1693357 48.8544005,33.1463688 48.8456519,33.1273617 C48.8202014,33.0687566 48.7772536,33.020447 48.7382825,32.9689695 C48.7160132,32.938875 48.7016973,32.9032368 48.6754514,32.8763101 C48.6547729,32.8565111 48.6253457,32.8454236 48.6022811,32.8272085 C48.5442221,32.7804828 48.4861631,32.7337571 48.4161741,32.7052465 C48.4137881,32.7044545 48.4121975,32.7020786 48.4098115,32.7012867 C48.3597057,32.6814877 48.3096,32.6830716 48.2594942,32.673568 C48.2109792,32.6640645 48.1656454,32.6442655 48.1147443,32.6442655 L32.2081594,32.6442655 C32.1524863,32.6442655 32.1039712,32.6648565 32.0514795,32.6759439 C32.0045551,32.6846555 31.958426,32.6830716 31.9122969,32.7004947 C31.9099109,32.7012867 31.9083202,32.7036626 31.9059342,32.7044545 C31.8359453,32.7337571 31.7770909,32.7804828 31.7182365,32.8272085 C31.6959673,32.8446316 31.6665401,32.8557191 31.6466569,32.8755181 C31.6188204,32.9032368 31.6037091,32.9412509 31.5806446,32.9729293 C31.5440594,33.0228229 31.5011117,33.0695486 31.4772518,33.1257778 C31.4692985,33.1447849 31.4708891,33.1677518 31.4637312,33.1875508 C31.4374853,33.2659549 31.4152161,33.345151 31.4144208,33.4290989 C31.4144208,33.4314748 31.4128301,33.4330587 31.4128301,33.4354346 C31.4128301,33.4837442 31.431918,33.5257182 31.4406666,33.5724439 C31.4502106,33.6247133 31.4486199,33.6777747 31.4700938,33.7300441 L36.1856009,45.4676993 L36.1856009,56.0071174 L34.1972778,56.0071174 C32.6622924,56.0071174 31.4136254,54.7637385 31.4136254,53.2352536 L31.4136254,50.0674093 C31.4136254,49.9961328 31.4048768,49.9272321 31.3929469,49.8599155 C31.4024908,49.7997264 31.4112394,49.7395374 31.4112394,49.6761805 C31.4112394,47.6036183 30.6930571,45.5936211 29.3958751,43.9835642 C29.3513367,43.9035762 29.3195235,43.8188363 29.2551019,43.7483518 C26.8007158,41.0509324 25.4486561,37.557592 25.4486561,33.9129871 C25.4470654,29.9999074 26.9764836,26.3204563 29.7561593,23.5533442 Z M42.1489796,71.8479229 L38.1723334,71.8479229 C37.0548958,71.8479229 36.0957287,71.1850515 35.6535257,70.2370741 C35.8277028,70.2544972 36.0050612,70.2640007 36.1840103,70.2640007 L44.1373027,70.2640007 C44.3170472,70.2640007 44.4936103,70.2544972 44.6677874,70.2370741 C44.2255843,71.1850515 43.2664172,71.8479229 42.1489796,71.8479229 Z M34.5472227,23.0480731 C34.3762269,22.6449649 34.5647199,22.1808757 34.9695425,22.0098121 C36.5411131,21.3477326 38.2097139,21.0119411 39.930011,21.0119411 C40.3690328,21.0119411 40.7253403,21.3667397 40.7253403,21.8039022 C40.7253403,22.2410647 40.3690328,22.5958633 39.930011,22.5958633 C38.4236574,22.5958633 36.9634329,22.8896808 35.589104,23.4686044 C35.4880972,23.5113703 35.3831137,23.5319613 35.2797209,23.5319613 C34.9703378,23.5319613 34.6752707,23.3498102 34.5472227,23.0480731 Z M32.2455398,24.5575509 C32.1182872,24.3912391 32.0705674,24.1774096 32.1023806,23.9714997 C32.1341937,23.7655898 32.2455398,23.5755191 32.412559,23.456725 C32.7545505,23.2032974 33.2794679,23.2824935 33.5260199,23.6230368 C33.7884786,23.9794193 33.7089456,24.4704352 33.3590008,24.7317823 C33.2158415,24.8347373 33.0567757,24.8822549 32.8818032,24.8822549 C32.6352512,24.8822549 32.3886991,24.7634608 32.2455398,24.5575509 Z M29.6710591,29.3623788 C29.0904687,30.7300955 28.7954016,32.1841361 28.7954016,33.6849023 C28.7954016,34.1220649 28.439094,34.4768634 28.0000723,34.4768634 C27.5610506,34.4768634 27.2047431,34.1220649 27.2047431,33.6849023 C27.2047431,31.9726825 27.5411673,30.3127321 28.2044719,28.7501928 C28.2052672,28.7494009 28.2044719,28.7486089 28.2052672,28.747817 C28.5870253,27.8529009 29.0721761,26.997583 29.6527665,26.2056219 C29.9072718,25.8650786 30.4242359,25.7858825 30.7662274,26.0313905 C31.1161723,26.2927376 31.1957052,26.7916731 30.9411999,27.140136 C30.4337798,27.8267662 30.0058927,28.5759614 29.6726497,29.357627 C29.6718544,29.3592109 29.6718544,29.3600029 29.6710591,29.3623788 Z M49.741988,16.9182943 L49.9408203,16.5753752 C50.1603311,16.1960258 50.645482,16.0661442 51.02724,16.2855174 C51.4074074,16.5040987 51.5378414,16.9887788 51.3183305,17.3673362 L51.1194982,17.7102554 C50.971567,17.9644749 50.7051317,18.1062359 50.4299478,18.1062359 C50.2955371,18.1062359 50.1587405,18.0721816 50.0330785,18.0001131 C49.6529111,17.7815319 49.5224771,17.2976437 49.741988,16.9182943 Z M51.4845543,14.3729314 C51.4368346,14.1670215 51.4606945,13.953192 51.5720406,13.771041 L53.5205972,10.4052064 C53.5205972,10.4052064 53.5205972,10.4052064 53.5205972,10.4044144 L53.7194295,10.0614953 C53.9389404,9.68293787 54.4240912,9.55147233 54.8058493,9.77163751 C55.1860167,9.99021877 55.3164507,10.4748989 55.0969398,10.8534563 L54.8981075,11.1963755 C54.8965168,11.1995433 54.8933355,11.2019192 54.8917448,11.2050871 L52.9479602,14.563002 C52.8048009,14.80851 52.5423422,14.9589826 52.2560237,14.9589826 C52.1208177,14.9589826 51.9776585,14.9193845 51.8583591,14.848108 C51.6754334,14.7451531 51.5402274,14.5788413 51.4845543,14.3729314 Z M57.2188782,25.2711078 C56.9993674,24.8917585 57.1298013,24.4078702 57.5099687,24.189289 L57.8543463,23.9912987 C58.235309,23.7719255 58.7204598,23.9025991 58.940766,24.2811565 C59.1602769,24.6605058 59.0298429,25.144394 58.6496755,25.3629753 L58.305298,25.5609656 C58.179636,25.633034 58.0428393,25.6670884 57.9084287,25.6670884 C57.6340401,25.6670884 57.3668095,25.5253273 57.2188782,25.2711078 Z M64.0507565,20.4314337 C64.0507565,20.4314337 64.0515518,20.4314337 64.0507565,20.4314337 C64.0523471,20.4306417 64.0523471,20.4306417 64.0531425,20.4298497 L64.39752,20.2318595 C64.7776874,20.0124862 65.2636336,20.1423679 65.4839398,20.5217172 C65.7034506,20.9010666 65.5730166,21.3849548 65.1928493,21.6035361 L64.8484717,21.8015263 C64.8452904,21.8031102 64.8413137,21.8039022 64.8381324,21.8054861 L61.4659364,23.741039 C61.346637,23.8123155 61.2114311,23.8519136 61.0682718,23.8519136 C60.7899065,23.8519136 60.5194946,23.701441 60.3842886,23.455933 C60.2729425,23.273782 60.2490827,23.0599525 60.3047557,22.8540426 C60.3604288,22.6481327 60.4876814,22.4818209 60.6706072,22.3709463 L64.0507565,20.4314337 Z M60.9839669,35.9380316 L60.5863023,35.9380316 C60.1472805,35.9380316 59.790973,35.5832331 59.790973,35.1460705 C59.790973,34.708908 60.1472805,34.3541095 60.5863023,34.3541095 L60.9839669,34.3541095 C61.4229886,34.3541095 61.7792961,34.708908 61.7792961,35.1460705 C61.7792961,35.5832331 61.4229886,35.9380316 60.9839669,35.9380316 Z M69.3333333,35.1476545 C69.3333333,35.584817 68.9770258,35.9396155 68.5380041,35.9396155 L68.1403395,35.9396155 C68.1371581,35.9396155 68.1339768,35.9380316 68.1307955,35.9380316 L64.2336822,35.9380316 C63.7962511,35.9380316 63.4383529,35.5816491 63.4383529,35.1460705 C63.4383529,34.7104919 63.7962511,34.3541095 64.2336822,34.3541095 L68.1387488,34.3541095 C68.1419301,34.3541095 68.1451114,34.3556934 68.1482928,34.3556934 L68.5380041,34.3556934 C68.9770258,34.3556934 69.3333333,34.7104919 69.3333333,35.1476545 Z M58.7817002,45.9682187 C58.633769,46.2216463 58.3673337,46.3641992 58.0921497,46.3641992 C57.9577391,46.3641992 57.8209425,46.3301449 57.6952804,46.2580765 L57.3509029,46.0600862 C56.9707355,45.8415049 56.8403015,45.3568248 57.0598124,44.9782674 C57.2793232,44.59971 57.7652694,44.4690364 58.1462321,44.6884096 L58.4906097,44.8863999 C58.8707771,45.1049811 59.0012111,45.5896613 58.7817002,45.9682187 Z M65.3232833,49.7308258 C65.175352,49.9842533 64.9089167,50.1268063 64.6337328,50.1268063 C64.4993222,50.1268063 64.3625255,50.092752 64.2368635,50.0206836 L63.8924859,49.8226933 C63.8901,49.8211094 63.8885093,49.8179415 63.885328,49.8163576 L60.5115413,47.8808047 C60.1297833,47.6590556 60.0025306,47.1751674 60.2172695,46.795818 C60.4320084,46.4315159 60.9410191,46.288171 61.3068706,46.510712 L64.6870199,48.4510167 C64.6870199,48.4510167 64.6870199,48.4510167 64.6878152,48.4510167 L65.0321928,48.649007 C65.4123601,48.8675882 65.5427941,49.3522684 65.3232833,49.7308258 Z M22.7819171,44.7026649 C23.001428,45.0820143 22.870994,45.5659025 22.4908266,45.7844837 L22.146449,45.982474 C22.020787,46.0545425 21.8839904,46.0885968 21.7495797,46.0885968 C21.4743958,46.0885968 21.2071652,45.9460438 21.0600293,45.6926162 C20.8405184,45.3132669 20.9709524,44.8293787 21.3511198,44.6107974 L21.6954974,44.4128071 C22.0748694,44.192642 22.5616109,44.3241075 22.7819171,44.7026649 Z M15.9492435,49.543923 C15.9484482,49.5447149 15.9484482,49.5447149 15.9476529,49.5455069 L15.6032753,49.7434972 C15.4776133,49.8155656 15.3408167,49.84962 15.206406,49.84962 C14.9312221,49.84962 14.6639915,49.707067 14.5168556,49.4536394 C14.2973447,49.0742901 14.4277787,48.5904018 14.8079461,48.3718206 L15.1523236,48.1738303 C15.1539143,48.1730384 15.1555049,48.1730384 15.1570956,48.1722464 L18.5348589,46.2343176 C18.9007104,46.0196962 19.4097211,46.1543296 19.62446,46.5186317 C19.7278528,46.7007827 19.7517127,46.9146122 19.6960396,47.121314 C19.6483199,47.3272239 19.5131139,47.4935357 19.3301882,47.6036183 L15.9492435,49.543923 Z M19.0168284,35.6196633 C18.5778067,35.6196633 18.2214992,35.2648647 18.2214992,34.8277022 C18.2214992,34.3905397 18.5778067,34.0357411 19.0168284,34.0357411 L19.4144931,34.0357411 C19.8535148,34.0357411 20.2098223,34.3905397 20.2098223,34.8277022 C20.2098223,35.2648647 19.8535148,35.6196633 19.4144931,35.6196633 L19.0168284,35.6196633 Z M11.8532979,35.6196633 L11.4619959,35.6196633 C11.0229742,35.6196633 10.6666667,35.2648647 10.6666667,34.8277022 C10.6666667,34.3905397 11.0229742,34.0357411 11.4619959,34.0357411 L11.8596605,34.0357411 C11.8620465,34.0357411 11.8644325,34.037325 11.8676138,34.037325 L15.7663178,34.037325 C16.2037489,34.037325 16.5616471,34.3937075 16.5616471,34.8292861 C16.5616471,35.2648647 16.2037489,35.6212472 15.7663178,35.6212472 L11.8612512,35.6212472 C11.8580699,35.6212472 11.8556839,35.6196633 11.8532979,35.6196633 Z M22.9417783,24.9962973 C22.793847,25.2505168 22.5274117,25.3922779 22.2522278,25.3922779 C22.1178172,25.3922779 21.9810206,25.3582235 21.8553585,25.2861551 L21.510981,25.0881648 C21.1308136,24.8695836 21.0003796,24.3849034 21.2198905,24.006346 C21.4394013,23.6269966 21.9245522,23.497115 22.3063102,23.7164882 L22.6506878,23.9144785 C23.0308552,24.1330597 23.1612892,24.616948 22.9417783,24.9962973 Z M14.6767167,20.2445308 C14.8962276,19.8651815 15.3813785,19.7352999 15.7631365,19.9546731 L16.1075141,20.1526634 C16.1099,20.1534553 16.1106954,20.1558312 16.1130814,20.1574151 L19.4876634,22.0945519 C19.6705891,22.2054265 19.8057951,22.3717383 19.8614681,22.5776482 C19.9171412,22.7835581 19.885328,22.9973876 19.7819352,23.1795386 C19.6387759,23.4250465 19.3763173,23.5755191 19.0899987,23.5755191 C18.9468395,23.5755191 18.8116335,23.5359211 18.6923341,23.4646446 L15.3129801,21.5251319 C15.3129801,21.5251319 15.3121848,21.5251319 15.3121848,21.5243399 L14.9678072,21.3263497 C14.5876399,21.1077684 14.4572059,20.6230882 14.6767167,20.2445308 Z M28.958444,17.2081521 C28.7389332,16.8288027 28.8693672,16.3449145 29.2495346,16.1263332 C29.6304973,15.90696 30.1156481,16.0376336 30.3359543,16.416191 L30.5347866,16.7591101 C30.7542975,17.1384595 30.6238635,17.6223477 30.2436961,17.840929 C30.1180341,17.9129974 29.9812375,17.9470517 29.8468268,17.9470517 C29.5716429,17.9470517 29.3044123,17.8052907 29.1572764,17.5510712 L28.958444,17.2081521 Z M25.1814254,10.6926882 C24.9619146,10.3133389 25.0923486,9.82945067 25.472516,9.61086941 C25.8534787,9.39149619 26.3386295,9.52216977 26.5589357,9.90072716 L26.757768,10.2436463 C26.7593587,10.2468142 26.7593587,10.249982 26.7609493,10.2531498 L28.7063247,13.6126487 C28.8176708,13.7947998 28.8415306,14.0086293 28.7858576,14.2145392 C28.7301846,14.4125294 28.6029319,14.5867609 28.4200061,14.6897158 C28.3007068,14.7609923 28.1575475,14.8005904 28.0223415,14.8005904 C27.736023,14.8005904 27.4735643,14.6501178 27.3304051,14.4046098 L25.3818484,11.0387752 C25.3818484,11.0379833 25.3818484,11.0371913 25.3810531,11.0363994 C25.3810531,11.0363994 25.3810531,11.0363994 25.3810531,11.0363994 L25.1814254,10.6926882 Z M44.7139165,15.0223395 L44.9199067,14.2573051 C45.0344341,13.8351898 45.4718652,13.5841382 45.8941851,13.6973886 C46.3180955,13.810639 46.5702149,14.2454257 46.4564828,14.6675409 L46.2504926,15.4325753 C46.1550531,15.78579 45.83374,16.0194185 45.4829998,16.0194185 C45.4146015,16.0194185 45.3454079,16.0107069 45.2762142,15.9916998 C44.8515084,15.8792414 44.6001844,15.4452467 44.7139165,15.0223395 Z M46.5670336,8.14019768 L46.7730239,7.37516328 C46.8875513,6.95304802 47.3249824,6.70278832 47.7473022,6.81524679 C48.1712127,6.92849723 48.4233321,7.36328386 48.3096,7.78539912 L48.1036097,8.55043352 C48.0081702,8.90364816 47.6868572,9.13727668 47.336117,9.13727668 C47.2677187,9.13727668 47.198525,9.12856511 47.1293314,9.10955804 C46.7054209,8.99709957 46.4533015,8.56231294 46.5670336,8.14019768 Z M54.6690527,19.4850402 C54.9800264,19.1753834 55.4826745,19.1753834 55.7936482,19.4850402 C56.1046219,19.7946969 56.1046219,20.2952163 55.7936482,20.6048731 L55.2313504,21.1647896 C55.0762612,21.319222 54.8726569,21.3968342 54.6690527,21.3968342 C54.4654484,21.3968342 54.2618441,21.319222 54.1067549,21.1647896 C53.7957811,20.8551328 53.7957811,20.3546134 54.1067549,20.0449566 L54.6690527,19.4850402 Z M59.1690255,16.1263332 C58.8580518,15.8166764 58.8580518,15.316157 59.1690255,15.0065003 L59.7313233,14.4465838 C60.0422971,14.136927 60.5449451,14.136927 60.8559189,14.4465838 C61.1668926,14.7562406 61.1668926,15.25676 60.8559189,15.5664167 L60.2936211,16.1263332 C60.1385319,16.2807656 59.9349276,16.3583778 59.7313233,16.3583778 C59.527719,16.3583778 59.3241147,16.2815576 59.1690255,16.1263332 Z M59.1578909,30.0402974 C59.0441588,29.6181822 59.2954829,29.1833956 59.7201887,29.0701451 L60.4884768,28.8650272 C60.9123873,28.7494009 61.349023,29.0028284 61.4627551,29.4249437 C61.5764872,29.8470589 61.3251631,30.2818456 60.9004573,30.395096 L60.1321693,30.6002139 C60.0637709,30.618429 59.993782,30.6279326 59.926179,30.6279326 C59.5738481,30.6279326 59.2533304,30.3943041 59.1578909,30.0402974 Z M66.0708928,28.197404 C65.9571607,27.7752888 66.2084847,27.3405021 66.6331905,27.2272517 L67.4014786,27.0221338 C67.8245937,26.9072994 68.2620248,27.159143 68.3757569,27.5820503 C68.489489,28.0041655 68.238165,28.4389521 67.8134591,28.5522026 L67.0451711,28.7573205 C66.9767728,28.7755356 66.9067838,28.7850391 66.8391808,28.7850391 C66.4876453,28.7842472 66.1663323,28.5506187 66.0708928,28.197404 Z M59.0751767,40.2415481 C59.1889088,39.8194329 59.6239539,39.5675892 60.049455,39.6816316 L60.8177431,39.8867496 C61.2424489,40 61.4937729,40.4339947 61.3800409,40.8569019 C61.2846013,41.2109085 60.9632883,41.4437451 60.6125481,41.4437451 C60.5449451,41.4437451 60.4757515,41.4350335 60.4065579,41.4168184 L59.6382698,41.2117005 C59.213564,41.09845 58.9614446,40.6636634 59.0751767,40.2415481 Z M68.2922473,42.7021712 C68.1968078,43.0561778 67.8754948,43.2890144 67.5247546,43.2890144 C67.4571516,43.2890144 67.387958,43.2803028 67.3187643,43.2620877 L66.5504763,43.0569698 C66.1257705,42.9437193 65.8744464,42.5097247 65.9881785,42.0868174 C66.1019106,41.6639102 66.5369557,41.4120666 66.9624568,41.526901 L67.7307449,41.7320189 C68.1546554,41.8452693 68.4059794,42.280056 68.2922473,42.7021712 Z M55.5677747,49.5946085 C55.8787484,49.9042653 55.8787484,50.4047847 55.5677747,50.7144415 C55.4126855,50.8688739 55.2090812,50.9464861 55.0054769,50.9464861 C54.8018726,50.9464861 54.5982684,50.8688739 54.4431791,50.7144415 L53.8808814,50.154525 C53.5699076,49.8448682 53.5699076,49.3443488 53.8808814,49.034692 C54.1918551,48.7250352 54.6945032,48.7250352 55.0054769,49.034692 L55.5677747,49.5946085 Z M60.6284547,54.6354408 C60.9394284,54.9450976 60.9394284,55.445617 60.6284547,55.7552737 C60.4733655,55.9097062 60.2697612,55.9873183 60.0661569,55.9873183 C59.8625526,55.9873183 59.6589484,55.9097062 59.5038592,55.7552737 L58.9415614,55.1953573 C58.6305876,54.8857005 58.6305876,54.3851811 58.9415614,54.0755243 C59.2525351,53.7658675 59.7551832,53.7658675 60.0661569,54.0755243 L60.6284547,54.6354408 Z M25.8932451,48.8089831 C26.2042189,49.1186399 26.2042189,49.6191593 25.8932451,49.9288161 L25.3309473,50.4887326 C25.1758581,50.643165 24.9722539,50.7207772 24.7686496,50.7207772 C24.5650453,50.7207772 24.361441,50.643165 24.2063518,50.4887326 C23.8953781,50.1790758 23.8953781,49.6785564 24.2063518,49.3688996 L24.7686496,48.8089831 C25.078828,48.4993263 25.5822714,48.4993263 25.8932451,48.8089831 Z M20.8317698,53.8482315 C21.1427435,54.1578882 21.1427435,54.6584076 20.8317698,54.9680644 L20.269472,55.5279809 C20.1143828,55.6824133 19.9107785,55.7600255 19.7071742,55.7600255 C19.5035699,55.7600255 19.2999657,55.6824133 19.1448765,55.5279809 C18.8339027,55.2183241 18.8339027,54.7178047 19.1448765,54.4081479 L19.7071742,53.8482315 C20.018148,53.5393666 20.5215914,53.5393666 20.8317698,53.8482315 Z M18.5388356,40.5480371 C18.4251035,40.1259218 18.6764275,39.6911352 19.1011333,39.5778847 L19.8694214,39.3727668 C20.2925366,39.2571405 20.7299676,39.5105681 20.8436997,39.9326833 C20.9574318,40.3547986 20.7061078,40.7895852 20.2814019,40.9028356 L19.5131139,41.1079536 C19.4447156,41.1261687 19.3747266,41.1348802 19.3071236,41.1348802 C18.9547928,41.1356722 18.6334797,40.9028356 18.5388356,40.5480371 Z M13.9291072,41.7779526 C14.0428393,42.2000679 13.7915153,42.6348545 13.3668095,42.748105 L12.5985214,42.9532229 C12.5301231,42.971438 12.4601341,42.9801495 12.3925311,42.9801495 C12.0409956,42.9801495 11.7196826,42.747313 11.6250384,42.3933064 C11.5113063,41.9711911 11.7626304,41.5364045 12.1873362,41.4231541 L12.9556242,41.2180361 C13.3771487,41.1024098 13.8153752,41.3550454 13.9291072,41.7779526 Z M20.926414,29.7322246 C20.8309745,30.0862312 20.5096614,30.3198597 20.1589212,30.3198597 C20.0913183,30.3198597 20.0221246,30.3111481 19.952931,30.2921411 L19.1846429,30.0870232 C18.7599371,29.9737727 18.5086131,29.539778 18.6223451,29.1168708 C18.7360772,28.6939636 19.1711223,28.44212 19.5966235,28.5569543 L20.3649115,28.7620723 C20.7880267,28.8761147 21.0401461,29.3101093 20.926414,29.7322246 Z M11.7077527,27.2731854 C11.8214847,26.8502782 12.2557345,26.6000185 12.682031,26.7132689 L13.450319,26.9183869 C13.8750249,27.0316373 14.1263489,27.465632 14.0126168,27.8885392 C13.9171773,28.2425458 13.5958643,28.4761743 13.2451241,28.4761743 C13.1775211,28.4761743 13.1083275,28.4674627 13.0391338,28.4484557 L12.2708458,28.2433378 C11.8453446,28.1292954 11.5940206,27.6953007 11.7077527,27.2731854 Z M24.4330206,20.3799562 C24.1220469,20.0702994 24.1220469,19.56978 24.4330206,19.2601232 C24.7439944,18.9504664 25.2466424,18.9504664 25.5576162,19.2601232 L26.119914,19.8200397 C26.4308877,20.1296965 26.4308877,20.6302159 26.119914,20.9398727 C25.9648248,21.0943051 25.7612205,21.1719173 25.5576162,21.1719173 C25.3540119,21.1719173 25.1504076,21.0943051 24.9953184,20.9398727 L24.4330206,20.3799562 Z M19.3715453,15.3399159 C19.0605716,15.0302591 19.0605716,14.5297397 19.3715453,14.2200829 C19.682519,13.9104261 20.1851671,13.9104261 20.4961408,14.2200829 L21.0584386,14.7799994 C21.3694124,15.0896562 21.3694124,15.5901756 21.0584386,15.8998324 C20.9033494,16.0542648 20.6997451,16.1318769 20.4961408,16.1318769 C20.2925366,16.1318769 20.0889323,16.0542648 19.9338431,15.8998324 L19.3715453,15.3399159 Z M33.8529002,14.5859689 C33.7391682,14.1638537 33.9904922,13.729067 34.415198,13.6158166 C34.8391085,13.5001903 35.2757443,13.7536178 35.3894763,14.1757331 L35.5954666,14.9407675 C35.7091987,15.3628827 35.4578747,15.7976694 35.0331688,15.9109198 C34.9647705,15.9291349 34.8947816,15.9386384 34.8271786,15.9386384 C34.475643,15.9386384 34.15433,15.7050099 34.0596858,15.3510033 L33.8529002,14.5859689 Z M32.0005784,7.70145124 C31.8868463,7.27933599 32.1381704,6.84454935 32.5628762,6.73129892 C32.9867867,6.6156726 33.4234224,6.86910015 33.5371545,7.2912154 L33.7431448,8.05624981 C33.8568769,8.47836506 33.6055528,8.9131517 33.180847,9.02640213 C33.1124487,9.04461724 33.0424597,9.05412077 32.9748568,9.05412077 C32.6233212,9.05412077 32.3020082,8.82049225 32.207364,8.46648565 L32.0005784,7.70145124 Z M40.9559858,14.0933691 L40.9559858,14.4893497 C40.9559858,14.9265122 40.5996783,15.2813107 40.1606565,15.2813107 C39.7216348,15.2813107 39.3653273,14.9265122 39.3653273,14.4893497 L39.3653273,14.0933691 C39.3653273,13.6562066 39.7216348,13.301408 40.1606565,13.301408 C40.5996783,13.301408 40.9559858,13.6562066 40.9559858,14.0933691 Z M39.3637366,10.8566242 L39.3637366,6.96809528 C39.3637366,6.96492744 39.3653273,6.96175959 39.3653273,6.95859175 L39.3653273,6.56973886 C39.3653273,6.13257634 39.7216348,5.77777778 40.1606565,5.77777778 C40.5996783,5.77777778 40.9559858,6.13257634 40.9559858,6.56973886 L40.9559858,6.9657194 C40.9559858,6.96888724 40.9543951,6.97205509 40.9543951,6.97522293 L40.9543951,10.8558322 C40.9543951,11.2914108 40.5964969,11.6477933 40.1590658,11.6477933 C39.7216348,11.6485853 39.3637366,11.2922028 39.3637366,10.8566242 Z" id="Shape"></path>
            </g>
        </g>
    </g>
</svg>