<svg viewBox="0 0 130 130" xmlns="http://www.w3.org/2000/svg"><defs><linearGradient x1="43.774%" y1="31.301%" x2="78.702%" y2="73.208%" id="a"><stop stop-opacity=".2" offset="0%"/><stop stop-opacity="0" offset="100%"/></linearGradient></defs><g fill="none" fill-rule="evenodd"><path d="M65.3.832C29.711.832.83 29.712.83 65.302c0 35.583 28.881 64.47 64.47 64.47 35.59 0 64.47-28.887 64.47-64.47 0-35.59-28.88-64.47-64.47-64.47" fill="#4285F4"/><path d="M128.933 63.708a64.755 64.755 0 0 1-1.047 12.412l-53.418 52.046a64.869 64.869 0 0 1-11.222.76L10.94 74.8l29.663-14.399 23.864 23.97L105.3 35.3l23.633 28.407z" fill="url(#a)" transform="translate(.833 .833)"/><path fill="#FFF" d="M41.95 45.362l23.333 23.333 19.21-19.203-13.36-13.358h35v35L92.776 57.775 65.283 85.204 41.95 61.87 19.999 83.827l-8.225-8.225"/></g></svg>