<svg viewBox="0 0 20 21" xmlns="http://www.w3.org/2000/svg" xmlns:xlink="http://www.w3.org/1999/xlink"><defs><path id="a" d="M0 .904h19.684v15.518H0z"/><path id="c" d="M0 .905h19.684v3.283H0z"/><path id="e" d="M0 .984h19.684v1H0z"/><path id="g" d="M0 21.096h19.691V1H0z"/></defs><g transform="translate(0 -1)" fill="none" fill-rule="evenodd"><path fill-opacity=".2" fill="#000" d="M3.274 6.432h6.263v7.158H3.274z"/><g transform="translate(0 .096)"><mask id="b" fill="#fff"><use xlink:href="#a"/></mask><path d="M17.895 16.422c.984 0 1.789-.806 1.789-1.79V2.693c0-.983-.796-1.789-1.79-1.789H1.79A1.79 1.79 0 0 0 0 2.693v11.939c0 .984.796 1.79 1.79 1.79h16.105zM1.79 14.632h16.105V4.188H1.79v10.444z" fill="#E6E6E6" mask="url(#b)"/></g><g transform="translate(0 .096)"><mask id="d" fill="#fff"><use xlink:href="#c"/></mask><path d="M19.684 4.188V2.694c0-.984-.796-1.79-1.79-1.79H1.79c-.993 0-1.79.806-1.79 1.79v1.494h19.685z" fill-opacity=".15" fill="#000" mask="url(#d)"/></g><path d="M2.229 3.775a.916.916 0 1 1-.002-1.833.916.916 0 0 1 .002 1.833zM4.774 3.775a.916.916 0 1 1-.002-1.833.916.916 0 0 1 .002 1.833zM7.319 3.775a.916.916 0 1 1-.002-1.833.916.916 0 0 1 .002 1.833z" fill-opacity=".3" fill="#8C8C8C"/><g transform="translate(0 3.096)"><mask id="f" fill="#fff"><use xlink:href="#e"/></mask><path fill-opacity=".2" fill="#000" mask="url(#f)" d="M19.684 1.189H0v.308l1.789.025-.003-.233 17.898.49z"/></g><path d="M2.871 2.642a.917.917 0 1 1-1.834 0 .917.917 0 0 1 1.834 0M5.416 2.642a.917.917 0 1 1-1.834 0 .917.917 0 0 1 1.834 0M7.96 2.642a.916.916 0 1 1-1.832.001.916.916 0 0 1 1.832-.001" fill="#8C8C8C"/><mask id="h" fill="#fff"><use xlink:href="#g"/></mask><path fill="#E6E6E6" mask="url(#h)" d="M10.669 9.16h6.158V5.922h-6.158zM10.669 13.08h6.158v-3.068h-6.158z"/><path fill-opacity=".2" fill="#000" mask="url(#h)" d="M8.49 13.984l3.687 3.67 3.997-4.01-2.79-2.78 6.295-.012.005 7.296-1.781-2.78-5.721 5.727L7.31 16.24l-.3.314-.531-.526z"/><path fill="#E94335" mask="url(#h)" d="M6.304 12.799l4.872 4.855 3.997-4.01-2.789-2.78 7.295-.011.013 7.296-2.789-2.781-5.721 5.728L6.31 16.24l-4.568 4.583L.025 19.11z"/><path fill="#4285F4" mask="url(#h)" d="M2.699 13.08h6.263V5.922H2.699z"/><path d="M4.623 7.74l-.509-.514-.4.402.511.51.398-.399zM2.984 9.92h.854v-.57h-.854v.57zm2.277 1.192v1.37H6.97v-1.37a1.709 1.709 0 0 0-.854-3.186 1.707 1.707 0 1 0-.854 3.186zM8.392 9.92h.57v-.569h-.57v.57zM5.83 7.357h.57v-.839h-.57v.84zm2.69.274l-.4-.402-.51.513.401.401.51-.512z" fill-opacity=".2" fill="#000" mask="url(#h)"/><path d="M4.34 7.345l-.51-.513-.402.402.513.509.398-.398zM2.7 9.524h.853v-.57H2.7v.57zm2.277 1.194v1.369h1.708v-1.37c.508-.296.853-.845.853-1.476a1.71 1.71 0 0 0-3.416 0c0 .63.345 1.18.855 1.477zm3.131-1.193h.854v-.57h-.854v.57zM5.546 6.963h.57v-.84h-.57v.84zm2.69.274l-.402-.402-.51.513.402.4.51-.511z" fill="#FBBC05" mask="url(#h)"/></g></svg>