<svg viewBox="0 0 24 22" xmlns="http://www.w3.org/2000/svg" xmlns:xlink="http://www.w3.org/1999/xlink"><defs><path d="M10.332 1.576c-.725.756-.928 2.059-1.187 3.697-.283 1.783-.684 4.134-1.702 4.723-1.328.768-1.82-.046-2.276-.629C7.943 7.066 7.819 3.844 7.018 2.46c-.8-1.384-2.627-1.838-4.069-1.004-1.327.768-2.867 3.103-.946 7.176L0 9.791l1.178 2.036 2.011-1.163c.9 1.272 2.865 2.906 5.26 1.522 1.832-1.06 2.504-3.525 2.685-4.64.129-.867.509-2.991.583-3.294.063-.362.159-1.004.509-1.206.366-.213.977.336 1.198 1.393.227 1.053.206 2.988.151 3.738-.098 1.295-.154 2.176.486 3.284l1.964-.93c-.29-.543-.202-1.003-.188-1.543.006-.46.496-4.515-.643-6.486C14.591 1.46 13.701.823 12.699.707a2.82 2.82 0 0 0-2.367.869z" id="a"/><path d="M10.339 6.961l4.034 2.044a2.93 2.93 0 0 1 1.586 3.113l-.784 4.61a1.946 1.946 0 0 1-1.928 1.635H7.08a2.266 2.266 0 0 1-1.616-.675L.482 12.705l1.37-1.39a1.943 1.943 0 0 1 1.38-.578c.118 0 .216.01.314.031l.098.019 1.801.382V3.19a2.448 2.448 0 0 1 4.894 0v3.771zm3.691 4.834a.984.984 0 0 0-.538-1.037l-3.387-1.695H8.382V3.19a.485.485 0 0 0-.49-.489.484.484 0 0 0-.489.489v10.386l-4.161-.871 3.603 3.603a.363.363 0 0 0 .235.097h6.167l.783-4.61z" id="c"/></defs><g fill="none" fill-rule="evenodd"><path d="M4.07 2.76c.251-.145.724-.136.94.238.283.489.442 2.136-1.037 3.6C2.951 4.266 3.5 3.09 4.07 2.76zm11.954 7.083c-.289-.543-.2-1.003-.187-1.543.005-.46.496-4.516-.644-6.486C14.59.772 13.7.134 12.698.019a2.814 2.814 0 0 0-2.366.869c-.725.756-.929 2.059-1.187 3.696-.284 1.783-.684 4.135-1.702 4.724-1.328.767-1.82-.046-2.276-.63C7.943 6.378 7.82 3.158 7.018 1.773 6.218.388 4.39-.066 2.95.768 1.621 1.535.082 3.87 2.003 7.945L0 9.103l1.177 2.036L3.19 9.976c.9 1.272 2.865 2.906 5.26 1.52 1.831-1.058 2.504-3.523 2.684-4.638.13-.868.51-2.991.584-3.294.062-.362.158-1.004.508-1.206.366-.213.977.336 1.198 1.393.228 1.053.207 2.989.151 3.738-.098 1.295-.154 2.176.487 3.284l1.963-.93z" fill="#34A853"/><g transform="translate(0 -.688)"><mask id="b" fill="#fff"><use xlink:href="#a"/></mask><path d="M2.543 11.084l.244.867 2.74-2.49-.123-.24-2.86 1.863zm-1.36-2.741l.248.62 2.542-1.677-.107-.258-2.683 1.315zM17.87 10.12V6.35a2.448 2.448 0 0 0-2.447-2.448 2.448 2.448 0 0 0-2.447 2.448v7.978l-1.801-.382-.098-.02a1.522 1.522 0 0 0-.314-.03c-.518 0-1.008.207-1.38.579l-1.37 1.389 4.982 4.984c.421.43 1.008.674 1.616.674h6.166c.96 0 1.773-.684 1.93-1.634l.782-4.611a2.93 2.93 0 0 0-1.585-3.113l-4.034-2.044zm3.692 4.834l-.785 4.61H14.61a.363.363 0 0 1-.234-.097l-3.603-3.603 4.16.872V6.35c0-.275.216-.49.49-.49s.49.215.49.49v5.873h1.721l3.389 1.694a.985.985 0 0 1 .538 1.037z" fill-opacity=".2" fill="#000" mask="url(#b)"/></g><path d="M18.34 10.273V6.502a2.448 2.448 0 0 0-4.896 0v7.979l-1.8-.382-.098-.02a1.46 1.46 0 0 0-.314-.03c-.518 0-1.008.206-1.38.578l-1.37 1.39L13.464 21c.421.43 1.008.674 1.615.674h6.167c.96 0 1.772-.685 1.93-1.634l.782-4.611a2.93 2.93 0 0 0-1.586-3.113l-4.033-2.044zm3.69 4.834l-.784 4.61H15.08a.365.365 0 0 1-.235-.097l-3.602-3.603 4.16.87V6.503c0-.274.216-.49.49-.49s.49.216.49.49v5.874h1.722l3.387 1.694a.983.983 0 0 1 .538 1.037z" fill="#4285F4"/><path d="M22.03 15.107l-.783 4.61H15.08a.363.363 0 0 1-.235-.097l-3.603-3.603 4.16.87V6.504c0-.275.216-.49.49-.49s.49.215.49.49v5.873h1.723l3.387 1.694a.983.983 0 0 1 .538 1.037" fill="#FFF"/><g transform="translate(8 3.312)"><mask id="d" fill="#fff"><use xlink:href="#c"/></mask><path fill-opacity=".2" fill="#000" mask="url(#d)" d="M7.82 10.062L16.233 20l-16.657-.387V-.55l8.244.143z"/></g></g></svg>