<svg viewBox="0 0 130 131" xmlns="http://www.w3.org/2000/svg"><g fill="none" fill-rule="evenodd"><path d="M45.96 67.634c-4.45 0-8.055 3.61-8.055 8.061a8.057 8.057 0 0 0 8.056 8.056c4.45 0 8.055-3.61 8.055-8.056 0-4.45-3.605-8.061-8.055-8.061M84.64 67.634c-4.45 0-8.056 3.61-8.056 8.061a8.057 8.057 0 0 0 8.056 8.056c4.451 0 8.056-3.61 8.056-8.056 0-4.45-3.605-8.061-8.056-8.061" fill="#4285F4"/><path d="M113.796 69.252c0 26.77-21.73 48.492-48.493 48.492-26.769 0-48.498-21.723-48.498-48.492 0-26.77 21.73-48.493 48.498-48.493 26.764 0 48.493 21.724 48.493 48.493m-109.743 0c0 33.81 27.44 61.25 61.25 61.25 33.804 0 61.25-27.44 61.25-61.25s-27.446-61.25-61.25-61.25c-33.81 0-61.25 27.44-61.25 61.25" fill="#4285F4"/><path d="M125.035 55.637c-.583-2.048-1.068-4.083-1.808-6.13C112.942 26.93 92.94 9.956 66.55 9.956c-33.956 0-62.662 24.412-62.662 57.685 0 2.1.175 3.844.327 6.096l10.348-4.014c15.43-6.865 26.834-15.423 33.244-31.056 11.836 16.741 32.142 23.601 54.18 23.601 16.112 0 23.048-6.632 23.048-6.632" fill="#000" opacity=".1"/><path d="M126.174 47.998c-8.79-25.154-32.737-43.214-60.877-43.214C29.714 4.784.833 33.665.833 69.254l13.213-5.547c15.219-6.767 27.27-19.21 33.588-34.615 11.673 16.502 30.882 27.27 52.605 27.27 5.034 0 7.607-.244 14.508-1.68 6.9-1.434 11.427-6.684 11.427-6.684" fill="#34A853"/><path d="M100.542 56.326c5.414 0 8.266.123 15.663-1.563 9.362-2.13 13.317-7.402 13.317-7.402C119.501 18.054 93.222.834 62.947.834 54.652.834 41.8 3.51 34.544 7.437c0 0 15.657 48.89 65.998 48.89" fill="#34964E"/><path d="M31.613 14.37c2.526 5.274 6.89 12.787 13.528 20.062a66.276 66.276 0 0 0 2.065-4.422c-5.56-7.093-9.094-13.953-10.95-18.212-1.58.8-3.138 1.651-4.643 2.573" fill="#000" opacity=".2"/></g></svg>