<?xml version="1.0" encoding="UTF-8"?>
<svg width="86px" height="36px" viewBox="0 0 86 36" version="1.1" xmlns="http://www.w3.org/2000/svg" xmlns:xlink="http://www.w3.org/1999/xlink">
    <!-- Generator: Sketch 49 (51002) - http://www.bohemiancoding.com/sketch -->
    <title>BCG_Logo_compact_PMS</title>
    <desc>Created with Sketch.</desc>
    <defs></defs>
    <g id="Page-1" stroke="none" stroke-width="1" fill="none" fill-rule="evenodd">
        <g id="A4" transform="translate(-206.000000, -158.000000)" fill="#006348">
            <g id="BCG_Logo_compact_PMS" transform="translate(206.000000, 157.000000)">
                <path d="M71.196,20.495 L71.196,21.039 C71.196,21.335 71.245,21.484 71.542,21.484 C76.592,21.633 76.592,22.178 76.592,26.138 L76.592,29.307 C76.592,32.672 74.413,34.753 70.009,34.753 C62.631,34.753 59.462,27.674 59.462,18.762 C59.462,10.344 61.739,2.274 69.859,2.274 C74.463,2.274 78.325,5.395 78.622,11.037 C78.622,11.387 78.82,11.387 79.068,11.387 L79.563,11.387 C79.514,9.106 79.463,3.662 79.463,1.333 L79.167,1.333 C78.82,1.333 78.671,1.383 78.622,1.581 L78.175,4.056 L78.128,4.056 C75.802,1.928 72.483,0.987 69.363,0.987 C59.809,0.987 53.472,9.106 53.472,18.91 C53.472,20.543 53.619,22.08 53.966,23.516 L53.867,24.903 C53.323,32.426 48.916,34.753 44.262,34.753 C36.885,34.753 33.37,27.971 33.37,18.762 C33.37,10.394 35.449,2.274 43.569,2.274 C47.679,2.274 51.243,4.9 51.985,9.205 C52.035,9.554 52.183,9.554 52.43,9.554 L52.926,9.554 C52.877,7.275 52.826,3.662 52.826,1.333 L52.529,1.333 C52.183,1.333 52.035,1.383 51.985,1.581 L51.54,4.007 L51.49,4.007 C49.212,1.928 46.043,0.987 42.974,0.987 C33.617,0.987 27.38,9.106 27.38,18.91 C27.38,19.801 27.478,20.692 27.578,21.533 L27.478,21.533 C25.596,18.858 21.835,17.523 17.327,17.327 L17.327,17.227 C22.23,16.236 25.548,13.759 25.548,9.602 C25.548,3.263 18.715,1.682 13.219,1.682 C11.734,1.682 8.367,1.78 7.327,1.78 C4.902,1.78 2.278,1.731 0,1.682 L0,2.223 C0,2.521 0.048,2.67 0.347,2.67 C4.355,2.821 4.355,3.364 4.355,9.554 L4.355,27.475 C4.355,33.661 4.355,34.208 0.397,34.357 C0.048,34.357 0,34.505 0,34.803 L0,35.346 C2.326,35.298 4.556,35.25 6.931,35.25 C9.902,35.25 11.19,35.346 15.101,35.346 C23.32,35.346 28.419,31.435 28.767,26.436 L28.865,26.436 C31.39,32.328 36.885,36.04 44.163,36.04 C47.579,36.04 50.748,34.95 53.323,32.871 L53.371,32.871 L53.817,35.447 C53.867,35.644 54.016,35.692 54.36,35.692 L54.658,35.692 C54.658,34.059 54.707,29.604 54.759,26.286 L54.857,26.286 C57.333,32.426 62.927,36.04 69.71,36.04 C76.294,36.04 78.721,31.929 81.543,31.929 C81.792,31.929 81.89,31.832 81.89,31.435 C81.89,30.941 81.792,29.503 81.792,28.663 L81.792,26.386 C81.792,22.178 81.792,21.633 84.663,21.484 C85.008,21.484 85.057,21.335 85.057,21.039 L85.057,20.495 C82.73,20.543 81.196,20.592 78.82,20.592 C76.394,20.592 73.473,20.543 71.196,20.495 Z M14.854,34.059 C10.397,34.059 9.705,33.318 9.705,27.128 L9.705,18.215 L11.685,18.215 C17.625,18.215 23.021,19.652 23.021,26.041 C23.021,31.09 20.052,34.059 14.854,34.059 Z M9.705,17.029 L9.705,3.563 C9.705,3.216 9.753,3.115 10.248,3.066 C10.941,3.018 12.624,2.965 13.418,2.965 C17.575,3.018 20.199,5.443 20.199,10.047 C20.199,15.199 17.033,17.029 11.784,17.029 L9.705,17.029 Z" id="Fill-1"></path>
            </g>
        </g>
    </g>
</svg>