<?xml version="1.0" encoding="utf-8"?>
<!-- Generator: Adobe Illustrator 22.0.1, SVG Export Plug-In . SVG Version: 6.00 Build 0)  -->
<svg version="1.1" xmlns="http://www.w3.org/2000/svg" xmlns:xlink="http://www.w3.org/1999/xlink" x="0px" y="0px"
	 viewBox="0 0 90.5 40.2" style="enable-background:new 0 0 90.5 40.2;" xml:space="preserve">
<style type="text/css">
	.st0{fill:#FFFFFF;}
</style>
<g>
	<g>
		<path class="st0" d="M15.2,18.5V5.1c0-0.3,0-0.4,0.5-0.5c0.7,0,2.4-0.1,3.2-0.1c4.2,0.1,6.8,2.5,6.8,7.1c0,5.2-3.2,7-8.4,7H15.2z
			 M20.4,35.6c-4.5,0-5.1-0.7-5.1-6.9v-8.9h2c5.9,0,11.3,1.4,11.3,7.8C28.5,32.6,25.6,35.6,20.4,35.6z M76.7,22v0.5
			c0,0.3,0,0.4,0.3,0.4c5.1,0.1,5.1,0.7,5.1,4.7v3.2c0,3.4-2.2,5.4-6.6,5.4c-7.4,0-10.5-7.1-10.5-16c0-8.4,2.3-16.5,10.4-16.5
			c4.6,0,8.5,3.1,8.8,8.8c0,0.3,0.2,0.3,0.4,0.3h0.5C85,10.6,85,5.2,85,2.8h-0.3c-0.3,0-0.5,0-0.5,0.2l-0.4,2.5h0
			c-2.3-2.1-5.6-3.1-8.8-3.1C65.3,2.5,59,10.6,59,20.4c0,1.6,0.1,3.2,0.5,4.6l-0.1,1.4c-0.5,7.5-5,9.9-9.6,9.9
			c-7.4,0-10.9-6.8-10.9-16c0-8.4,2.1-16.5,10.2-16.5c4.1,0,7.7,2.6,8.4,6.9c0.1,0.3,0.2,0.3,0.4,0.3h0.5c0-2.3-0.1-5.9-0.1-8.2H58
			c-0.3,0-0.5,0-0.5,0.2l-0.4,2.4H57c-2.3-2.1-5.4-3-8.5-3c-9.4,0-15.6,8.1-15.6,17.9c0,0.9,0.1,1.8,0.2,2.6H33
			c-1.9-2.7-5.6-4-10.2-4.2v-0.1c4.9-1,8.2-3.5,8.2-7.6c0-6.3-6.8-7.9-12.3-7.9c-1.5,0-4.9,0.1-5.9,0.1c-2.4,0-5,0-7.3-0.1v0.5
			c0,0.3,0,0.4,0.3,0.4c4,0.2,4,0.7,4,6.9V29c0,6.2,0,6.7-4,6.9c-0.3,0-0.4,0.1-0.4,0.4v0.5c2.3,0,4.6-0.1,6.9-0.1
			c3,0,4.3,0.1,8.2,0.1c8.2,0,13.3-3.9,13.7-8.9h0.1c2.5,5.9,8,9.6,15.3,9.6c3.4,0,6.6-1.1,9.2-3.2h0l0.4,2.6c0,0.2,0.2,0.2,0.5,0.2
			h0.3c0-1.6,0-6.1,0.1-9.4h0.1c2.5,6.1,8.1,9.8,14.9,9.8c6.6,0,9-4.1,11.8-4.1c0.2,0,0.3-0.1,0.3-0.5c0-0.5-0.1-1.9-0.1-2.8v-2.3
			c0-4.2,0-4.8,2.9-4.9c0.3,0,0.4-0.1,0.4-0.4V22c-2.3,0-3.9,0.1-6.2,0.1C81.9,22.1,79,22.1,76.7,22z"/>
	</g>
</g>
</svg>
