<?xml version="1.0" encoding="UTF-8"?>
<svg width="89px" height="17px" viewBox="0 0 89 17" version="1.1" xmlns="http://www.w3.org/2000/svg" xmlns:xlink="http://www.w3.org/1999/xlink">
    <!-- Generator: Sketch 53 (72520) - https://sketchapp.com -->
    <title>deloitte logo</title>
    <desc>Created with Sketch.</desc>
    <defs>
        <polygon id="path-1" points="0 16.8549547 88.8323415 16.8549547 88.8323415 -6.41509432e-05 0 -6.41509432e-05"></polygon>
    </defs>
    <g id="landing-page-copy" stroke="none" stroke-width="1" fill="none" fill-rule="evenodd">
        <g id="Google_DMB-publishers_landing-page_extra-large" transform="translate(-122.000000, -458.000000)">
            <g id="Group-2" transform="translate(80.000000, 128.000000)">
                <g id="Group" transform="translate(41.000000, 60.000000)">
                    <g id="Group-3">
                        <g id="Group-14" transform="translate(1.000000, 242.000000)">
                            <g id="deloitte-logo" transform="translate(0.000000, 28.000000)">
                                <g id="Group-14-Copy">
                                    <mask id="mask-2" fill="white">
                                        <use xlink:href="#path-1"></use>
                                    </mask>
                                    <g id="Clip-6"></g>
                                    <path d="M84.4774838,14.6262226 C84.4774838,13.3958075 85.4524099,12.3985811 86.6545366,12.3985811 C87.8566634,12.3985811 88.8322162,13.3958075 88.8322162,14.6262226 C88.8322162,15.8576 87.8566634,16.8548264 86.6545366,16.8548264 C85.4524099,16.8548264 84.4774838,15.8576 84.4774838,14.6262226" id="Fill-12" fill="#A2C532" mask="url(#mask-2)"></path>
                                    <path d="M5.69371232,13.3585679 C5.53012782,13.3723604 5.2841243,13.3784547 5.12649401,13.3784547 L3.87861373,13.3784547 C3.88049401,13.3774925 3.87861373,3.34620943 3.87861373,3.34620943 C4.31013838,3.3067566 4.85855387,3.28045472 5.2252088,3.28045472 C7.51319824,3.28045472 9.95129683,4.79986981 9.95129683,8.30956792 C9.95129683,11.970983 7.65986021,13.192417 5.69371232,13.3585679 L5.69371232,13.3585679 Z M0.000219366197,16.6110208 L0.000219366197,0.186775472 C1.53484261,0.0539830189 2.91716303,9.62264148e-05 4.47152923,9.62264148e-05 C10.5288567,9.62264148e-05 14.0384025,2.98343585 14.0384025,8.30956792 C14.0384025,12.5733604 11.5019025,16.2658887 5.40602923,16.5882472 C5.12022641,16.6033226 4.75576514,16.6110208 4.45397993,16.6110208 L0.000219366197,16.6110208 Z M28.213,16.5928981 L28.213,0.268086792 L32.148743,0.268086792 L32.148743,16.5928981 L28.213,16.5928981 Z M40.0001412,16.8511377 C36.4272926,16.8511377 33.9221306,14.3434774 33.9221306,10.6509491 C33.9221306,7.70834528 35.5984018,4.2820434 40.1928701,4.2820434 C44.656032,4.2820434 46.1800004,7.8180434 46.1800004,10.4504774 C46.1800004,14.8714396 43.0715813,16.8511377 40.0001412,16.8511377 Z M40.0531025,13.8633075 C41.3009827,13.8633075 42.1179651,12.5613642 42.1179651,10.5511943 C42.1179651,9.03723208 41.580518,7.27372264 40.0665778,7.27372264 C38.4974827,7.27372264 37.9346518,8.97500566 37.9346518,10.5688358 C37.9346518,12.569383 38.7745109,13.8633075 40.0531025,13.8633075 Z M47.8914014,16.5928981 L47.8914014,4.54663396 L51.8271444,4.54663396 L51.8271444,16.5928981 L47.8914014,16.5928981 Z M47.8914014,3.40121887 L47.8914014,0.273539623 L51.8271444,0.273539623 L51.8271444,3.40121887 L47.8914014,3.40121887 Z M54.94415,1.26903396 L58.7971606,0.824467925 L58.7971606,4.54522264 L61.3411817,4.54522264 L61.3411817,7.53048679 L58.7971606,7.53048679 L58.7971606,11.7917132 C58.7971606,12.4559962 58.9692063,12.8649585 59.2089423,13.1157887 C59.5451993,13.4679774 60.0155831,13.509034 60.3317838,13.509034 C60.6580127,13.509034 61.5505197,13.3553925 61.6771254,13.3108075 C61.6771254,13.3223547 61.7090901,16.4654302 61.7059563,16.4686377 C61.5119739,16.5334302 61.0688542,16.6264491 60.5693261,16.7034302 C60.0296852,16.7858642 59.4433507,16.8403925 58.924393,16.8403925 C56.1566183,16.8403925 54.94415,15.1798453 54.94415,12.4656189 L54.94415,7.53048679 L53.4317768,7.53048679 L53.4317768,4.54522264 L54.94415,4.54522264 L54.94415,1.26903396 Z M64.0502289,1.26903396 L67.9038662,0.824467925 L67.9038662,4.54522264 L70.4469472,4.54522264 L70.4469472,7.53048679 L67.9038662,7.53048679 L67.9038662,11.7917132 C67.9038662,12.4559962 68.0752852,12.8649585 68.3150211,13.1157887 C68.6512782,13.4679774 69.1213486,13.509034 69.4375493,13.509034 C69.7644049,13.509034 70.6562852,13.3553925 70.7828908,13.3108075 C70.7828908,13.3223547 70.8148556,16.4654302 70.8117218,16.4686377 C70.6177394,16.5334302 70.1746197,16.6264491 69.6744648,16.7034302 C69.1354507,16.7858642 68.5494296,16.8403925 68.0304718,16.8403925 C65.2626972,16.8403925 64.0502289,15.1798453 64.0502289,12.4656189 L64.0502289,7.53048679 L62.5378556,7.53048679 L62.5378556,4.54522264 L64.0502289,4.54522264 L64.0502289,1.26903396 Z M25.0859349,13.2977849 L25.6710158,16.0649358 C25.115706,16.3192943 24.4588609,16.5200868 23.863125,16.6445396 C23.2890123,16.7638604 22.5933081,16.8511057 21.6418856,16.8511057 C17.9060792,16.8511057 15.2304384,14.6103132 15.2304384,10.6929358 C15.2304384,7.29486038 17.2420264,4.26212453 21.0204525,4.26212453 C24.9101285,4.26212453 26.435037,7.14121887 26.435037,10.2775585 C26.435037,10.9524264 26.3397694,11.5939358 26.285868,11.8588792 L19.0276673,11.8588792 C19.2454665,13.238766 20.5773327,13.8183698 22.2786743,13.8183698 C22.8051532,13.8183698 23.3231708,13.7612755 23.8239525,13.6573509 C24.250463,13.5685019 24.6766602,13.4398792 25.0859349,13.2977849 Z M20.9543292,7.07546415 C19.6606954,7.07546415 18.9499489,8.11310566 18.9499489,9.15940755 L22.8274032,9.15940755 C22.8274032,8.42070943 22.3930581,7.07546415 20.9543292,7.07546415 Z M81.4336525,13.2977849 L82.0187335,16.0649358 C81.463737,16.3192943 80.8068919,16.5200868 80.2114694,16.6445396 C79.6367299,16.7638604 78.9413391,16.8511057 77.9902299,16.8511057 C74.2541102,16.8511057 71.5787827,14.6103132 71.5787827,10.6929358 C71.5787827,7.29486038 73.5900574,4.26212453 77.3687968,4.26212453 C81.2578461,4.26212453 82.7827546,7.14121887 82.7827546,10.2775585 C82.7827546,10.9524264 82.6878004,11.5939358 82.6338989,11.8588792 L75.3760116,11.8588792 C75.5938109,13.238766 76.9256771,13.8183698 78.6267053,13.8183698 C79.1531842,13.8183698 79.6708884,13.7612755 80.1716701,13.6573509 C80.5981806,13.5685019 81.0246912,13.4398792 81.4336525,13.2977849 Z M77.3026736,7.07546415 C76.0087264,7.07546415 75.2982933,8.11310566 75.2982933,9.15940755 L79.1757475,9.15940755 C79.1757475,8.42070943 78.7410891,7.07546415 77.3026736,7.07546415 Z" id="Fill-13" fill="#000000" mask="url(#mask-2)"></path>
                                </g>
                            </g>
                        </g>
                    </g>
                </g>
            </g>
        </g>
    </g>
</svg>