<svg width="291" height="24" viewBox="0 0 291 24" xmlns="http://www.w3.org/2000/svg"><g fill="none" fill-rule="evenodd"><path d="M9.445 18.618C4.314 18.618 0 14.441 0 9.31 0 4.18 4.314 0 9.445 0c2.839 0 4.859 1.112 6.381 2.565L14.032 4.36c-1.09-1.022-2.566-1.816-4.587-1.816-3.746 0-6.675 3.02-6.675 6.766s2.929 6.766 6.675 6.766c2.43 0 3.814-.976 4.7-1.862.726-.726 1.204-1.77 1.385-3.2H9.445V8.468h8.56c.091.454.137 1 .137 1.59 0 1.907-.523 4.268-2.203 5.948-1.635 1.703-3.724 2.611-6.494 2.611z" fill="#4285F4"/><path d="M28.795 12.624c0-2.157-1.538-3.633-3.322-3.633-1.783 0-3.321 1.476-3.321 3.633 0 2.134 1.538 3.633 3.32 3.633 1.785 0 3.323-1.499 3.323-3.633m2.586 0c0 3.451-2.653 5.994-5.908 5.994-3.254 0-5.907-2.543-5.907-5.994 0-3.474 2.653-5.994 5.907-5.994 3.255 0 5.908 2.52 5.908 5.994" fill="#EA4335"/><path d="M42.039 12.624c0-2.157-1.538-3.633-3.322-3.633-1.783 0-3.322 1.476-3.322 3.633 0 2.134 1.539 3.633 3.322 3.633 1.784 0 3.322-1.499 3.322-3.633m2.586 0c0 3.451-2.653 5.994-5.908 5.994-3.255 0-5.907-2.543-5.907-5.994 0-3.474 2.652-5.994 5.907-5.994s5.908 2.52 5.908 5.994" fill="#FBBC05"/><path d="M55.221 12.647c0-2.111-1.408-3.656-3.2-3.656-1.817 0-3.339 1.545-3.339 3.656 0 2.089 1.522 3.61 3.338 3.61 1.793 0 3.201-1.521 3.201-3.61zm2.316-5.654v10.763c0 4.427-2.61 6.244-5.699 6.244-2.906 0-4.654-1.953-5.313-3.542l2.293-.954c.41.976 1.408 2.134 3.02 2.134 1.975 0 3.202-1.225 3.202-3.52v-.862h-.092c-.59.727-1.725 1.362-3.155 1.362-2.997 0-5.744-2.61-5.744-5.971 0-3.383 2.747-6.017 5.744-6.017 1.43 0 2.565.636 3.155 1.34h.092v-.977h2.497z" fill="#4285F4"/><path fill="#34A853" d="M59.519 18.255h2.634V.636h-2.634z"/><path d="M66.218 12.443l5.359-2.225c-.296-.75-1.181-1.272-2.225-1.272-1.34 0-3.201 1.18-3.134 3.497m6.289 2.157l2.044 1.362c-.658.977-2.248 2.657-4.995 2.657-3.405 0-5.865-2.634-5.865-5.994 0-3.565 2.482-5.995 5.57-5.995 3.11 0 4.632 2.475 5.13 3.815l.273.68-8.015 3.316c.614 1.203 1.567 1.816 2.907 1.816 1.339 0 2.27-.658 2.95-1.657" fill="#EA4335"/><g opacity=".627" fill="#292D33"><path d="M89.637 15.374c1.414 0 2.519-.4 3.314-1.202.796-.8 1.193-1.912 1.193-3.334 0-1.41-.397-2.517-1.193-3.324-.795-.808-1.9-1.211-3.314-1.211h-2.033v9.071h2.033zM85.625 4.37h4.047c1.308 0 2.451.272 3.43.814a5.548 5.548 0 0 1 2.253 2.286c.525.982.787 2.104.787 3.37 0 1.264-.262 2.388-.787 3.37a5.551 5.551 0 0 1-2.253 2.285c-.979.543-2.122.813-3.43.813h-4.047V4.37zM97.468 17.307h1.944V8.093h-1.944v9.214zm.043-10.796a1.308 1.308 0 0 1-.38-.949c0-.373.127-.689.38-.948a1.25 1.25 0 0 1 .929-.389c.365 0 .674.13.927.389.254.26.38.575.38.948 0 .374-.126.69-.38.95a1.25 1.25 0 0 1-.927.387c-.365 0-.675-.13-.929-.388zM106.376 15.153c.4-.23.719-.568.955-1.014.235-.445.353-.97.353-1.575 0-.925-.25-1.646-.751-2.163-.501-.515-1.123-.773-1.865-.773-.483 0-.925.116-1.326.346-.4.232-.719.568-.954 1.006-.236.44-.354.968-.354 1.584 0 .618.118 1.146.354 1.585.235.439.554.773.954 1.004.401.232.843.347 1.326.347.471 0 .907-.115 1.308-.347m-4.074 5.57c-.725-.518-1.211-1.133-1.459-1.843l1.821-.778c.189.482.492.871.91 1.166.419.295.91.442 1.476.442.825 0 1.47-.26 1.936-.779.465-.52.698-1.241.698-2.165v-.85h-.106a3.058 3.058 0 0 1-1.175 1.02c-.49.248-1.052.371-1.689.371a3.977 3.977 0 0 1-2.103-.59c-.648-.394-1.164-.952-1.547-1.673-.383-.723-.574-1.549-.574-2.48 0-.93.191-1.757.574-2.479.383-.722.899-1.283 1.547-1.682.648-.4 1.35-.6 2.103-.6.625 0 1.185.127 1.68.38.495.253.89.595 1.184 1.03h.106v-1.12h1.856V16.8c0 1-.189 1.853-.566 2.557a3.79 3.79 0 0 1-1.582 1.6c-.677.36-1.458.542-2.342.542-1.107 0-2.024-.26-2.748-.778M111.201 17.307h1.945V8.093H111.2v9.214zm.045-10.796a1.308 1.308 0 0 1-.38-.949c0-.373.126-.689.38-.948.253-.26.562-.389.928-.389.365 0 .674.13.928.389.253.26.38.575.38.948 0 .374-.127.69-.38.95a1.25 1.25 0 0 1-.928.387 1.25 1.25 0 0 1-.928-.388zM117.282 17.394a2.472 2.472 0 0 1-.866-.534c-.507-.528-.76-1.246-.76-2.154V9.845h-1.573V8.093h1.573V5.49h1.944v2.603h2.192v1.752H117.6v4.445c0 .507.094.865.283 1.075.177.247.483.37.92.37.2 0 .376-.027.53-.08.153-.055.318-.142.494-.263v1.934c-.389.18-.86.27-1.414.27-.4 0-.778-.067-1.131-.202M125.148 15.61c.377-.23.672-.537.884-.922.212-.386.318-.802.318-1.248a3.94 3.94 0 0 0-.946-.378 4.29 4.29 0 0 0-1.122-.145c-.73 0-1.267.147-1.609.442-.341.296-.512.678-.512 1.148 0 .421.159.767.477 1.04.318.27.73.405 1.237.405.472 0 .895-.114 1.273-.343m-3.34 1.6a2.857 2.857 0 0 1-1.185-1.103 3.104 3.104 0 0 1-.424-1.617c0-.952.35-1.705 1.052-2.259.7-.554 1.587-.831 2.66-.831.53 0 1.007.051 1.432.153.424.103.76.214 1.007.334v-.47c0-.565-.207-1.026-.619-1.381-.412-.356-.942-.533-1.59-.533-.46 0-.893.102-1.3.307a2.564 2.564 0 0 0-.98.849l-1.362-1.066c.401-.567.92-1.005 1.556-1.32.636-.312 1.343-.469 2.121-.469 1.308 0 2.316.328 3.023.985.707.656 1.06 1.58 1.06 2.773v5.746h-1.909v-1.102h-.088c-.26.397-.625.73-1.096.994-.472.265-1.014.398-1.626.398-.65 0-1.227-.13-1.733-.389M129.62 17.307h1.944V4.37h-1.944zM136.779 4.37h2.686l3.642 9.811h.106l3.64-9.811h2.688v12.937h-1.962v-7.245l.106-2.331h-.106l-3.624 9.576h-1.59L138.74 7.73h-.106l.106 2.33v7.246h-1.962zM155.533 15.61c.377-.23.671-.537.883-.922.212-.386.319-.802.319-1.248a3.94 3.94 0 0 0-.946-.378 4.29 4.29 0 0 0-1.123-.145c-.73 0-1.266.147-1.608.442-.342.296-.513.678-.513 1.148 0 .421.16.767.478 1.04.318.27.73.405 1.237.405.471 0 .895-.114 1.273-.343m-3.341 1.6a2.857 2.857 0 0 1-1.184-1.103 3.104 3.104 0 0 1-.425-1.617c0-.952.35-1.705 1.052-2.259.701-.554 1.588-.831 2.66-.831.53 0 1.008.051 1.432.153.424.103.76.214 1.008.334v-.47c0-.565-.207-1.026-.62-1.381-.412-.356-.942-.533-1.59-.533-.46 0-.893.102-1.3.307a2.564 2.564 0 0 0-.98.849l-1.361-1.066c.4-.567.919-1.005 1.555-1.32.637-.312 1.344-.469 2.121-.469 1.308 0 2.316.328 3.023.985.707.656 1.06 1.58 1.06 2.773v5.746h-1.908v-1.102h-.089c-.26.397-.624.73-1.096.994-.472.265-1.013.398-1.626.398-.649 0-1.226-.13-1.732-.389M162.39 17.394a2.472 2.472 0 0 1-.865-.534c-.507-.528-.76-1.246-.76-2.154V9.845h-1.573V8.093h1.573V5.49h1.944v2.603h2.192v1.752h-2.192v4.445c0 .507.094.865.283 1.075.177.247.483.37.919.37.2 0 .377-.027.53-.08.154-.055.318-.142.495-.263v1.934c-.389.18-.86.27-1.414.27-.4 0-.778-.067-1.131-.202M166.783 16.594c-.571-.669-.857-1.6-.857-2.792v-5.71h1.944v5.439c0 .747.174 1.307.522 1.68.347.374.804.561 1.37.561.46 0 .866-.123 1.22-.37.353-.248.624-.576.812-.985.189-.41.283-.85.283-1.32V8.093h1.944v9.214h-1.838v-1.192h-.106c-.247.433-.63.789-1.149 1.067a3.445 3.445 0 0 1-1.644.415c-1.096 0-1.93-.335-2.5-1.003M175.524 8.092h1.856v1.356h.088c.2-.47.548-.862 1.043-1.175a2.893 2.893 0 0 1 1.573-.47c.436 0 .802.066 1.096.2v2.04c-.518-.192-.984-.288-1.396-.288-.448 0-.846.12-1.193.362a2.517 2.517 0 0 0-.822.968c-.2.405-.3.849-.3 1.332v4.89h-1.945V8.092zM182.046 17.307h1.945V8.093h-1.945v9.214zm.044-10.796a1.308 1.308 0 0 1-.38-.949c0-.373.127-.689.38-.948.254-.26.563-.389.928-.389.366 0 .675.13.928.389.254.26.38.575.38.948 0 .374-.126.69-.38.95a1.25 1.25 0 0 1-.928.387 1.25 1.25 0 0 1-.928-.388zM188.127 17.394a2.472 2.472 0 0 1-.866-.534c-.507-.528-.76-1.246-.76-2.154V9.845h-1.574V8.093h1.574V5.49h1.944v2.603h2.192v1.752h-2.192v4.445c0 .507.094.865.283 1.075.176.247.483.37.919.37.2 0 .377-.027.53-.08.153-.055.318-.142.495-.263v1.934c-.389.18-.86.27-1.414.27-.4 0-.778-.067-1.131-.202M194.578 16.801l-3.747-8.709h2.174l2.545 6.27h.071l2.475-6.27h2.139l-5.568 13.118h-2.05zM209.408 15.428c.601 0 1.08-.192 1.44-.578a1.9 1.9 0 0 0 .54-1.337c0-.518-.186-.967-.557-1.347-.371-.379-.869-.568-1.494-.568h-2.916v3.83h2.987zm-.3-5.637c.565 0 1.022-.18 1.37-.542.347-.362.521-.778.521-1.247 0-.47-.168-.882-.504-1.238-.336-.355-.775-.533-1.317-.533h-2.757v3.56h2.687zM204.44 4.37h4.755c.672 0 1.293.15 1.865.452a3.599 3.599 0 0 1 1.37 1.246c.34.53.512 1.115.512 1.753 0 .639-.156 1.193-.468 1.662-.312.47-.722.826-1.229 1.066v.11a3.26 3.26 0 0 1 1.547 1.138c.395.53.592 1.15.592 1.86 0 .711-.18 1.344-.539 1.897-.36.555-.842.986-1.45 1.292-.606.308-1.269.461-1.988.461h-4.967V4.37zM220.897 11.616a2.33 2.33 0 0 0-.3-.967 2.174 2.174 0 0 0-.804-.804c-.36-.217-.799-.325-1.317-.325-.625 0-1.152.189-1.582.569-.43.38-.728.888-.893 1.527h4.896zm-4.693 5.348a4.412 4.412 0 0 1-1.644-1.744c-.394-.74-.592-1.574-.592-2.502 0-.88.192-1.696.575-2.448a4.593 4.593 0 0 1 1.6-1.799c.683-.445 1.46-.668 2.333-.668.907 0 1.694.205 2.36.614.665.41 1.172.97 1.52 1.68.347.712.521 1.513.521 2.404 0 .169-.018.38-.053.633h-6.911c.07.854.368 1.514.892 1.978a2.679 2.679 0 0 0 1.83.695c.554 0 1.034-.129 1.44-.388.407-.259.734-.611.981-1.057l1.644.795c-.424.76-.978 1.356-1.661 1.79-.684.433-1.503.65-2.457.65-.884 0-1.677-.211-2.378-.633zM223.884 8.092h1.856v1.211h.089c.259-.434.645-.793 1.158-1.075a3.325 3.325 0 0 1 1.635-.425c1.095 0 1.93.328 2.5.985.572.656.858 1.55.858 2.683v5.836h-1.944v-5.565c0-.723-.174-1.253-.522-1.59-.347-.338-.828-.506-1.44-.506-.436 0-.825.124-1.167.37a2.454 2.454 0 0 0-.795.985c-.189.41-.283.85-.283 1.32v4.986h-1.945V8.092zM235.17 16.964a4.374 4.374 0 0 1-1.661-1.744c-.395-.74-.593-1.581-.593-2.52 0-.94.198-1.78.593-2.52a4.376 4.376 0 0 1 1.661-1.745c.713-.421 1.517-.632 2.413-.632.99 0 1.832.229 2.528.687a3.757 3.757 0 0 1 1.484 1.861l-1.785.759c-.4-.977-1.16-1.464-2.28-1.464-.483 0-.928.127-1.335.379-.406.253-.73.612-.972 1.076-.241.464-.362.997-.362 1.599s.12 1.138.362 1.608c.242.47.566.831.972 1.084.407.253.852.38 1.335.38.566 0 1.052-.13 1.458-.389.407-.26.716-.63.928-1.111l1.75.776a4.174 4.174 0 0 1-1.555 1.861c-.696.458-1.538.688-2.528.688-.896 0-1.7-.211-2.413-.633M242.567 4.37h1.945v3.524l-.089 1.409h.089c.259-.434.645-.792 1.158-1.075a3.365 3.365 0 0 1 1.652-.425c1.096 0 1.933.328 2.51.985.578.656.866 1.55.866 2.683v5.836h-1.944V11.74c0-.698-.18-1.222-.54-1.571-.359-.35-.827-.524-1.404-.524-.436 0-.828.126-1.176.38a2.615 2.615 0 0 0-.822 1.003c-.2.415-.3.857-.3 1.327v4.95h-1.945V4.37zM252.148 8.092h1.856v1.211h.088a3.067 3.067 0 0 1 1.149-1.085 3.21 3.21 0 0 1 1.59-.415c.649 0 1.214.153 1.698.46.483.308.83.714 1.043 1.22a3.547 3.547 0 0 1 1.228-1.22c.513-.307 1.117-.46 1.812-.46 1.037 0 1.823.323 2.36.967.536.644.804 1.52.804 2.629v5.908h-1.945v-5.565c0-1.397-.583-2.096-1.75-2.096-.624 0-1.137.26-1.537.777-.401.518-.601 1.156-.601 1.915v4.97h-1.945v-5.566c0-1.397-.6-2.096-1.803-2.096-.612 0-1.116.26-1.51.777-.396.518-.593 1.156-.593 1.915v4.97h-1.944V8.091zM271.574 15.61c.377-.23.672-.537.884-.922.211-.386.318-.802.318-1.248a4.297 4.297 0 0 0-2.068-.523c-.731 0-1.267.147-1.609.442-.341.296-.512.678-.512 1.148 0 .421.159.767.477 1.04.318.27.73.405 1.237.405.472 0 .895-.114 1.273-.343m-3.34 1.6a2.862 2.862 0 0 1-1.186-1.103 3.11 3.11 0 0 1-.423-1.617c0-.952.35-1.705 1.051-2.259.7-.554 1.588-.831 2.66-.831.53 0 1.008.051 1.432.153.425.103.76.214 1.008.334v-.47c0-.565-.207-1.026-.619-1.381-.413-.356-.942-.533-1.59-.533-.46 0-.894.102-1.3.307a2.564 2.564 0 0 0-.98.849l-1.362-1.066c.4-.567.92-1.005 1.556-1.32.636-.312 1.343-.469 2.12-.469 1.308 0 2.316.328 3.023.985.707.656 1.06 1.58 1.06 2.773v5.746h-1.908v-1.102h-.088c-.26.397-.626.73-1.096.994-.472.265-1.014.398-1.627.398-.648 0-1.226-.13-1.732-.389M276.046 8.092h1.856v1.356h.088c.2-.47.548-.862 1.043-1.175a2.893 2.893 0 0 1 1.573-.47c.436 0 .802.066 1.096.2v2.04c-.518-.192-.984-.288-1.396-.288-.448 0-.846.12-1.193.362a2.51 2.51 0 0 0-.822.968c-.2.405-.3.849-.3 1.332v4.89h-1.945V8.092zM282.515 4.37h1.944v7.535h.053l3.695-3.812h2.439V8.2l-3.5 3.56 3.606 5.44v.107h-2.315l-2.652-4.174-1.326 1.319v2.855h-1.944z"/></g></g></svg>