<?xml version="1.0" encoding="UTF-8"?>
<svg width="128px" height="41px" viewBox="0 0 128 41" version="1.1" xmlns="http://www.w3.org/2000/svg" xmlns:xlink="http://www.w3.org/1999/xlink">
    <!-- Generator: Sketch 49 (51002) - http://www.bohemiancoding.com/sketch -->
    <title>google logo</title>
    <desc>Created with Sketch.</desc>
    <defs>
        <polygon id="path-1" points="0.0002 0.3745 30.6137 0.3745 30.6137 31.79075 0.0002 31.79075"></polygon>
        <polygon id="path-3" points="0 40.62575 127.5855 40.62575 127.5855 0.50025 0 0.50025"></polygon>
    </defs>
    <g id="Website" stroke="none" stroke-width="1" fill="none" fill-rule="evenodd">
        <g id="Landing-Page" transform="translate(-93.000000, -9805.000000)">
            <g id="Group-13" transform="translate(0.000000, 9750.000000)">
                <g id="google-logo" transform="translate(93.000000, 55.000000)">
                    <g id="Page-1">
                        <g id="Group-3" transform="translate(0.000000, 0.125750)">
                            <mask id="mask-2" fill="white">
                                <use xlink:href="#path-1"></use>
                            </mask>
                            <g id="Clip-2"></g>
                            <path d="M15.9352,14.66875 L15.9352,18.96225 L26.1977,18.96225 C25.8837,21.37075 25.0807,23.13375 23.8592,24.37275 C22.3582,25.87375 20.0192,27.51425 15.9352,27.51425 C9.6167,27.51425 4.6777,22.41825 4.6777,16.09975 C4.6777,9.78175 9.6167,4.68525 15.9352,4.68525 C19.3387,4.68525 21.8342,6.02925 23.6672,7.75725 L26.6862,4.73775 C24.1382,2.25925 20.7172,0.37425 15.9352,0.37425 C7.2782,0.37425 0.0002,7.42575 0.0002,16.08275 C0.0002,24.73975 7.2782,31.79075 15.9352,31.79075 C20.6127,31.79075 24.1382,30.25475 26.8957,27.39225 C29.7237,24.56475 30.6137,20.56825 30.6137,17.35625 C30.6137,16.36175 30.5437,15.43675 30.3867,14.66875 L15.9352,14.66875 Z" id="Fill-1" fill="#FFFFFF" mask="url(#mask-2)"></path>
                        </g>
                        <path d="M43.442,27.58795 C40.37,27.58795 37.717,25.05695 37.717,21.44445 C37.717,17.79645 40.37,15.30045 43.442,15.30045 C46.514,15.30045 49.1665,17.79645 49.1665,21.44445 C49.1665,25.05695 46.514,27.58795 43.442,27.58795 M43.442,11.30395 C37.839,11.30395 33.2665,15.56245 33.2665,21.44445 C33.2665,27.27395 37.839,31.58495 43.442,31.58495 C49.0445,31.58495 53.6175,27.29095 53.6175,21.44445 C53.6175,15.56245 49.0445,11.30395 43.442,11.30395" id="Fill-4" fill="#FFFFFF"></path>
                        <path d="M88.2101,27.58795 C85.1381,27.58795 82.8001,24.96995 82.8001,21.44445 C82.8001,17.86645 85.1381,15.30045 88.2101,15.30045 C91.2471,15.30045 93.6206,17.91895 93.6206,21.47895 C93.6381,25.02195 91.2471,27.58795 88.2101,27.58795 Z M93.3246,13.57295 L93.1671,13.57295 C92.1726,12.38595 90.2526,11.30395 87.8261,11.30395 C82.7646,11.30395 78.3491,15.71945 78.3491,21.44445 C78.3491,27.13445 82.7646,31.58495 87.8261,31.58495 C90.2526,31.58495 92.1726,30.50245 93.1671,29.28095 L93.3246,29.28095 L93.3246,30.69495 C93.3246,34.56945 91.2471,36.64645 87.9136,36.64645 C85.1911,36.64645 83.4976,34.69145 82.8001,33.03345 L78.9251,34.63945 C80.0421,37.32745 82.9916,40.62545 87.9136,40.62545 C93.1326,40.62545 97.5481,37.55395 97.5481,30.06645 L97.5481,11.82745 L93.3246,11.82745 L93.3246,13.57295 Z" id="Fill-6" fill="#FFFFFF"></path>
                        <path d="M66.13145,27.58795 C63.05945,27.58795 60.40695,25.05695 60.40695,21.44445 C60.40695,17.79645 63.05945,15.30045 66.13145,15.30045 C69.20345,15.30045 71.85645,17.79645 71.85645,21.44445 C71.85645,25.05695 69.20345,27.58795 66.13145,27.58795 M66.13145,11.30395 C60.52895,11.30395 55.95595,15.56245 55.95595,21.44445 C55.95595,27.27395 60.52895,31.58495 66.13145,31.58495 C71.73395,31.58495 76.30695,27.29095 76.30695,21.44445 C76.30695,15.56245 71.73395,11.30395 66.13145,11.30395" id="Fill-8" fill="#FFFFFF"></path>
                        <mask id="mask-4" fill="white">
                            <use xlink:href="#path-3"></use>
                        </mask>
                        <g id="Clip-11"></g>
                        <polygon id="Fill-10" fill="#FFFFFF" mask="url(#mask-4)" points="101.0385 31.58475 105.4195 31.58475 105.4195 0.91875 101.0385 0.91875"></polygon>
                        <path d="M118.63195,15.1087 C120.42995,15.1087 121.96545,16.0337 122.47195,17.3427 L113.30895,21.1297 C113.30895,16.8712 116.32845,15.1087 118.63195,15.1087 M118.94595,27.5877 C116.67695,27.5877 115.07145,26.5582 114.02395,24.5162 L127.58545,18.9137 L127.13195,17.7617 C126.29395,15.4927 123.71095,11.3037 118.45695,11.3037 C113.23895,11.3037 108.89245,15.4052 108.89245,21.4442 C108.89245,27.1342 113.18595,31.5852 118.94595,31.5852 C123.58845,31.5852 126.27645,28.7397 127.39345,27.0992 L123.93745,24.7957 C122.78595,26.4707 121.21495,27.5877 118.94595,27.5877" id="Fill-12" fill="#FFFFFF" mask="url(#mask-4)"></path>
                    </g>
                </g>
            </g>
        </g>
    </g>
</svg>