<?xml version="1.0" encoding="UTF-8"?>
<svg width="485px" height="125px" viewBox="0 0 485 125" version="1.1" xmlns="http://www.w3.org/2000/svg" xmlns:xlink="http://www.w3.org/1999/xlink">
    <!-- Generator: Sketch 49 (51002) - http://www.bohemiancoding.com/sketch -->
    <title>Group 9</title>
    <desc>Created with Sketch.</desc>
    <defs></defs>
    <g id="Website" stroke="none" stroke-width="1" fill="none" fill-rule="evenodd">
        <g id="Landing-Page" transform="translate(-733.000000, -7489.000000)">
            <g id="Group-3" transform="translate(0.000000, 6144.000000)">
                <g id="Group-9" transform="translate(733.000000, 1345.000000)">
                    <path d="M4,7 L77.78125,7 L77.78125,15 L4,15 C1.790861,15 2.705415e-16,13.209139 0,11 L0,11 C-2.705415e-16,8.790861 1.790861,7 4,7 Z" id="Rectangle-2" fill="#FFFFFF"></path>
                    <polygon id="Rectangle-2" fill="#FFFFFF" points="98 7 206 7 206 15 98 15"></polygon>
                    <text id="NASCENT" transform="translate(46.058875, 61.941125) rotate(-45.000000) translate(-46.058875, -61.941125) " font-family="GoogleSans-Regular, Google Sans" font-size="16" font-weight="normal" line-spacing="24" fill="#FFFFFF">
                        <tspan x="10.4268745" y="64.9411255">NASCENT</tspan>
                    </text>
                    <text id="EMERGING" transform="translate(166.803301, 65.476659) rotate(-45.000000) translate(-166.803301, -65.476659) " font-family="GoogleSans-Regular, Google Sans" font-size="16" font-weight="normal" line-spacing="24" fill="#FFFFFF">
                        <tspan x="125.851301" y="68.4766594">EMERGING</tspan>
                    </text>
                    <text id="CONNECTED" transform="translate(289.779960, 70.779960) rotate(-45.000000) translate(-289.779960, -70.779960) " font-family="GoogleSans-Regular, Google Sans" font-size="16" font-weight="normal" line-spacing="24" fill="#FFFFFF">
                        <tspan x="241.78396" y="73.7799603">CONNECTED</tspan>
                    </text>
                    <text id="MULTI-MOMENT" transform="translate(410.265242, 79.265242) rotate(-45.000000) translate(-410.265242, -79.265242) " font-family="GoogleSans-Regular, Google Sans" font-size="16" font-weight="normal" line-spacing="24" fill="#FFFFFF">
                        <tspan x="350.429242" y="82.2652416">MULTI-MOMENT</tspan>
                    </text>
                    <circle id="Oval-2" stroke="#FFFFFF" stroke-width="2" cx="87.5" cy="11.5" r="10.5"></circle>
                    <circle id="Oval-2" fill="#FFFFFF" cx="87.5" cy="11.5" r="4.5"></circle>
                    <circle id="Oval-2" fill="#FFFFFF" cx="216.5" cy="11.5" r="4.5"></circle>
                    <circle id="Oval-2" stroke="#FFFFFF" stroke-width="2" cx="216.5" cy="11.5" r="10.5"></circle>
                    <path d="M344.5,21 C349.746705,21 354,16.7467051 354,11.5 C354,6.25329488 349.746705,2 344.5,2 C339.253295,2 335,6.25329488 335,11.5 C335,16.7467051 339.253295,21 344.5,21 Z M355.457697,15 C353.976942,19.6398324 349.630876,23 344.5,23 C339.369124,23 335.023058,19.6398324 333.542303,15 L226,15 L226,7 L333.913775,7 C335.665166,2.88508479 339.745659,0 344.5,0 C349.254341,0 353.334834,2.88508479 355.086225,7 L462.913775,7 C464.665166,2.88508479 468.745659,0 473.5,0 C479.851275,0 485,5.14872538 485,11.5 C485,17.8512746 479.851275,23 473.5,23 C468.369124,23 464.023058,19.6398324 462.542303,15 L355.457697,15 Z M473.5,21 C478.746705,21 483,16.7467051 483,11.5 C483,6.25329488 478.746705,2 473.5,2 C468.253295,2 464,6.25329488 464,11.5 C464,16.7467051 468.253295,21 473.5,21 Z" id="Combined-Shape" fill="#FFFFFF" fill-rule="nonzero" opacity="0.5"></path>
                </g>
            </g>
        </g>
    </g>
</svg>