<svg viewBox="0 0 1439 344" xmlns="http://www.w3.org/2000/svg" xmlns:xlink="http://www.w3.org/1999/xlink"><defs><path d="M0 0h1199.516a7.598 7.598 0 0 1 0 15.197H0V0z" id="a"/><linearGradient x1="50%" y1="0%" x2="50%" y2="100%" id="c"><stop stop-color="#FFF" offset="0%"/><stop stop-color="#FFF" stop-opacity="0" offset="100%"/></linearGradient></defs><g fill="none" fill-rule="evenodd"><path fill="#F1F3F4" fill-rule="nonzero" opacity=".3" d="M1200.368 53.88h182.812v288.739h-182.812z"/><path d="M66.518 3.317v340.129M247.934 3.275v339.669M1199.67 3.275v339.669M1381.784 2.763v339.855" stroke="#9AA0A6" opacity=".337" stroke-linecap="square"/><path d="M0 217h1269.291a7.598 7.598 0 0 1 0 15.197H0V217z" fill="#EDEEEE" fill-rule="nonzero"/><g transform="translate(0 173)"><mask id="b" fill="#fff"><use xlink:href="#a"/></mask><use fill="#FFF" fill-rule="nonzero" xlink:href="#a"/><g opacity=".15" mask="url(#b)" fill="#4285F4"><path d="M0 0h1239v15H0z"/></g></g><path d="M0 260h1390.7a7.598 7.598 0 0 1 0 15.197H0V260z" fill="#EDEEEE" fill-rule="nonzero"/><path fill="url(#c)" d="M10 0h1429v186.506H10z"/></g></svg>