<svg viewBox="0 0 140 140" xmlns="http://www.w3.org/2000/svg" xmlns:xlink="http://www.w3.org/1999/xlink"><defs><path id="a" d="M5.833 2.815h114.825v19.15H5.833z"/></defs><g fill="none" fill-rule="evenodd"><path fill="#000" opacity=".3" d="M20.093 80.221h36.54v41.755h-36.54z"/><g transform="translate(-4.833 45.723)"><path d="M110.216 93.332c5.74 0 10.442-4.696 10.442-10.436V13.252c0-5.74-4.65-10.441-10.442-10.441h-93.94C10.478 2.81 5.83 7.511 5.83 13.252v69.644c0 5.74 4.649 10.436 10.447 10.436h93.94zm-93.94-10.436h93.94V21.967h-93.94v60.93z" fill="#E6E6E6"/><mask id="b" fill="#fff"><use xlink:href="#a"/></mask><path d="M120.658 21.965v-8.709c0-5.746-4.65-10.441-10.442-10.441H16.27C10.478 2.815 5.83 7.51 5.83 13.256v8.71h114.829z" fill="#000" opacity=".2" mask="url(#b)"/></g><path d="M17.746 58.112a5.345 5.345 0 0 1-5.349 5.35 5.345 5.345 0 0 1-5.349-5.35 5.345 5.345 0 0 1 5.35-5.349 5.345 5.345 0 0 1 5.348 5.35" fill="#FBBC05"/><path d="M32.592 58.112a5.345 5.345 0 0 1-5.35 5.35 5.345 5.345 0 0 1-5.349-5.35 5.345 5.345 0 0 1 5.35-5.349 5.345 5.345 0 0 1 5.349 5.35M47.437 58.112a5.345 5.345 0 0 1-5.35 5.35 5.345 5.345 0 0 1-5.348-5.35 5.345 5.345 0 0 1 5.349-5.349 5.345 5.345 0 0 1 5.349 5.35" fill="#000" opacity=".2"/><path fill="#000" opacity=".3" d="M115.825 67.808h-10.442v1.796l10.442 1.645zM11.44 67.808H.998v1.796L11.44 71.25z"/><path fill="#4285F4" d="M16.75 118.995h36.534V77.24H16.75z"/><path fill="#E6E6E6" d="M63.242 96.129h35.921V77.24H63.242zM63.242 118.995h35.921V101.1H63.242z"/><path fill="#E94335" d="M139.01 0h-33l12.373 12.373L88.977 41.78h16.503L126.63 20.62 139.01 33z"/></g></svg>