<svg viewBox="0 0 131 136" xmlns="http://www.w3.org/2000/svg"><g fill="none" fill-rule="evenodd"><path d="M84.875 22.738H69.143v39.077h55.562c0-33.32-26.337-60.416-59.313-61.804.052.053-3.29-.047-3.243 0l22.726 22.727z" fill="#4285F4"/><path fill="#000" opacity=".1" d="M84.875 22.738H69.143v39.077h5.833V28.571H90.71z"/><path d="M57.463 22.75v-.012H39.187L61.926.005c-.502-.006-1.82.047-1.78.012C27.166 1.399.834 28.495.834 61.815c0 32.416 24.914 58.964 56.63 61.659V22.749z" fill="#FBBC05"/><path d="M69.141 73.256v61.88c33.752-.52 60.964-28 60.964-61.88H69.141z" fill="#E94335"/><path d="M74.974 73.256h-5.833v61.88c1.966-.024 3.908-.17 5.833-.38v-61.5z" fill="#000" opacity=".1"/><path d="M19.307 105.202l-.332.374c10.057 9.992 23.52 16.549 38.494 17.791V67.041l-38.162 38.161z" fill="#34A853"/><path d="M57.471 67.04L19.31 105.203l-.333.374c1.494 1.493 3.092 2.876 4.731 4.206l33.763-33.764v-8.977z" fill="#000" opacity=".1"/></g></svg>